<?xml version="1.0" encoding="utf-8"?>
<!-- Generator: Adobe Illustrator 16.0.0, SVG Export Plug-In . SVG Version: 6.00 Build 0)  -->
<!DOCTYPE svg PUBLIC "-//W3C//DTD SVG 1.1//EN" "http://www.w3.org/Graphics/SVG/1.1/DTD/svg11.dtd">
<svg version="1.1" id="Layer_1" xmlns="http://www.w3.org/2000/svg" xmlns:xlink="http://www.w3.org/1999/xlink" x="0px" y="0px"
	 width="1920px" height="900px" viewBox="0 0 1920 900" enable-background="new 0 0 1920 900" xml:space="preserve">
<linearGradient id="SVGID_1_" gradientUnits="userSpaceOnUse" x1="3487.2676" y1="-510.2959" x2="4055.1182" y2="-510.2959" gradientTransform="matrix(0.9524 -0.3049 0.3049 0.9524 -1206.745 1038.1586)">
	<stop  offset="0" style="stop-color:#F37621"/>
	<stop  offset="0.063" style="stop-color:#EF6F21"/>
	<stop  offset="0.469" style="stop-color:#D54A23"/>
	<stop  offset="0.7955" style="stop-color:#C53325"/>
	<stop  offset="1" style="stop-color:#BF2A25"/>
</linearGradient>
<path fill="url(#SVGID_1_)" d="M2499.756-684.264c22.584,70.539-80.172,166.485-229.513,214.3
	c-149.342,47.815-288.716,29.396-311.302-41.144c-22.583-70.536,80.173-166.482,229.514-214.297
	C2337.797-773.222,2477.171-754.802,2499.756-684.264z"/>
<linearGradient id="SVGID_2_" gradientUnits="userSpaceOnUse" x1="1949.1602" y1="-345.4741" x2="3063.2188" y2="-345.4741">
	<stop  offset="0" style="stop-color:#F37621"/>
	<stop  offset="0.063" style="stop-color:#EF6F21"/>
	<stop  offset="0.469" style="stop-color:#D54A23"/>
	<stop  offset="0.7955" style="stop-color:#C53325"/>
	<stop  offset="1" style="stop-color:#BF2A25"/>
</linearGradient>
<path fill="url(#SVGID_2_)" d="M1949.16-81.412c17.676-1.45,246.611,8.237,378.771-264.118
	c89.139-183.694,173.43-380.08,474.254-376.198c71.018,0.915,157.846,30.303,234.146,115.504
	c95.729,551.178-94.93,561.635-94.93,561.635l-544.389,75.426"/>
<g>
	<g>
		<g>
			<g>
				<g>
					<g>
						<path fill="#E3EFF8" d="M705.992-704.707c0,0-33.398-3.996-32.859-57.852c-9.559-14.472-22.059-25.01-30.685-31.252v-6.563
							c0,0-1.491,1.412-3.853,3.863c-3.66-2.451-6.132-3.863-6.132-3.863l0.952,9.471c-5.692,6.422-13.473,15.96-21.652,28.344
							c0.539,53.855-32.86,57.852-32.86,57.852l63.545,1.85v0.306l0,0L705.992-704.707z"/>
						<g opacity="0.62">
							<path fill="#E3EFF8" d="M609.044-737.695c13.138-7.319,37.505-15.803,66.402-1.691c-1.517-6.465-2.404-14.096-2.313-23.17
								c-0.259-0.391-0.537-0.747-0.797-1.128c-39.408-5.56,7.98-13.366-42.246-5.099c-5.968,0.982-11.22,1.848-15.89,2.617
								c-0.808,1.183-1.616,2.371-2.437,3.609C611.864-752.686,610.813-744.501,609.044-737.695z"/>
						</g>
						<path fill="#FFFFF8" d="M892.402-748.74H392.494c-10.355,0-18.753-8.393-18.753-18.75v-291.252
							c0.464-10.583,9.548-18.239,18.753-18.75h498.475c10.357,0,20.187,8.929,20.187,19.287v290.715
							C911.155-757.133,902.76-748.74,892.402-748.74z"/>
						<path fill="#181F47" d="M891.232-1077.492H393.667c-11.005,0-19.926,8.919-19.926,19.923V-807.9h537.414v-249.668
							C911.155-1068.573,902.236-1077.492,891.232-1077.492z"/>
					</g>
					<path fill="#FFFFF8" d="M710.344-701.883H574.552v-1.306c0-2.326,1.888-4.211,4.214-4.211h127.367
						c2.326,0,4.211,1.885,4.211,4.211V-701.883z"/>
					<rect x="399.908" y="-1054.024" fill="#3FF8FF" width="488.795" height="223.325"/>
					<rect x="645.103" y="-1008.701" fill="#5421A0" width="216.588" height="142.869"/>
					<path fill="#321479" d="M802.695-942.191h38.285c4.417,0,7.996-3.58,7.996-7.997v-38.282c0-4.417-3.579-7.996-7.996-7.996
						h-38.285c-4.416,0-7.996,3.58-7.996,7.996v38.282C794.699-945.771,798.279-942.191,802.695-942.191z"/>
					<path fill="#321479" d="M736.486-942.191h38.285c4.416,0,7.996-3.58,7.996-7.997v-38.282c0-4.417-3.58-7.996-7.996-7.996
						h-38.285c-4.414,0-7.994,3.58-7.994,7.996v38.282C728.492-945.771,732.072-942.191,736.486-942.191z"/>
					<rect x="745.864" y="-1043.968" fill="#FF2E20" width="154.026" height="82.541"/>
					<rect x="753.396" y="-981.291" fill="#3FF8FF" width="75.451" height="1.612"/>
					<rect x="753.396" y="-975.991" fill="#3FF8FF" width="75.451" height="1.614"/>
					<rect x="753.396" y="-970.687" fill="#3FF8FF" width="75.451" height="1.612"/>
					<rect x="753.396" y="-989.914" fill="#003DC0" width="51.65" height="5.046"/>
					<circle fill="#3FF8FF" cx="859.291" cy="-1002.697" r="31.475"/>
					<circle fill="#00D6F1" cx="859.29" cy="-1002.697" r="27.515"/>
					<path fill="#ECF4FF" d="M856.073-985.685l17.692-13.268c2.163-1.619,2.163-4.865,0-6.487l-17.692-13.265
						c-2.672-2.005-6.487-0.096-6.487,3.244v26.531C849.586-985.587,853.401-983.682,856.073-985.685z"/>
					<path fill="#321479" d="M670.277-942.191h38.287c4.414,0,7.994-3.58,7.994-7.997v-38.282c0-4.417-3.58-7.996-7.994-7.996
						h-38.287c-4.414,0-7.994,3.58-7.994,7.996v38.282C662.283-945.771,665.863-942.191,670.277-942.191z"/>
					<path fill="#321479" d="M802.695-876.195h38.285c4.417,0,7.996-3.579,7.996-7.994v-38.284c0-4.417-3.579-7.996-7.996-7.996
						h-38.285c-4.416,0-7.996,3.58-7.996,7.996v38.284C794.699-879.774,798.279-876.195,802.695-876.195z"/>
					<path fill="#321479" d="M736.486-876.195h38.285c4.416,0,7.996-3.579,7.996-7.994v-38.284c0-4.417-3.58-7.996-7.996-7.996
						h-38.285c-4.414,0-7.994,3.58-7.994,7.996v38.284C728.492-879.774,732.072-876.195,736.486-876.195z"/>
					<g>
						<path fill="#3FF8FF" d="M750.87-888.402L750.87-888.402c-1.15,0-2.249-0.459-3.063-1.271l-10.172-10.174
							c-1.692-1.695-1.692-4.438,0-6.127c1.691-1.692,4.435-1.692,6.126,0l7.109,7.114l17.645-17.645
							c1.692-1.692,4.435-1.692,6.126,0c1.692,1.692,1.692,4.434,0,6.124l-20.707,20.708
							C753.121-888.861,752.018-888.402,750.87-888.402z"/>
					</g>
					<path fill="#321479" d="M670.277-876.195h38.287c4.414,0,7.994-3.579,7.994-7.994v-38.284c0-4.417-3.58-7.996-7.994-7.996
						h-38.287c-4.414,0-7.994,3.58-7.994,7.996v38.284C662.283-879.774,665.863-876.195,670.277-876.195z"/>
				</g>
			</g>
			<path fill="#005FE3" d="M821.005-722.851c1.474-3.908-1.923-11.856-14.89-6.808c-16.329,6.363-34.354,16.498-58.915-3.064
				l-8.095,2.222c0,0,21.192,31.56,62.438,20.159C806.727-711.773,818.109-715.16,821.005-722.851z"/>
			<path opacity="0.46" fill="#FFD222" d="M800.234-710.017c1.459-11.736,8.031-20.174,8.031-20.174l8.565-0.315
				c0,0,0,0-0.354,8.021c-0.133,3.058-0.92,5.334-2.462,7.169c-4.326,2.632-9.45,4.141-12.473,4.974
				C801.1-710.217,800.673-710.129,800.234-710.017z"/>
			<g>
				<path opacity="0.09" fill="#008DCA" d="M783.755-574.851l-290.31-1.763c-2.326-0.012-3.612-1.594-2.885-3.502l24.119-63.181
					c0.391-1.025,2.063-1.84,3.737-1.833l209.186,1.271c1.675,0.01,3.723,0.848,4.58,1.883l52.874,63.649
					C786.653-576.404,786.079-574.838,783.755-574.851z"/>
				<path fill="#C8E1FF" d="M805.253-673.022l-310.965,95.569c-2.492,0.766-3.828-2.176-3.908-3.506l28.115-77.193
					c0.443-1.264,2.251-2.726,4.046-3.277l224.07-68.861c1.792-0.551,3.968-0.315,4.863,0.537l55.034,50.805
					C807.448-677.074,807.744-673.787,805.253-673.022z"/>
				<path fill="#EBF6FF" d="M804.583-675.199l-310.967,95.566c-2.489,0.767-3.833-0.545-3.011-2.894l27.22-77.808
					c0.441-1.264,2.251-2.723,4.046-3.273l224.068-68.863c1.795-0.553,3.971-0.314,4.868,0.538l55.247,52.463
					C807.722-677.886,807.075-675.966,804.583-675.199z"/>
				<g>
					<polygon fill="#FFFFF8" points="542.995,-660.881 522.084,-654.453 524.318,-661.396 544.587,-667.629 					"/>
					<polygon fill="#FFFFF8" points="557.481,-665.332 547.525,-662.271 548.979,-668.977 558.627,-671.939 					"/>
					<polygon fill="#FFFFF8" points="573.479,-670.248 563.522,-667.188 564.482,-673.74 574.133,-676.707 					"/>
					<polygon fill="#FFFFF8" points="589.477,-675.164 579.521,-672.105 579.986,-678.505 589.637,-681.471 					"/>
					<polygon fill="#FFFFF8" points="605.475,-680.082 595.518,-677.021 595.493,-683.27 605.144,-686.238 					"/>
					<polygon fill="#FFFFF8" points="621.473,-684.997 611.516,-681.937 610.996,-688.035 620.647,-691.001 					"/>
					<polygon fill="#FFFFF8" points="637.47,-689.912 627.511,-686.854 626.503,-692.801 636.154,-695.769 					"/>
					<polygon fill="#FFFFF8" points="653.465,-694.831 643.509,-691.771 642.007,-697.566 651.658,-700.531 					"/>
					<polygon fill="#FFFFF8" points="669.463,-699.746 659.506,-696.686 657.514,-702.331 667.164,-705.297 					"/>
					<polygon fill="#FFFFF8" points="685.461,-704.662 675.504,-701.602 673.018,-707.096 682.668,-710.062 					"/>
					<polygon fill="#FFFFF8" points="701.458,-709.58 691.502,-706.518 688.523,-711.861 698.174,-714.826 					"/>
					<polygon fill="#FFFFF8" points="717.456,-714.493 707.499,-711.436 704.027,-716.627 713.678,-719.592 					"/>
					<polygon fill="#FFFFF8" points="733.451,-719.412 723.494,-716.354 719.534,-721.392 729.185,-724.357 					"/>
					<polygon fill="#FFFFF8" points="749.449,-724.33 739.492,-721.267 735.037,-726.157 744.688,-729.123 					"/>
					<path fill="#FFD5B6" d="M747.2-732.723l-1.261,0.252l-6.319,7.273c0,0-2.771,0.291-1.993-2.331
						c0.777-2.624,2.191-3.061,2.191-3.061l-8.074,2.484c0,0,0.125-3.6,2.762-5.686c2.64-2.085,6.023-1.808,6.023-1.808
						L747.2-732.723z"/>
				</g>
				<g>
					<polygon fill="#FFFFF8" points="774.879,-698.719 759.36,-714.348 751.316,-711.877 766.078,-696.014 					"/>
					<g>
						<polygon fill="#FFFFF8" points="734.985,-710.082 756.906,-716.819 751.682,-722.078 730.468,-715.562 						"/>
						<polygon fill="#FFFFF8" points="719.802,-705.416 730.237,-708.623 725.873,-714.147 715.773,-711.044 						"/>
						<polygon fill="#FFFFF8" points="703.032,-700.266 713.471,-703.469 709.645,-709.159 699.545,-706.056 						"/>
						<polygon fill="#FFFFF8" points="686.266,-695.111 696.7,-698.318 693.417,-704.174 683.317,-701.067 						"/>
						<polygon fill="#FFFFF8" points="669.495,-689.958 679.934,-693.164 677.188,-699.188 667.089,-696.082 						"/>
						<polygon fill="#FFFFF8" points="652.729,-684.805 663.166,-688.013 660.96,-694.199 650.86,-691.096 						"/>
						<polygon fill="#FFFFF8" points="635.961,-679.65 646.396,-682.859 644.731,-689.211 634.633,-686.107 						"/>
						<polygon fill="#FFFFF8" points="619.193,-674.496 629.629,-677.705 628.506,-684.223 618.404,-681.119 						"/>
						<polygon fill="#FFFFF8" points="602.424,-669.343 612.861,-672.551 612.277,-679.236 602.176,-676.131 						"/>
						<polygon fill="#FFFFF8" points="585.656,-664.189 596.092,-667.397 596.049,-674.251 585.947,-671.145 						"/>
						<polygon fill="#FFFFF8" points="568.887,-659.038 579.324,-662.244 579.821,-669.263 569.719,-666.159 						"/>
						<polygon fill="#FFFFF8" points="552.119,-653.885 562.555,-657.09 563.593,-664.274 553.49,-661.171 						"/>
						<polygon fill="#FFFFF8" points="535.353,-648.73 545.787,-651.937 547.364,-659.286 537.265,-656.183 						"/>
						<polygon fill="#FFFFF8" points="518.582,-643.579 529.021,-646.785 531.136,-654.301 521.034,-651.194 						"/>
					</g>
					<g>
						<polygon fill="#FFFFF8" points="750.321,-662.783 763.303,-666.773 756.603,-675.254 744.135,-671.424 						"/>
						<polygon fill="#FFFFF8" points="783.494,-672.978 796.477,-676.969 788.458,-685.045 775.989,-681.215 						"/>
						<polygon fill="#FFFFF8" points="762.957,-673.338 775.613,-677.229 772.906,-680.268 760.438,-676.435 						"/>
						<polygon fill="#FFFFF8" points="767.299,-668 780.281,-671.99 777.434,-675.188 764.649,-671.258 						"/>
						<polygon fill="#FFFFF8" points="729.461,-656.373 742.442,-660.363 736.572,-669.098 724.104,-665.268 						"/>
						<polygon fill="#FFFFF8" points="708.602,-649.961 721.584,-653.951 716.541,-662.943 704.072,-659.11 						"/>
						<polygon fill="#FFFFF8" points="687.741,-643.549 700.724,-647.539 696.51,-656.787 684.044,-652.954 						"/>
						<polygon fill="#FFFFF8" points="666.881,-637.143 679.863,-641.13 676.479,-650.633 664.014,-646.801 						"/>
						<polygon fill="#FFFFF8" points="646.022,-630.73 659.005,-634.721 656.45,-644.477 643.982,-640.644 						"/>
						<polygon fill="#FFFFF8" points="625.162,-624.318 638.145,-628.309 636.42,-638.32 623.951,-634.49 						"/>
						<polygon fill="#FFFFF8" points="604.301,-617.908 617.286,-621.898 616.389,-632.164 603.92,-628.334 						"/>
						<polygon fill="#FFFFF8" points="583.443,-611.498 596.426,-615.489 596.357,-626.008 583.892,-622.178 						"/>
						<polygon fill="#FFFFF8" points="562.582,-605.086 575.567,-609.077 576.326,-619.851 563.861,-616.021 						"/>
						<polygon fill="#FFFFF8" points="541.725,-598.674 554.707,-602.665 556.298,-613.697 543.83,-609.864 						"/>
						<polygon fill="#FFFFF8" points="520.863,-592.268 533.846,-596.256 536.268,-607.541 523.799,-603.708 						"/>
						<polygon fill="#FFFFF8" points="500.003,-585.855 512.987,-589.846 516.236,-601.384 503.768,-597.551 						"/>
					</g>
					<g>
						<polygon fill="#FFFFF8" points="759.34,-680.553 785.068,-688.459 777.914,-695.663 753.153,-688.053 						"/>
						<polygon fill="#FFFFF8" points="741.52,-675.076 753.771,-678.838 747.792,-686.406 736.003,-682.783 						"/>
						<polygon fill="#FFFFF8" points="721.84,-669.027 734.09,-672.792 728.852,-680.588 717.063,-676.963 						"/>
						<polygon fill="#FFFFF8" points="702.16,-662.98 714.41,-666.744 709.91,-674.765 698.121,-671.143 						"/>
						<polygon fill="#FFFFF8" points="682.48,-656.93 694.73,-660.695 690.971,-668.944 679.182,-665.322 						"/>
						<polygon fill="#FFFFF8" points="662.8,-650.884 675.05,-654.648 672.029,-663.124 660.24,-659.502 						"/>
						<polygon fill="#FFFFF8" points="643.12,-644.835 655.37,-648.598 653.089,-657.303 641.303,-653.682 						"/>
						<polygon fill="#FFFFF8" points="623.439,-638.786 635.69,-642.551 634.15,-651.48 622.362,-647.86 						"/>
						<polygon fill="#FFFFF8" points="603.76,-632.74 616.01,-636.503 615.211,-645.66 603.422,-642.04 						"/>
						<polygon fill="#FFFFF8" points="584.082,-626.689 596.33,-630.454 596.27,-639.84 584.48,-636.217 						"/>
						<polygon fill="#FFFFF8" points="564.4,-620.643 576.65,-624.408 577.329,-634.019 565.54,-630.396 						"/>
						<polygon fill="#FFFFF8" points="544.723,-614.592 556.97,-618.357 558.389,-628.198 546.6,-624.576 						"/>
						<polygon fill="#FFFFF8" points="527.266,-609.23 539.514,-612.992 541.589,-623.034 529.8,-619.414 						"/>
						<polygon fill="#FFFFF8" points="505.362,-602.5 520.733,-607.223 523.516,-617.479 508.721,-612.933 						"/>
					</g>
				</g>
				<g>
					<polygon fill="#FFFFF8" points="537.759,-638.679 514.728,-631.602 517.432,-639.997 539.684,-646.836 					"/>
					<polygon fill="#FFFFF8" points="553.711,-643.582 542.747,-640.21 544.502,-648.316 555.098,-651.573 					"/>
					<polygon fill="#FFFFF8" points="571.328,-648.996 560.364,-645.625 561.524,-653.549 572.118,-656.805 					"/>
					<polygon fill="#FFFFF8" points="588.945,-654.408 577.98,-651.039 578.545,-658.779 589.141,-662.033 					"/>
					<polygon fill="#FFFFF8" points="606.563,-659.822 595.598,-656.453 595.568,-664.012 606.161,-667.268 					"/>
					<polygon fill="#FFFFF8" points="624.18,-665.236 613.215,-661.868 612.588,-669.242 623.185,-672.496 					"/>
					<polygon fill="#FFFFF8" points="641.797,-670.651 630.832,-667.282 629.611,-674.472 640.207,-677.73 					"/>
					<polygon fill="#FFFFF8" points="659.413,-676.066 648.449,-672.697 646.635,-679.705 657.228,-682.959 					"/>
					<polygon fill="#FFFFF8" points="677.03,-681.48 666.066,-678.111 663.654,-684.935 674.25,-688.193 					"/>
					<polygon fill="#FFFFF8" points="694.647,-686.895 683.684,-683.525 680.678,-690.166 691.271,-693.422 					"/>
					<polygon fill="#FFFFF8" points="712.265,-692.309 701.301,-688.94 697.701,-695.397 708.294,-698.654 					"/>
					<polygon fill="#FFFFF8" points="729.881,-697.724 718.917,-694.354 714.721,-700.629 725.316,-703.885 					"/>
					<polygon fill="#FFFFF8" points="747.498,-703.139 736.534,-699.77 731.744,-705.86 742.337,-709.117 					"/>
					<polygon fill="#FFFFF8" points="765.115,-708.553 751.437,-704.346 746.143,-710.287 759.36,-714.348 					"/>
				</g>
				<g>
					<polygon fill="#FFFFF8" points="534.495,-624.844 510.145,-617.359 513.16,-626.727 536.641,-633.943 					"/>
					<polygon fill="#FFFFF8" points="551.36,-630.025 539.767,-626.463 541.727,-635.508 552.906,-638.941 					"/>
					<polygon fill="#FFFFF8" points="569.987,-635.751 558.394,-632.189 559.689,-641.027 570.869,-644.461 					"/>
					<polygon fill="#FFFFF8" points="588.614,-641.474 577.021,-637.912 577.65,-646.547 588.83,-649.981 					"/>
					<polygon fill="#FFFFF8" points="607.239,-647.199 595.648,-643.637 595.613,-652.066 606.793,-655.504 					"/>
					<polygon fill="#FFFFF8" points="625.866,-652.924 614.273,-649.359 613.576,-657.586 624.756,-661.023 					"/>
					<polygon fill="#FFFFF8" points="644.494,-658.649 632.9,-655.085 631.539,-663.109 642.719,-666.545 					"/>
					<polygon fill="#FFFFF8" points="663.121,-664.372 651.527,-660.811 649.502,-668.629 660.682,-672.065 					"/>
					<polygon fill="#FFFFF8" points="681.748,-670.095 670.152,-666.535 667.465,-674.148 678.645,-677.585 					"/>
					<polygon fill="#FFFFF8" points="700.373,-675.82 688.779,-672.258 685.428,-679.67 696.607,-683.104 					"/>
					<polygon fill="#FFFFF8" points="719,-681.545 707.406,-677.98 703.391,-685.19 714.57,-688.625 					"/>
					<polygon fill="#FFFFF8" points="737.627,-687.271 726.033,-683.706 721.352,-690.71 732.531,-694.145 					"/>
					<polygon fill="#FFFFF8" points="756.252,-692.996 744.658,-689.432 739.314,-696.229 750.494,-699.666 					"/>
				</g>
			</g>
		</g>
		<g>
			<g>
				<g>
					<g>
						<path fill="#00A1FF" d="M805.842-729.557c0,0-2.73,13.584,1.936,23.423c4.664,9.839,24.059,49.46,24.059,49.46
							s11.807,8.981,31.03-8.829c0,0-22.796-52.886-27.975-61.56c-5.179-8.673-12.072-16.89-20.292-11.239L805.842-729.557z"/>
						<path fill="#0097ED" d="M812.654-696.01l9.218-12.809l11.24-13.609c0,0,7.563,24.764-11.283,45.273
							C818.716-683.535,815.39-690.369,812.654-696.01z"/>
						<path fill="#FFD5B6" d="M817.268-750.58l2.519,13.055c0,0-2.273,8.17-9.58,11.411l-2.609-13.531L817.268-750.58z"/>
						<g>
							<path fill="#181F47" d="M798.73-772.383c2.261-4.329,18.101-11.703,23.563,0c0,0,16.088,13.436-0.232,22.365l-3.43,3.303
								l-2.401-0.133l-3.121,2.795l-2.857-14.4l-11.621-1.181l0.101-4.675C794.349-766.858,793.632-773.431,798.73-772.383z"/>
							<polygon fill="#FF8B99" points="798.73,-762.133 794.349,-754.265 798.414,-753.322 							"/>
							<path fill="#FFD5B6" d="M798.73-764.309l-3.364,24.838c0,0,16.211,6.927,21.898-6.777c0,0,7.239-1.8,5.274-6.783
								c-0.301-0.765-1.51-1.293-2.532-1.309c-0.917-0.013-1.94,0.502-2.529,1.184c-1.181,1.355-1.233,3.003-1.233,3.003
								s-1.93-1.694-1.213-4.958c0,0-3.507-2.412-2.702-6.076C812.329-761.188,799.392-757.729,798.73-764.309L798.73-764.309z"/>
							<path fill="#FFFFFF" d="M796.139-745.05l0.669-4.828l7.676,1.214c0,0-1.817,4.491-7.082,4.055
								C796.948-744.648,796.584-744.781,796.139-745.05z"/>
						</g>
					</g>
				</g>
				<path fill="#00C7FF" d="M810.206-726.114l4.67,3.193c0,0,12.242-14.065,4.259-17.978
					C819.135-740.898,818.934-733.479,810.206-726.114z"/>
				<path fill="#00C7FF" d="M808.945-732.652l1.261,6.538l-5.174,1.486c0,0-0.103-5.788,3.444-10.458L808.945-732.652z"/>
			</g>
			<ellipse opacity="0.09" fill="#008DCA" cx="896.381" cy="-598.467" rx="14.629" ry="5.445"/>
			<ellipse opacity="0.09" fill="#008DCA" cx="846.416" cy="-598.467" rx="7.406" ry="2.756"/>
			<ellipse opacity="0.09" fill="#008DCA" cx="795.366" cy="-598.467" rx="23.482" ry="8.741"/>
			<g>
				<path fill="#001329" d="M808.065-600.926v1.86c0,0.763-0.617,1.379-1.379,1.379h-27.832c0,0,3.876-7.149,17.356-7.603
					C803.305-603.928,808.065-600.926,808.065-600.926z"/>
				<path fill="#00285C" d="M827.219-665.503l-45.115,9.687l18.772,52.387l7.189,2.504c0,0,0.656-34.01-9.769-43.423l45.338,3.632"
					/>
			</g>
			<path fill="#002D71" d="M827.219-665.503l15.313,67.816l53.628-13.812l-0.736-4.613c0,0-33.623-3.384-41.401,4.908l8.844-41.102
				c0,0,1.853-9.653,0-13.198C862.866-665.503,848.145-659.475,827.219-665.503z"/>
			<path fill="#001329" d="M895.424-616.111h6.256v18.425h-12.23c0,0,1.191-4.502,6.711-5.926v-7.886L895.424-616.111z"/>
			<g>
				<path fill="#005FE3" d="M831.177-731.067c-2.63-3.244-11.205-4.327-13.388,9.42c-2.75,17.306-6.087,39.22-35.367,50.55
					l0.816,6.873c0,0,37.944-2.366,48.919-43.727C833.535-713.15,836.355-724.686,831.177-731.067z"/>
				
					<rect x="781.746" y="-671.834" transform="matrix(-0.9817 0.1903 -0.1903 -0.9817 1426.0593 -1472.9417)" fill="#00C7FF" width="3.978" height="7.637"/>
				<path fill="#FFD5B6" d="M770.894-660.64c2.181,0.536,7.943,0.16,7.943,0.16l3.876-3.614l-1.043-7.41l-3.678-1.659l-5.893-1.376
					l-3.522,1.562l7.057,4.753l-0.043,4l-3.707,1.489l-4.457,1.309L770.894-660.64z"/>
			</g>
		</g>
		<g>
			<path fill="#00225E" d="M777.541-1100.905l39.34,68.021l-7.49,1.098c0,0-17.998-10.43-28.969-37.821"/>
			<polyline fill="#00225E" points="772.841,-1077.161 713.568,-1073.501 760.143,-1094.613 777.696,-1093.605 			"/>
			<path fill="#002D71" d="M673.902-1114.551l50.609,7.114l53.029,6.532l10.781,78.69l-8.502-0.193c0,0-24.19-45.975-11.301-64.891
				l-54.951,13.797c0,0-23.967,0.852-32.364-10.262C669.455-1099.315,673.902-1114.551,673.902-1114.551z"/>
			<path fill="#002663" d="M673.902-1114.554l44.654,6.279l0,0c1.333,0.186-45.003,6.545-45.061,6.548
				C672.496-1109.001,673.902-1114.554,673.902-1114.554z"/>
			<polygon fill="#001329" points="779.82,-1022.408 779.627,-1013.998 809.587,-1013.316 788.668,-1022.207 			"/>
			<polygon fill="#001329" points="809.391,-1031.785 813.193,-1024.28 839.925,-1037.826 817.287,-1035.786 			"/>
			<g>
				<path fill="#FFD5B6" d="M712.984-1190.506c0,0-11.232-2.602-25.035,6.56c0,0,26,37.886,79.607,43.594l2.385-7.081
					C769.941-1147.434,722.71-1162.361,712.984-1190.506z"/>
				<path fill="#DEE7FF" d="M695.753-1172.824l18.196-17.682l-23.563,11.426C692.08-1176.933,693.259-1175.354,695.753-1172.824z"/>
				<path fill="#FFD5B6" d="M768.422-1146.985c0,0,3.765-2.318,5.316-2.619c0,0,7.573-2.672,8.776-3.008
					c0,0,1.378,1.306-0.491,2.635c-1.868,1.329-4.116,2.98-4.116,2.98s2.995,0.015,5.209-0.391c2.216-0.406,6.612-1.09,7.804-0.343
					c1.19,0.747,0.045,1.602,0.045,1.602s-6.758,1.045-8.205,1.278c-1.268,0.208-0.834,0.667-0.834,0.667s7.863-0.572,9.295-0.481
					c1.431,0.09,2.01,0.639,1.521,1.78c0,0-6.089,0.642-6.996,0.752c-0.905,0.113-3.894-0.038-3.783,0.942
					c0,0,6.836-0.115,8.009-0.06c1.171,0.053,1.71,0.775,0.91,1.665l-9.4,0.647c0,0-0.661,0.06-0.464,0.461
					c0.176,0.356,4.131,1.386,4.61,1.459c0.476,0.075,1.96,0.424,1.514,1.519c0,0-0.208,0.351-1.602,0.042
					c-1.394-0.308-7.948-0.907-7.948-0.907s-4.457-0.401-8.674-3.051c-4.246-2.667-4.033-4.57-3.176-1.94l1.168-2.336
					L768.422-1146.985z"/>
			</g>
			<g>
				<g>
					<path fill="#FFD5B6" d="M719.594-1232.907c0,0,4.851,9.691,5.435,23.32c0,0-4.94,3.386-14.538,2.431l-1.238,12.431
						l-10.76-7.818l0.86-8.628l2.729-0.213l-1.456-3.805c0,0-3.806-0.652-4.737-4.715c-0.933-4.063,3.481-2.654,4.539-2.065
						l1.336,2.649c0,0,0.131-5.655-3.11-7.43l1.722-5.402C700.375-1232.152,708.822-1229.373,719.594-1232.907z"/>
					<path fill="#181F47" d="M702.082-1211.384l-2.729,0.213l-0.288,2.885c0,0-1.652-0.893-2.462-3.645
						c0,0-12.408-1.985-7.605-17.552c0,0-2.008-8.242,4.901-13.771c13.042-10.431,31.13,6.991,31.13,6.991s-1.483,3.81-9.558,4.725
						l1.523,1.646c0,0-6.961,2.918-14.471,0.85l-0.936,1.607c0,0,0.555,1.998,0.176,8.114l-1.336-2.649c0,0-2.414-1.594-3.955,0.123
						c-1.539,1.714,0.797,5.535,4.153,6.658L702.082-1211.384z"/>
					<path fill="#181F47" d="M695.761-1239.394l-1.354-4.242c0,0,6.796-6.502,22.024-10.676c0,0,4.008,7.721-2.481,14.917
						c-6.487,7.199-11.781,1.982-11.781,1.982"/>
					<polygon fill="#FFA28E" points="716.426,-1226.658 715.711,-1219.486 719.093,-1219.15 					"/>
					<path fill="#FFFFFF" d="M722.336-1216.801c-0.827,2.998-3.699,5.061-6.898,4.745c-3.201-0.321-5.609-2.91-5.83-6.011
						L722.336-1216.801z"/>
				</g>
				<polygon fill="#0066EF" points="723.148,-1174.687 710.801,-1161.942 708.873,-1174.083 707.891,-1183.234 712.984,-1189.569 
									"/>
				<path fill="#3FF8FF" d="M673.075-1106.63l45.481-1.645l-4.219-80.417c0,0-2.51-13.563-13.093-13.534
					c-9.593,0.03-18.7,12.441-22.377,27.614C671.686-1144.992,673.075-1106.63,673.075-1106.63z"/>
			</g>
			<polygon fill="#003BBC" points="712.307,-1198.793 712.984,-1204.067 698.791,-1205.531 707.577,-1200.771 			"/>
			<path fill="#0066EF" d="M694.406-1200.084l1.595-5.858c0,0,11.839,0.94,16.983,8.001l-0.574,4.374
				C712.41-1193.567,703.147-1199.48,694.406-1200.084z"/>
			<path fill="#18EBFF" d="M718.298-1116.16c-13.982-3.845-26.442-16.208-26.442-16.208s-3.818-37.232-3.345-46.141
				c0.481-9.017,3.101-17.647,12.526-16.303c9.678,1.381,7.855,15.072,7.855,15.072l-3.685,31.329l12.366,22.112L718.298-1116.16z"
				/>
			<path fill="#FFD5B6" d="M711.319-1180.204c0,0,0.612-13.877-9.603-14.338c-10.145-0.459-11.998,8.65-11.517,17.833
				c0.47,8.957,3.425,40.39,3.425,40.39s19.489,18.986,49.803,23.744l-1.088-7.004l-32.104-22.5L711.319-1180.204z"/>
			<path fill="#FFD5B6" d="M742.34-1119.58l10.975-2.201l9.414,3.126l2.177,11.162c0,0-2.517,0.938-3.976-5.655l-2.587-0.351
				c0,0-4.633,2.437-8.333,1.727c-3.702-0.709-7.39-0.85-7.39-0.85L742.34-1119.58z"/>
			<g>
				<path fill="#FFFFFF" d="M788.317-1133.369c-1.093,0.403-1.667,1.642-1.667,1.642l-14.341,30.085l2.396,0.882l15.517-32.547
					C790.223-1133.306,789.466-1133.792,788.317-1133.369z"/>
				
					<rect x="733.46" y="-1106.417" transform="matrix(-0.9909 -0.1346 0.1346 -0.9909 1650.3223 -2098.394)" fill="#F0F2FF" width="41.527" height="2.861"/>
			</g>
		</g>
		<g>
			<g>
				<path fill="#642DB9" d="M294.014-859.132c0,0-5.959,9.743-4.111,25.879c0,0,44.285,0.144,71.962-46.98l-7.422-6.555
					C354.442-886.788,330.37-851.479,294.014-859.132z"/>
				<path fill="#FFD5B6" d="M358.285-888.453c0,0,0.33-4.321,0.984-5.728c0,0,2.249-7.542,2.675-8.69c0,0,1.83-0.341,1.808,1.905
					c-0.025,2.248-0.768,5.019-0.768,5.019s2.497-2.402,3.449-4.393c0.955-1.99,2.948-5.87,4.225-6.387
					c1.278-0.511,1.296,0.89,1.296,0.89s-3.065,5.958-3.713,7.242c-0.566,1.128,0.048,1.048,0.048,1.048s4.078-6.567,4.976-7.65
					c0.896-1.083,1.665-1.223,2.286-0.181c0,0-3,5.199-3.434,5.981c-0.434,0.784-2.274,3.065-1.435,3.544
					c0,0,3.851-5.489,4.567-6.387s1.6-0.908,1.845,0.235l-4.903,7.831c0,0-0.333,0.557,0.096,0.632
					c0.386,0.064,3.482-2.477,3.815-2.813c0.333-0.339,1.464-1.313,2.075-0.326c0,0,0.16,0.366-0.887,1.293
					c-1.049,0.928-5.303,5.781-5.303,5.781s-2.885,3.304-7.417,5.118c-4.562,1.83-5.945,0.567-3.368,1.399l-1.182-2.271
					L358.285-888.453z"/>
				<polygon fill="#FFCC00" points="365.376,-884.217 357.844,-890.573 354.314,-886.788 361.739,-880.233 				"/>
				<path fill="#3FF8FF" d="M329.859-963.776v-8.45h-4.898c-0.411-1.614-1.045-3.139-1.878-4.532l3.465-3.464l-5.977-5.976
					l-3.464,3.464c-1.394-0.832-2.915-1.469-4.529-1.877v-4.898h-8.453v4.898c-1.614,0.409-3.136,1.045-4.531,1.877l-3.463-3.464
					l-5.979,5.976l3.465,3.464c-0.83,1.394-1.467,2.918-1.875,4.532h-4.898v8.45h4.898c0.408,1.614,1.045,3.136,1.875,4.53
					l-3.465,3.464l5.979,5.976l3.463-3.464c1.396,0.832,2.917,1.469,4.531,1.877v4.9h8.453v-4.9
					c1.614-0.409,3.136-1.045,4.529-1.877l3.464,3.464l5.977-5.976l-3.465-3.464c0.833-1.394,1.467-2.916,1.878-4.53H329.859z
					 M299.818-968.263c0.139-4.6,3.9-8.285,8.533-8.285c4.72,0,8.545,3.825,8.545,8.545c0,4.63-3.688,8.395-8.284,8.533
					C303.814-959.607,299.954-963.463,299.818-968.263z"/>
				<path opacity="0.67" fill="#FFFFFF" d="M707.891-844.02H308.352v-257.226h376.563c12.688,0,22.977,10.288,22.977,22.974V-844.02
					z"/>
				<rect x="486.477" y="-884.806" fill="#FFFAFF" width="202.824" height="2.938"/>
				<rect x="486.477" y="-874.074" fill="#FFFAFF" width="202.824" height="2.938"/>
				<rect x="486.477" y="-863.341" fill="#FFFAFF" width="202.824" height="2.938"/>
				<path fill="#00F8FF" d="M457.532-941.078v-16.038h-9.298c-0.776-3.063-1.982-5.951-3.562-8.598l6.572-6.575l-11.34-11.343
					l-6.573,6.578c-2.646-1.579-5.534-2.788-8.6-3.564v-9.295h-16.038v9.295c-3.065,0.777-5.951,1.985-8.598,3.564l-6.573-6.578
					l-11.342,11.343l6.574,6.575c-1.579,2.647-2.785,5.535-3.562,8.598h-9.298v16.038h9.298c0.776,3.063,1.982,5.951,3.562,8.598
					l-6.574,6.572l11.342,11.343l6.573-6.575c2.646,1.579,5.532,2.787,8.598,3.564v9.294h16.038v-9.294
					c3.065-0.777,5.953-1.985,8.6-3.564l6.573,6.575l11.34-11.343l-6.572-6.572c1.579-2.647,2.785-5.535,3.562-8.598H457.532z
					 M400.522-949.591c0.263-8.729,7.402-15.725,16.19-15.725c8.959,0,16.219,7.262,16.219,16.218
					c0,8.789-6.996,15.928-15.723,16.191C408.103-933.167,400.783-940.486,400.522-949.591z"/>
				<path opacity="0.69" fill="#0070FF" d="M677.646-892.674H426.625c-5.475,0-9.912-4.438-9.912-9.912v-119.278
					c0-5.475,4.438-9.912,9.912-9.912h251.021c5.475,0,9.912,4.437,9.912,9.912v119.278
					C687.559-897.111,683.121-892.674,677.646-892.674z"/>
				<path opacity="0.21" fill="#0070FF" d="M667.352-941.569l-109.146-37.169l109.146-37.169c1.627-0.554,2.5-2.324,1.943-3.951
					c-0.555-1.624-2.321-2.499-3.948-1.942L548.55-982.027l-116.794-39.773c-1.624-0.557-3.396,0.318-3.95,1.942
					c-0.557,1.627,0.315,3.396,1.942,3.951l109.148,37.169l-109.148,37.169c-1.627,0.551-2.499,2.321-1.942,3.948
					c0.44,1.296,1.651,2.11,2.947,2.11c0.331,0,0.672-0.053,1.003-0.168L548.55-975.45l116.797,39.771
					c0.331,0.115,0.672,0.168,1.003,0.168c1.296,0,2.504-0.814,2.945-2.11C669.852-939.248,668.979-941.018,667.352-941.569z"/>
				<path opacity="0.69" fill="#0070FF" d="M534.017-858.789H355.598c-5.475,0-9.912-4.437-9.912-9.911v-81.988
					c0-5.475,4.438-9.912,9.912-9.912h178.416c5.475,0,9.912,4.437,9.912,9.912v81.988
					C543.926-863.226,539.488-858.789,534.017-858.789z"/>
				<path fill="#FF2E20" d="M596.102-1120.82h-46.519v24.733h58.624v-12.628C608.207-1115.401,602.787-1120.82,596.102-1120.82z"/>
				<path fill="#5421A0" d="M707.891-1072.218H308.352v-29.027h381.496c9.964,0,18.043,8.077,18.043,18.041V-1072.218z"/>
				<g>
					<circle fill="#2E187F" cx="320.561" cy="-1086.732" r="6.063"/>
					<circle fill="#00A1FF" cx="320.562" cy="-1086.732" r="4.063"/>
				</g>
				<g>
					<circle fill="#2E187F" cx="337.641" cy="-1086.732" r="6.063"/>
					<circle fill="#3FF8FF" cx="337.641" cy="-1086.732" r="4.062"/>
				</g>
				<g>
					<circle fill="#2E187F" cx="354.719" cy="-1086.732" r="6.063"/>
					<circle fill="#FFFFFF" cx="354.719" cy="-1086.732" r="4.062"/>
				</g>
				<path fill="#CD6DFF" d="M543.361-1125.981h-46.517v24.736h58.624v-12.628C555.469-1120.562,550.047-1125.981,543.361-1125.981z"
					/>
				<path fill="#3FF8FF" d="M493.098-1130.644h-57.576v29.398h69.681v-17.293C505.202-1125.225,499.782-1130.644,493.098-1130.644z"
					/>
				<path fill="#00A1FF" d="M432.285-1135.81H319.968c-6.415,0-11.616,5.201-11.616,11.613v22.951h143.242v-15.256
					C451.594-1127.165,442.948-1135.81,432.285-1135.81z"/>
				<rect x="416.713" y="-1050.094" fill="#22316B" width="169.846" height="5.247"/>
				<rect x="416.713" y="-1064.367" fill="#22316B" width="67.769" height="5.247"/>
				<rect x="512.256" y="-1064.367" fill="#22316B" width="11.771" height="5.247"/>
				<rect x="542.664" y="-1064.367" fill="#22316B" width="11.774" height="5.247"/>
				<rect x="573.073" y="-1064.367" fill="#22316B" width="11.773" height="5.247"/>
				<rect x="603.481" y="-1064.367" fill="#22316B" width="11.774" height="5.247"/>
				<rect x="633.891" y="-1064.367" fill="#22316B" width="11.776" height="5.247"/>
				<rect x="664.302" y="-1064.367" fill="#22316B" width="11.773" height="5.247"/>
				<rect x="590.379" y="-917.776" fill="#3FF8FF" width="84.714" height="4.572"/>
				<rect x="590.379" y="-907.904" fill="#3FF8FF" width="84.714" height="4.572"/>
			</g>
			<path fill="#0090FF" d="M395.459-1008.097v-15.512h-8.991c-0.752-2.963-1.918-5.755-3.444-8.317l6.357-6.356l-10.97-10.97
				l-6.357,6.357c-2.562-1.526-5.354-2.692-8.319-3.444v-8.994h-15.512v8.994c-2.965,0.752-5.758,1.917-8.316,3.444l-6.36-6.357
				l-10.969,10.97l6.359,6.356c-1.529,2.562-2.694,5.354-3.446,8.317h-8.992v15.512h8.992c0.752,2.965,1.917,5.758,3.446,8.319
				l-6.359,6.359l10.969,10.97l6.36-6.36c2.559,1.527,5.352,2.692,8.316,3.444v8.992h15.512v-8.992
				c2.965-0.752,5.758-1.917,8.319-3.444l6.357,6.36l10.97-10.97l-6.357-6.359c1.526-2.562,2.692-5.354,3.444-8.319H395.459z
				 M340.316-1016.332c0.256-8.44,7.162-15.208,15.662-15.208c8.663,0,15.688,7.024,15.688,15.687
				c0,8.502-6.769,15.406-15.209,15.662C347.648-1000.441,340.567-1007.523,340.316-1016.332z"/>
			<path fill="#CD6DFF" d="M360.549-951.997v-5.693h-3.299c-0.276-1.088-0.705-2.113-1.264-3.051l2.331-2.331l-4.023-4.026
				l-2.333,2.332c-0.94-0.559-1.963-0.988-3.051-1.264v-3.299h-5.693v3.299c-1.088,0.276-2.11,0.705-3.051,1.264l-2.333-2.332
				l-4.023,4.026l2.331,2.331c-0.559,0.938-0.987,1.963-1.264,3.051h-3.299v5.693h3.299c0.276,1.088,0.705,2.11,1.264,3.05
				l-2.331,2.334l4.023,4.023l2.333-2.333c0.94,0.562,1.963,0.988,3.051,1.263v3.302h5.693v-3.302
				c1.088-0.275,2.11-0.702,3.051-1.263l2.333,2.333l4.023-4.023l-2.331-2.334c0.559-0.94,0.987-1.962,1.264-3.05H360.549z
				 M340.316-955.021c0.096-3.096,2.627-5.58,5.746-5.58c3.178,0,5.755,2.577,5.755,5.755c0,3.118-2.481,5.655-5.58,5.745
				C343.007-949.19,340.41-951.787,340.316-955.021z"/>
		</g>
		<g>
			<g>
				<g>
					<g>
						<path fill="#FFD5B6" d="M299.706-896.193c0,0,5.673,8.979,7.563,22.219c0,0-4.489,3.781-13.947,3.781v12.247l-11.253-6.583
							v-8.502l2.645-0.472l-1.792-3.569c0,0-3.772-0.266-5.078-4.141c-1.304-3.871,3.138-2.928,4.226-2.455l1.563,2.455
							c0,0-0.422-5.525-3.756-6.943l1.156-5.439C281.031-893.596,289.541-891.703,299.706-896.193z"/>
						<path fill="#18285F" d="M269.373-892.183c0,0-2.184-6.399,3.975-10.368c1.023,5.093,5.836,7.761,9.578,11.358l-2.725,0.619
							c0,0,3.204,3.358,3.43,9.36l-1.563-2.455c0,0-2.506-1.32-3.845,0.504c-1.336,1.82,1.315,5.322,4.697,6.092l1.792,3.569
							l-2.645,0.474v2.843c0,0-1.696-0.71-2.754-3.316C279.314-873.503,266.201-876.531,269.373-892.183z"/>
						<path fill="#18285F" d="M276.795-893.792c0,0,24.741,6.567,26.658-8.758l-2.19,1.231c0,0,2.326-4.104,0.546-9.167
							l-1.256,2.206c0,0-13.658-7.545-27.205,5.73l-1.095,3.421L276.795-893.792z"/>
						<polygon fill="#FFA28E" points="297.222,-889.791 297.222,-882.728 300.553,-882.728 						"/>
						<path fill="#FFFFFF" d="M304.674-882.728c0.6,2.988-1.002,6.063-3.942,7.199c-2.94,1.134-6.194-0.067-7.756-2.687
							L304.674-882.728z"/>
					</g>
					<path opacity="0.09" fill="#008DCA" d="M244.381-644.803c0,9.791,19.171,17.725,42.824,17.725
						c23.648,0,42.822-7.934,42.822-17.725c0-9.785-19.174-17.723-42.822-17.723C263.552-662.525,244.381-654.588,244.381-644.803z"
						/>
					<polygon fill="#001329" points="302.973,-648.818 302.973,-643.785 323.857,-643.785 309.7,-648.818 					"/>
					<polygon fill="#001329" points="253.1,-648.818 253.1,-643.785 265.723,-638.007 271.393,-638.007 260.81,-648.818 					"/>
					<path fill="#002D71" d="M305.098-772.41l4.603,123.592h-6.728c0,0-11.215-31.398-9.421-62.346l-7.625-46.645l-25.117,108.99
						h-7.623c0,0-6.63-40.242,2.69-64.587l3.589-69.97L305.098-772.41z"/>
					<polygon fill="#001D4F" points="285.927,-757.809 294.527,-774.947 293.552,-711.164 					"/>
					<polygon fill="#001D4F" points="305.098,-772.41 258.997,-763.033 259.032,-773.23 					"/>
					<path fill="#CD6DFF" d="M258.195-773.23l46.902,0.82c0,0,0.627-37.405-6.227-80.145c-0.732-4.557-3.768-12.986-14.085-11.93
						c-9.357,0.958-15.126,11.957-19.099,26.737C259.296-813.964,258.195-773.23,258.195-773.23z"/>
				</g>
				<path fill="#FBFFFF" d="M280.201-863.058l0.985-5.873c0,0,9.62,0.822,14.759,7.473l0.51,2.8
					C296.455-858.658,286.909-861.992,280.201-863.058z"/>
				<g>
					<path fill="#7F43D6" d="M297.102-851.143c0,0-6.089-6.804-11.109-5.896c-9.799,1.775-10.443,12.436-5.791,18.524
						c0.572,0.747,1.457,1.69,2.582,2.782c19.763,19.121,50.102,22.094,73.654,7.901c5.457-3.284,11.346-6.988,17.569-11.12
						l-6.257-7.713l-12.879,4.979C335.323-834.128,313.22-837.747,297.102-851.143L297.102-851.143z"/>
					<polygon fill="#CD6DFF" points="377.995,-841.943 374.007,-838.951 367.555,-846.516 371.543,-849.509 					"/>
				</g>
			</g>
			<path fill="#FFD5B6" d="M377.085-852.281c0,0,6.307,0.086,9.57,0.562c0,0,6.821,0.196,8.4,0.672c0,0-0.569,2.587-3.502,3.339
				c-3.013,0.77-5.513,0.832-5.513,0.832s6.438,2.273,9.015,2.868c-1.886,1.579-3.321,2.065-3.321,2.065s-10.16,6.855-18.959-4.505
				C368.881-851.479,377.085-852.281,377.085-852.281z"/>
		</g>
		<rect x="813.494" y="-909.694" fill="#CD6DFF" width="63.207" height="63.206"/>
		<rect x="824.339" y="-898.848" fill="#EFA2FF" width="41.516" height="41.514"/>
		<rect x="838.381" y="-884.806" fill="#FFB8FF" width="13.431" height="13.429"/>
		<g>
			<path fill="#FFFFF8" d="M425.943-872.219L425.943-872.219c-6.727-3.545-9.328-11.947-5.783-18.67l21.953-41.667
				c3.545-6.723,11.947-9.325,18.67-5.781l0,0c6.726,3.542,9.327,11.944,5.785,18.67l-21.956,41.661
				C441.068-871.279,432.668-868.675,425.943-872.219z"/>
			<path fill="#003DC0" d="M523.455-924.79c9.266-17.582,4.132-38.879-11.172-50.532l0.027-0.038l-74.058-64.512l-28.919,54.881
				l-28.923,54.881l94.339,24.425C493.189-899.207,514.073-906.982,523.455-924.79z"/>
			<path fill="#FFD222" d="M434.909-971.452c-18.688,35.459-45.296,58.165-59.437,50.715c-14.137-7.452-10.452-42.235,8.232-77.695
				c18.688-35.459,45.299-58.165,59.436-50.715C457.279-1041.697,453.594-1006.911,434.909-971.452z"/>
			
				<ellipse transform="matrix(0.8847 0.4662 -0.4662 0.8847 -414.5744 -301.5339)" fill="#F68E00" cx="402.172" cy="-988.703" rx="17.156" ry="53.703"/>
			<path fill="#FF2E20" d="M399.322-1011.441c-8.676-2.868-18.396,0.842-22.799,9.192c-4.457,8.458-1.895,18.728,5.593,24.212
				l21.61,18.825c4.67-6.082,9.347-13.375,13.623-21.493c4.299-8.151,7.684-16.17,10.06-23.487l-28.08-7.27L399.322-1011.441z"/>
			<g>
				<path fill="#FFD222" d="M435.802-1056.88L435.802-1056.88c-3.407,0-6.194-2.787-6.194-6.194v-31.98
					c0-3.404,2.787-6.191,6.194-6.191l0,0c3.404,0,6.191,2.788,6.191,6.191v31.98C441.993-1059.667,439.206-1056.88,435.802-1056.88
					z"/>
				<path fill="#FFD222" d="M454.504-1053.009L454.504-1053.009c-2.95-1.702-3.971-5.512-2.266-8.46l12.826-21.387
					c1.705-2.948,5.51-3.971,8.461-2.266l0,0c2.949,1.705,3.97,5.51,2.266,8.46l-12.827,21.385
					C461.262-1052.325,457.454-1051.307,454.504-1053.009z"/>
				<path fill="#FFD222" d="M415.676-1053.009L415.676-1053.009c2.95-1.702,3.971-5.512,2.269-8.46l-11.968-20.906
					c-1.701-2.951-5.51-3.971-8.459-2.266l0,0c-2.951,1.705-3.971,5.51-2.267,8.46l11.964,20.903
					C408.92-1052.325,412.725-1051.307,415.676-1053.009z"/>
			</g>
		</g>
		<g>
			<g>
				<g>
					<path fill="#CD6DFF" d="M468.416-789.368l-44.904,44.902l58.549-24.638C478.703-776.652,474.066-783.498,468.416-789.368z"/>
					<path fill="#FF2E20" d="M422.158-826.189v76.527l54.111-54.115C462.18-817.336,443.161-825.791,422.158-826.189z"/>
					<path fill="#00A1FF" d="M417.641-737.713h-0.002c-0.158,0-0.313-0.037-0.462-0.088c-0.018-0.01-0.04-0.01-0.06-0.018
						c-0.028-0.012-0.051-0.035-0.08-0.05c-0.104-0.053-0.198-0.115-0.286-0.193c-0.035-0.03-0.07-0.055-0.103-0.09
						c-0.104-0.11-0.193-0.235-0.256-0.382c-0.003-0.004-0.008-0.01-0.008-0.015c0,0,0,0-0.002,0c0,0,0-0.005,0-0.007
						c-0.07-0.166-0.105-0.344-0.105-0.52l0,0c0,0,0-0.002,0-0.005v-70.442c-38.295,0.729-69.12,31.978-69.12,70.447
						c0,38.924,31.555,70.48,70.481,70.48c38.467,0,69.718-30.824,70.445-69.119H417.641z"/>
					<path fill="#FFE622" d="M503.151-769.607l-58.731,24.715h63.699C507.954-753.613,506.207-761.939,503.151-769.607z"/>
				</g>
				<g>
					<g>
						<path fill="#00D7FF" d="M486.577-805.832c-0.409,0-0.817-0.17-1.108-0.506c-27.633-31.532-69.455-27.755-69.876-27.725
							c-0.777,0.098-1.532-0.509-1.612-1.318c-0.082-0.807,0.51-1.531,1.316-1.611c0.438-0.049,43.739-3.984,72.389,28.713
							c0.536,0.612,0.476,1.545-0.139,2.081C487.27-805.955,486.923-805.832,486.577-805.832z"/>
					</g>
					<g>
						<path fill="#00D7FF" d="M415.53-830.367c-0.8,0-1.452-0.637-1.472-1.441l-0.195-8.471c-0.018-0.816,0.624-1.488,1.438-1.509
							c0.84,0.024,1.486,0.626,1.507,1.438l0.195,8.473c0.018,0.813-0.624,1.486-1.438,1.51
							C415.555-830.367,415.543-830.367,415.53-830.367z"/>
					</g>
					<g>
						<path fill="#00D7FF" d="M483.83-802.738c-0.416,0-0.827-0.174-1.118-0.512c-0.529-0.617-0.462-1.547,0.155-2.081l6.287-5.419
							c0.609-0.524,1.549-0.464,2.078,0.155c0.528,0.616,0.461,1.546-0.156,2.081l-6.286,5.419
							C484.514-802.859,484.171-802.738,483.83-802.738z"/>
					</g>
				</g>
			</g>
		</g>
		<g>
			<g>
				<path fill="#00285C" d="M534.914-667.388l-55.627-2.446l-16.047,90.098l7.176,0.17c0,0,20.102-39.337,15.955-60.1l12.386-8.836
					L534.914-667.388z"/>
				<g>
					<path fill="#002D71" d="M565.977-646.683c0,0-8.393,16.597-39.861,13.056c-31.467-3.54-51.247-8.523-51.247-8.523
						s1.108,20.35-44.995,61.625l-6.785-0.161l41.433-80.094l70.394-6.607L565.977-646.683z"/>
					<path fill="#003373" d="M559.545-639.955c-8.253-8.969-24.631-27.433-24.631-27.433l31.063,20.705
						C565.977-646.683,564.167-643.098,559.545-639.955z"/>
					<polygon fill="#001329" points="430.066,-580.521 429.868,-572.133 405.874,-572.7 422.89,-580.691 					"/>
					<ellipse opacity="0.09" fill="#008DCA" cx="459.013" cy="-572.133" rx="15.785" ry="5.875"/>
					<ellipse opacity="0.09" fill="#008DCA" cx="418.853" cy="-572.133" rx="15.783" ry="5.875"/>
					<polygon fill="#001329" points="470.52,-579.563 470.321,-571.176 445.818,-571.758 463.34,-579.734 					"/>
				</g>
				<g>
					<path fill="#FFD222" d="M544.475-734.875c0,0-32.385,6.27-53.381-14.933l-4.765,8.478c0,0,16.256,25.693,63.261,24.919
						C549.59-716.411,553.546-725.202,544.475-734.875z"/>
					<path opacity="0.6" fill="#FFB819" d="M542.985-734.64c0.699-0.098,1.165-0.178,1.366-0.213l0.186,0.05
						c2.817,3.028,4.366,5.961,5.164,8.568l-0.695,2.055l-5.43,7.706c-0.183-0.011-0.363-0.015-0.543-0.021l-7.114-0.49
						c-0.123-0.011-0.246-0.025-0.368-0.041C542.589-724.142,543.008-732.406,542.985-734.64z"/>
					<path fill="#FFD5B6" d="M487.191-751.673l-6.498-8.087l-19.654-5.354c0,0-2.078,3.785,11.852,7.196l-2.016,3.948l2.91,6.572
						l7.794,1.504l1.424,1.908L487.191-751.673z"/>
					<polygon fill="#FFB722" points="480.235,-744.508 488.646,-753.172 493.408,-748.99 485.156,-740.094 					"/>
				</g>
				<path fill="#FFE622" d="M534.871-667.455l8.873-64.084c0,0-0.335-11.525,11.725-17.118c0,0-3.038,3.071,9.156,5.593
					c14.148,2.928,18.936,67.811,1.352,96.382L534.871-667.455z"/>
				<path opacity="0.68" fill="#FFD222" d="M536.904-682.145l3.176-22.929c4.875-7.239,7.771-15.206,10.388-22.364
					c4.9-13.401,13.476-10.117,16.717-7.32c5.353,4.62,4.54,12.218-0.36,22.912C559.502-695.869,548.028-687.022,536.904-682.145z"
					/>
				<g>
					<g>
						<path fill="#DFF2FF" d="M468.033-725.439l-13.953,25.796c-0.787,1.458,0.075,3.267,1.707,3.567l42.226,8.337
							c1.712,0.315,3.435-0.499,4.276-2.022l13.621-24.701c0.446-0.813,0-1.83-0.899-2.049l-43.461-10.49
							C470.158-727.343,468.712-726.701,468.033-725.439z"/>
						<path fill="#0049D1" d="M468.8-723.617l-12.429,23.139c-0.416,0.77,0.041,1.725,0.902,1.883l40.378,8.277
							c1.139,0.205,2.281-0.336,2.841-1.35l12.293-22.284c0.237-0.437,0-0.978-0.482-1.098l-40.475-9.911
							C470.63-725.258,469.387-724.703,468.8-723.617z"/>
						<path fill="#FF2E20" d="M505.362-711.887l-10.175,17.822c0,0-16.933-5.361-16.469-8.028
							c0.464-2.665,13.599,0.864,15.384-0.784c1.787-1.65-15.241-5.991-13.762-9.608
							C481.261-714.739,489.074-716.689,505.362-711.887z"/>
					</g>
					<path fill="#FFD5B6" d="M486.406-685.992c0,0-11.954,0.627-18.559-7.961l12.518-0.083l-7.086-2.264
						c0,0,1.002-2.462,5.449-1.171l4.347,1.219c0,0,3.88-0.489,5.603,2.8L486.406-685.992z"/>
					<path fill="#FFE622" d="M493.045-691.688l-1.896,7.354l-4.743-1.659c0,0-0.434-4.988,2.271-7.46L493.045-691.688z"/>
					<path fill="#FFB819" d="M568.29-733.88c-2.883-3.56-12.501-6.714-18.256,7.43c-6.886,16.92-18.31,34.708-56.989,34.763
						l-1.896,7.354c0,0,44.486,17.437,72.434-25.487C570.451-720.369,573.058-728.004,568.29-733.88z"/>
				</g>
				<g>
					<path fill="#181F47" d="M561.066-783.543c-2.692-7.139-13.657-7.347-21.911-4.08c-0.025,1.659,3.088,4.807,2.549,6.412
						c-0.431,2.757-1.521,5.259-3.276,7.504c-0.576,0.863-1.232,1.63-1.93,2.347l11.733,11.81l8.007,4.695l4.462-3.484
						C571.952-773.736,561.066-783.543,561.066-783.543z"/>
					<circle fill="#181F47" cx="539.175" cy="-779.647" r="10.526"/>
					<path fill="#FFA28E" d="M536.037-768.533c0,0-2.793,3.47-2.211,11.01l6.643-1.067L536.037-768.533z"/>
					<polyline fill="#FFFFFF" points="536.791,-755.789 538.16,-751.945 543.657,-753.658 543.737,-756.906 543.088,-758.436 					
						"/>
					<path fill="#FFD5B6" d="M556.757-760.765c0,0-2.651,1.71-4.054-2.401c0,0,5.009-1.902,3.525-5.537
						c-1.234-3.018-5.009-1.328-5.828,1.574l0.578,3.6c0,0-1.396-0.604-2.865-7.455l-2.403-2.68l-9.302,2.217
						c0,0-1.908,7.379,0.383,15.658l5.558-0.893c0,0-0.459,3.305-4.188,4.736c0.621,1.557,0.982,2.186,1.984,3.709l8.175-1.315
						l0.96,5.971l5.031,1.368l4.249,0.633l3.188-2.129l0.566-4.595L560.7-758.34C560.7-758.34,558.814-758.14,556.757-760.765z"/>
					<path fill="#FFBB00" d="M548.894-745.987l-3.216,6.898c0,0,13.346,0.637,18.947-3.976l-2.311-5.239
						C562.314-748.304,555.18-745.015,548.894-745.987z"/>
				</g>
			</g>
		</g>
		<g>
			<g>
				<g>
					<path fill="#BBEAFF" d="M934.372-661.102l-3.896,2.316c-3.371-3.123-10.545-5.279-18.855-5.279
						c-8.307,0-15.483,2.156-18.853,5.279l-3.897-2.186l1.99,12.566l0.005,0.002c1.208,4.623,10.036,8.217,20.755,8.217
						s19.548-3.592,20.756-8.217l0.01-0.002L934.372-661.102z"/>
					<path fill="#C8F1FF" d="M894.223-652.127v4.878c0,0,3.233,3.048,11.122,3.494v-4.878
						C905.345-648.633,898.89-649.104,894.223-652.127z"/>
					<path fill="#C8F1FF" d="M925.396-650.537l-0.429,5.363c3.008-1.127,4.59-2.768,4.59-2.768l0.682-5.09
						C928.707-651.901,927.005-651.117,925.396-650.537z"/>
					<ellipse fill="#DAFAFF" cx="911.622" cy="-661.102" rx="22.75" ry="10.123"/>
					<ellipse fill="#ADDFFF" cx="911.621" cy="-662.131" rx="19.201" ry="8.545"/>
				</g>
			</g>
			<path fill="#00FBED" d="M896.376-684.365c0,0-12.739-32.404-7.505-38.887c5.236-6.482,16.256,29.81,16.256,29.81
				s-2.269-29.413,3.24-30.584c5.51-1.171,7.132,14.065,7.132,14.065s5.51-14.645,10.047-14.128c4.54,0.517-2.269,24.5-2.269,24.5
				s3.424-7.524,7.545-8.462c4.124-0.938-6.572,36.825-6.572,36.825l-13.117-1.832"/>
			<path fill="#ED2C51" d="M896.33-661.102c0,0-9.78-5.163-8.858-10.124c0.923-4.96,10.017,1.718,10.017,1.718
				s-17.096-22.852,7.565-36.447c22.255-12.273,17.838,33.373,17.838,33.373s5.023-6.214,10.117-4.873
				c6.569,1.73-6.081,16.354-6.081,16.354S916.249-660.148,896.33-661.102z"/>
			<path fill="#C71E44" d="M901.299-658.229c0,0-8.852-5.364-6.332-8.322c2.521-2.957,7.601,2.486,7.601,2.486
				s-8.142-19.853-2.354-24.916c5.79-5.066,11.407,17.755,11.407,17.755s0.171-15.042,5.417-15.224
				c5.247-0.18,1.63,20.986,1.63,20.986s4.161-14.293,7.778-13.932c3.617,0.363-3.076,16.824-3.076,16.824s1.817-3.188,4.148-2.712
				c2.331,0.477-3.063,7.054-3.063,7.054S915.141-654.122,901.299-658.229z"/>
		</g>
		<g>
			<g>
				<ellipse opacity="0.09" fill="#008DCA" cx="347.036" cy="-591.793" rx="24.862" ry="11.064"/>
				<path fill="#BBEAFF" d="M371.648-622.127l-4.006,0.942c-3.683-3.417-11.526-5.775-20.607-5.775
					c-9.08,0-16.921,2.358-20.605,5.772l-4-0.939l1.917,29.4h0.005c1.321,5.057,10.97,8.982,22.684,8.982
					c11.716,0,21.364-3.926,22.686-8.979l0.01-0.003L371.648-622.127z"/>
				<path fill="#C8F1FF" d="M330.721-596.844v4.875c0,0,3.977,2.163,11.123,2.113v-4.879
					C341.844-594.734,335.938-594.332,330.721-596.844z"/>
				<ellipse fill="#DAFAFF" cx="347.036" cy="-623.721" rx="24.862" ry="11.064"/>
				<path fill="#ADDFFF" d="M366.451-624.844c0,4.772-8.693,8.638-19.416,8.638c-10.722,0-19.415-3.865-19.415-8.638
					c0-4.773,8.693-8.639,19.415-8.639C357.758-633.482,366.451-629.617,366.451-624.844z"/>
			</g>
			<g>
				<g>
					<path fill="#FFCC00" d="M346.152-622.495l-45.11-41.405c0,0-0.381,9.267,5.74,14.18c6.121,4.916,11.06,3.184,11.819,10.887
						c0.762,7.703,5.948,12.105,10.506,12.776C338.419-624.688,340.58-619.715,346.152-622.495z"/>
					<path fill="#FFBD00" d="M346.154-622.495l-45.112-41.408c0,0,9.202-1.171,14.622,4.507c5.419,5.68,4.115,10.749,11.856,10.847
						c7.74,0.098,12.568,4.891,13.626,9.375C343.308-630.016,348.446-628.288,346.154-622.495z"/>
				</g>
				<path fill="#00FBED" d="M347.035-621.889v-155.407c0,0-17.983,15.192-16.668,35.068c1.316,19.878,13.03,26.143-0.067,40.784
					c-13.097,14.645-12.425,31.893-5.855,41.566C337.86-640.117,332.273-627.541,347.035-621.889z"/>
				<path fill="#00EEEE" d="M347.037-621.889v-155.407c0,0,17.983,15.192,16.667,35.068c-1.318,19.878-13.029,26.143,0.067,40.784
					c13.098,14.645,12.426,31.893,5.855,41.566C356.209-640.117,361.797-627.541,347.037-621.889z"/>
			</g>
			<g>
				<path fill="#ED2C51" d="M353.432-621.666l32.182-96.809c0,0-14.349,5.738-17.646,18.395c-3.296,12.654,2.705,18.98-8.487,25.393
					c-11.189,6.407-14.344,17.291-12.255,24.679C351.494-634.921,345.408-628.243,353.432-621.666z"/>
				<path fill="#C71E44" d="M353.435-621.666l32.179-96.809c0,0,8.056,13.186,3.12,25.298c-4.936,12.107-13.528,13.587-8.399,25.418
					c5.126,11.834,1.135,22.44-4.961,27.107C362.925-631.121,363.8-622.129,353.435-621.666z"/>
			</g>
		</g>
		<g>
			<path fill="#FAC83D" d="M913.416-798.348H798.728c-2.815,0-5.096-2.281-5.096-5.094v-59.623c0-2.813,2.28-5.097,5.096-5.097
				h114.688c2.815,0,5.099,2.284,5.099,5.097v59.623C918.515-800.629,916.231-798.348,913.416-798.348z"/>
			<path fill="#FBB03D" d="M795.958-799.969l54.729-42.08c3.188-2.449,7.612-2.486,10.841-0.09l55.539,41.209
				c-1.191,1.535-2.969,2.582-5.062,2.582H800.139C798.524-798.348,797.096-798.994,795.958-799.969z"/>
			<path opacity="0.39" fill="#FBB03D" d="M795.968-866.408l54.962,45.41c3.201,2.643,7.628,2.683,10.842,0.101l55.307-44.474
				c-1.197-1.654-2.98-2.787-5.073-2.787H800.139C798.524-868.158,797.099-867.461,795.968-866.408z"/>
			<path fill="#FAD93D" d="M795.958-866.537l54.729,42.08c3.188,2.449,7.612,2.486,10.841,0.09l55.539-41.209
				c-1.191-1.535-2.969-2.582-5.062-2.582H800.139C798.524-868.158,797.096-867.512,795.958-866.537z"/>
			<circle fill="#FF2E20" cx="917.065" cy="-868.161" r="20.27"/>
			<circle fill="#C82521" cx="917.064" cy="-868.161" r="15.026"/>
			
				<text transform="matrix(0.9091 0 0 1 908.8838 -857.334)" fill="#FFFFF8" font-family="'Quicksand-Bold'" font-size="29.8608" letter-spacing="12.1">3</text>
		</g>
	</g>
	<path fill="#0066EF" d="M712.445-1178.677c0,0,0.677-15.354-10.624-15.862c-11.222-0.509-13.272,9.571-12.739,19.728
		c0.131,2.482,0.432,6.525,0.813,11.19l22.162-1.406L712.445-1178.677z"/>
</g>
<image overflow="visible" width="300" height="104" xlink:href="4BE47DAB.jpg"  transform="matrix(1 0 0 1 1881 -169)">
</image>
<linearGradient id="SVGID_3_" gradientUnits="userSpaceOnUse" x1="4951.5566" y1="1031.4336" x2="6124.0615" y2="1212.0389" gradientTransform="matrix(0.9359 -0.3522 0.3522 0.9359 -1764.9556 1283.1473)">
	<stop  offset="0" style="stop-color:#F37621"/>
	<stop  offset="0.063" style="stop-color:#EF6F21"/>
	<stop  offset="0.469" style="stop-color:#D54A23"/>
	<stop  offset="0.7955" style="stop-color:#C53325"/>
	<stop  offset="1" style="stop-color:#BF2A25"/>
</linearGradient>
<path fill="url(#SVGID_3_)" d="M4309.216-490.258l-224.116-5.985l-442.398,104.912l-194.868,73.34L3107.562-61.146
	c0,0-45.845,190.799,260.862,312.761c96.696,38.455,190.277,59.867,263.801,86.885c142.376,52.317,192.713,106.683,202.59,173.614
	c23.908,162.019-242.316,313.725-448.585,353.039c-99.094,65.75-5.853,197.988-5.853,197.988l322.302-97.493
	c-16.56,29.316-31.105,56.819-40.678,82.474c141.432,299.513,571.248,5.388,571.248,5.388l386.221-284.968l84.206-134.348
	l0.981-193.777L4556.277-8.379l-109.315-290.452L4309.216-490.258z"/>
<linearGradient id="SVGID_4_" gradientUnits="userSpaceOnUse" x1="1874.1191" y1="-747.7729" x2="2848.6975" y2="-952.541" gradientTransform="matrix(2.7078 0.7208 -0.3819 1.4348 -4153.6934 -1754.0844)">
	<stop  offset="0" style="stop-color:#F37621"/>
	<stop  offset="0.063" style="stop-color:#EF6F21"/>
	<stop  offset="0.469" style="stop-color:#D54A23"/>
	<stop  offset="0.7955" style="stop-color:#C53325"/>
	<stop  offset="1" style="stop-color:#BF2A25"/>
</linearGradient>
<polygon opacity="0.3" fill="url(#SVGID_4_)" points="3948.179,52.79 1262.026,-662.265 1753.971,-2510.287 4440.125,-1795.232 "/>
<g>
	<g>
		<g opacity="0.335">
			<image overflow="visible" width="2065" height="1348" xlink:href="4BE47DA9.png"  transform="matrix(1 0 0 1 -28 -50)">
			</image>
		</g>
		<linearGradient id="SVGID_5_" gradientUnits="userSpaceOnUse" x1="32.4761" y1="1162.7432" x2="1945.9656" y2="-6.7369">
			<stop  offset="0" style="stop-color:#EC008C"/>
			<stop  offset="0.601" style="stop-color:#F15A29"/>
			<stop  offset="0.6578" style="stop-color:#F36B2E"/>
			<stop  offset="0.8008" style="stop-color:#F79038"/>
			<stop  offset="0.9161" style="stop-color:#FAA83E"/>
			<stop  offset="0.9885" style="stop-color:#FBB040"/>
		</linearGradient>
		<rect x="-26.053" y="-47.998" fill="url(#SVGID_5_)" width="1992.317" height="1275.367"/>
		<linearGradient id="SVGID_6_" gradientUnits="userSpaceOnUse" x1="-274.6235" y1="475.0664" x2="435.7613" y2="251.6171">
			<stop  offset="0" style="stop-color:#EC008C"/>
			<stop  offset="0.601" style="stop-color:#F15A29"/>
			<stop  offset="0.9885" style="stop-color:#FBB040"/>
		</linearGradient>
		<path opacity="0.25" fill="url(#SVGID_6_)" d="M-26.053,435.416c14.175,1.071,28.32,2.548,42.407,4.682
			c79.573,12.036,157.508,45.164,223.95,95.181c43.373,32.656,82.079,72.43,128.688,99.642
			c66.338,38.688,150.241,47.888,212.398,11.645c62.155-36.244,93.676-122.309,60.967-192.409
			c-27.498-59.005-89.499-94.157-127.938-147.013c-32.631-44.861-45.973-99.188-52.731-152.094
			c-6.083-47.543-0.254-86.348-34.165-127.941c-25.151-30.85-61.078-51.628-98.342-61.9c-21.97-6.041-44.961-8.875-67.369-13.205
			H-26.053V435.416z"/>
		<g>
			<linearGradient id="SVGID_7_" gradientUnits="userSpaceOnUse" x1="1963.29" y1="-213.7466" x2="1151.4587" y2="755.9877">
				<stop  offset="0" style="stop-color:#EC008C"/>
				<stop  offset="1" style="stop-color:#F15A29"/>
			</linearGradient>
			<path fill="url(#SVGID_7_)" d="M1966.251-48.013v1073.558c-160.298,71.328-363.015,40.352-492.216-79.295
				c-40.047-37.124-74.247-82.157-122.387-107.991c-105.557-56.688-255.175-9.283-341.228-92.625
				c-74.369-71.996-54.562-198.854-110.093-286.185c-24.068-37.915-56.477-70.474-91.835-98.195
				C679.508,260.232,666.452,31.498,795.5-48.013H1966.251z"/>
			<linearGradient id="SVGID_8_" gradientUnits="userSpaceOnUse" x1="1941.5938" y1="-177.2075" x2="1129.7625" y2="792.5268">
				<stop  offset="0" style="stop-color:#EC008C"/>
				<stop  offset="0.601" style="stop-color:#F15A29"/>
				<stop  offset="0.9885" style="stop-color:#FBB040"/>
			</linearGradient>
			<path opacity="0.25" fill="url(#SVGID_8_)" d="M1936.476-18.237l29.788,1065.267c-160.301,71.327-392.807,48.643-522.007-71.004
				c-40.044-37.124-74.244-82.157-122.384-107.991c-105.557-56.688-255.175-9.283-341.228-92.625
				c-74.372-71.996-54.559-198.854-110.093-286.185c-24.071-37.913-56.477-70.474-91.832-98.193
				C649.732,290.008,666.452,31.498,795.5-48.013L1936.476-18.237z"/>
		</g>
		<g>
			<text transform="matrix(1 0 0 1 -826.8965 -230.7891)"><tspan x="0" y="0" fill="#FFFFFF" font-family="'OpenSans-Light'" font-size="66.8274">We create high quality </tspan><tspan x="0" y="74.584" fill="#FFFFFF" font-family="'OpenSans-Bold'" font-size="62.1533">digital advertising</tspan></text>
			<g>
				<rect x="-817.633" y="-106.49" fill="none" width="688.021" height="122.279"/>
				<text transform="matrix(1 0 0 1 -817.6348 -86.4297)"><tspan x="0" y="0" fill="#FFFFFF" font-family="'SourceSansRoman-Regular'" font-size="28.2515">You must be able to convey information via phone, email, </tspan><tspan x="0" y="45.202" fill="#FFFFFF" font-family="'SourceSansRoman-Regular'" font-size="28.2515">and in person. You want to make sure your tone is always </tspan><tspan x="0" y="90.404" fill="#FFFFFF" font-family="'SourceSansRoman-Regular'" font-size="28.2515">professional but friendly. </tspan></text>
			</g>
			<path opacity="0.49" fill="none" stroke="#FFFFFF" stroke-width="0.6" stroke-miterlimit="10" d="M-579.257,133.274h-211.58
				c-19.915,0-36.057-16.143-36.057-36.057l0,0c0-19.914,16.143-36.057,36.057-36.057h211.58c19.915,0,36.057,16.143,36.057,36.057
				l0,0C-543.201,117.132-559.343,133.274-579.257,133.274z"/>
			
				<text transform="matrix(1 0 0 1 -761.9243 106.2129)" fill="#FFFFFF" font-family="'OpenSans-Bold'" font-size="20.0482" letter-spacing="4">READ MORE</text>
		</g>
		<rect x="95.026" y="983.494" fill="#FFFFFF" width="62.2" height="5.988"/>
		<rect x="163.406" y="983.494" opacity="0.35" fill="#FFFFFF" width="62.201" height="5.988"/>
		<rect x="231.787" y="983.494" opacity="0.35" fill="#FFFFFF" width="62.2" height="5.988"/>
	</g>
	<g>
		<g>
			<path fill="#FFFFFF" stroke="#FFFFFF" stroke-width="0.5" stroke-miterlimit="10" d="M2949.813,1016.955h-842.945
				c-8.794,0-15.989-7.197-15.989-15.992V683.31c0-8.798,7.195-15.993,15.989-15.993h842.945c8.794,0,15.992,7.195,15.992,15.993
				v317.653C2965.806,1009.758,2958.607,1016.955,2949.813,1016.955z"/>
			<g>
				<path fill="#E8F1F8" d="M2905.605,756.459h-755.821c-10.948,0-19.82-8.873-19.82-19.82l0,0c0-10.947,8.872-19.82,19.82-19.82
					h755.821c10.944,0,19.819,8.873,19.819,19.82l0,0C2925.425,747.586,2916.55,756.459,2905.605,756.459z"/>
				<path fill="#00AEEF" d="M2748.44,756.459h-598.656c-10.948,0-19.82-8.873-19.82-19.82l0,0c0-10.947,8.872-19.82,19.82-19.82
					h598.656c10.947,0,19.823,8.873,19.823,19.82l0,0C2768.264,747.586,2759.388,756.459,2748.44,756.459z"/>
				<path fill="#E8F1F8" d="M2905.605,825.512h-755.821c-10.948,0-19.82-8.873-19.82-19.821l0,0c0-10.946,8.872-19.819,19.82-19.819
					h755.821c10.944,0,19.819,8.873,19.819,19.819l0,0C2925.425,816.639,2916.55,825.512,2905.605,825.512z"/>
				<path fill="#81BC00" d="M2429.522,825.512h-279.738c-10.948,0-19.82-8.873-19.82-19.821l0,0c0-10.946,8.872-19.819,19.82-19.819
					h279.738c10.944,0,19.82,8.873,19.82,19.819l0,0C2449.343,816.639,2440.467,825.512,2429.522,825.512z"/>
				<path fill="#E8F1F8" d="M2905.605,894.564h-755.821c-10.948,0-19.82-8.873-19.82-19.821l0,0c0-10.946,8.872-19.819,19.82-19.819
					h755.821c10.944,0,19.819,8.873,19.819,19.819l0,0C2925.425,885.691,2916.55,894.564,2905.605,894.564z"/>
				<path fill="#E8F1F8" d="M2905.605,967.453h-755.821c-10.948,0-19.82-8.873-19.82-19.822l0,0c0-10.945,8.872-19.818,19.82-19.818
					h755.821c10.944,0,19.819,8.873,19.819,19.818l0,0C2925.425,958.58,2916.55,967.453,2905.605,967.453z"/>
				<path fill="#FF8931" d="M2513.918,967.453h-364.134c-10.948,0-19.82-8.873-19.82-19.822l0,0c0-10.945,8.872-19.818,19.82-19.818
					h364.134c10.947,0,19.823,8.873,19.823,19.818l0,0C2533.741,958.58,2524.865,967.453,2513.918,967.453z"/>
				<path fill="#FFBC00" d="M2222.364,894.564h-72.58c-10.948,0-19.82-8.873-19.82-19.821l0,0c0-10.946,8.872-19.819,19.82-19.819
					h72.58c10.947,0,19.819,8.873,19.819,19.819l0,0C2242.184,885.691,2233.312,894.564,2222.364,894.564z"/>
				<g>
					<circle fill="#81BC00" cx="2504.477" cy="805.69" r="19.661"/>
				</g>
				<g>
					<circle fill="#FFBC00" cx="2293.482" cy="874.743" r="19.66"/>
				</g>
				<g>
					<circle fill="#FF8931" cx="2583.12" cy="947.631" r="19.662"/>
				</g>
			</g>
		</g>
		<g>
			<g>
				<g>
					<g>
						<path opacity="0.1" fill="#7F1E00" d="M3066.5,1364.643v0.029c0,5.805-4.853,10.514-10.837,10.525l-287.729,0.572
							l-161.919,0.328c-6.001,0.014-10.886-4.695-10.898-10.512l-0.604-288.967c-0.014-5.807,4.839-10.543,10.84-10.559
							l449.648-0.898c6.001-0.014,10.883,4.693,10.898,10.516l0.029,11.256L3066.5,1364.643z"/>
						<path fill="#E8F1F8" d="M3054.276,1058.148l-447.736,0.924c-6.529,0.012-11.813,5.318-11.799,11.848l0.02,10.283
							l471.384-0.973l-0.02-10.283C3066.112,1063.416,3060.806,1058.133,3054.276,1058.148z"/>
					</g>
					<g>
						<path fill="#FFFFFF" d="M3071.646,1359.205v0.027c0,5.809-4.855,10.516-10.84,10.529l-287.729,0.57l-161.919,0.33
							c-6.001,0.014-10.883-4.695-10.898-10.516l-0.604-288.965c-0.014-5.807,4.839-10.543,10.84-10.557l449.648-0.898
							c6.001-0.016,10.883,4.693,10.898,10.514l0.029,11.256L3071.646,1359.205z"/>
						<path fill="#50A4FF" d="M3059.419,1052.711l-447.736,0.922c-6.529,0.016-11.813,5.32-11.799,11.852l0.02,10.279l471.387-0.971
							l-0.022-10.283C3071.255,1057.98,3065.948,1052.697,3059.419,1052.711z"/>
					</g>
					<circle fill="#F43434" cx="2621.93" cy="1064.472" r="3.81"/>
					<circle fill="#FFC950" cx="2638.056" cy="1064.438" r="3.81"/>
					<circle fill="#42FCEA" cx="2654.182" cy="1064.405" r="3.81"/>
				</g>
				<g>
					<rect x="2638.055" y="1345.791" fill="#D6F2FE" width="376.978" height="8.67"/>
					<rect x="2638.055" y="1345.791" fill="#BACEDB" width="199.725" height="8.67"/>
					<path fill="#C62C2C" d="M2842.98,1350.252c0,3.289-2.417,5.951-5.399,5.951c-2.986,0-5.404-2.662-5.404-5.951
						c0-3.285,2.418-5.951,5.404-5.951C2840.563,1344.301,2842.98,1346.967,2842.98,1350.252z"/>
				</g>
				<g>
					<rect x="2638.055" y="1104.576" fill="#E8F1F8" width="231.03" height="113.447"/>
					<rect x="2882.5" y="1104.576" fill="#E8F1F8" width="128.495" height="113.447"/>
					<rect x="2638.055" y="1228.609" fill="#E8F1F8" width="372.94" height="91.332"/>
				</g>
				<g>
					<circle fill="#FEB80C" cx="2755.684" cy="1166.627" r="30.02"/>
					<path fill="#FFFFFF" d="M2747.876,1158.799v15.656c0,2.045,2.326,3.221,3.975,2.006l10.627-7.828
						c1.354-0.994,1.354-3.018,0-4.016l-10.627-7.828C2750.202,1155.574,2747.876,1156.752,2747.876,1158.799z"/>
				</g>
			</g>
		</g>
	</g>
	<g>
		<path opacity="0.14" fill="#FFFFFF" d="M2461.037,1464.639c0,5.342-96.4,9.674-215.313,9.674
			c-118.913,0-215.313-4.332-215.313-9.674c0-5.346,96.399-9.676,215.313-9.676
			C2364.637,1454.963,2461.037,1459.293,2461.037,1464.639z"/>
		<g>
			<path fill="#FFE1BD" d="M2355.34,1410.016c0,0-1.129,13.123-4.376,22.848c-3.36,6.404-2.728,8.791-2.728,8.791l26.438,5.826
				c0,0-9.643-9.139-0.567-35.453C2383.181,1385.711,2355.34,1410.016,2355.34,1410.016z"/>
			<path fill="#183F5B" d="M2371.721,1441.285c0,0,29.991,11.744,35.176,12.664c5.182,0.92,8.862,3.07,7.884,5.57
				c-0.979,2.498-22.375,8.029-33.609,7.143c-11.235-0.889-18.984-7.826-21.338-7.816c-2.355,0.01-14.628,3.498-20.906-0.289
				c-6.278-3.789,8.896-24.189,8.896-24.189S2364.444,1446.727,2371.721,1441.285z"/>
			<path fill="#FFFFFF" d="M2251.539,1267.602c0,0,135.492-32.225,152.47-27.23c16.98,4.994,15.982,43.943,9.988,85.891
				c-5.991,41.949-11.985,88.889-11.985,88.889s-29.962,8.99-68.913-4.992c0,0,24.97-95.879,36.955-122.848
				c0,0-100.379,48.539-151.314,45.676C2167.803,1330.129,2251.539,1267.602,2251.539,1267.602z"/>
			<path fill="#FFE1BD" d="M2113.186,1408.529c0,0-13.053-1.748-22.613-5.451c-6.238-3.658-8.653-3.139-8.653-3.139l-7.071,26.133
				c0,0,9.584-9.201,35.44,1.109C2136.147,1437.49,2113.186,1408.529,2113.186,1408.529z"/>
			<path fill="#183F5B" d="M2081.175,1423.412c0,0-9.173,15.973-10.337,21.109c-1.165,5.133,8.285,12.621,5.605,12.811
				c-25.582,1.799-23.657-14.713-21.063-25.68c2.711-11.473,8.715-18.594,8.813-20.943c0.105-2.352-2.799-14.777,1.283-20.869
				c4.082-6.09,23.742,10.029,23.742,10.029S2076.084,1415.889,2081.175,1423.412z"/>
			<path fill="#FFFFFF" d="M2178.407,1271.201c0,0-16.165,66.504,26.895,80.711c11.956,3.945,71.461-65.42,73.193-75.117
				c1.729-9.695-12.468-33.939-12.468-33.939S2190.181,1241.363,2178.407,1271.201z"/>
			<path fill="#FFFFFF" d="M2254.857,1288.854c0,0,31.257,149.961,26.187,166.916c-5.074,16.957-44.022,15.777-85.939,9.586
				c-41.921-6.189-88.83-12.402-88.83-12.402s-8.85-30.004,5.312-68.889c0,0,95.765,25.418,122.675,37.527
				c0,0-53.497-90.148-50.4-141.072C2186.96,1229.598,2254.857,1288.854,2254.857,1288.854z"/>
		</g>
		<path fill="#FF0037" d="M2177.51,1009.414c0,0,1.766-32.93,15.34-41.764s49.889-12.047,61.046,3.213
			c11.159,15.26,23.076,81.521-31.407,90.057l-28.242,130.32c0,0-73.49-7.516-79.109-46.867
			c-5.622-39.355,27.841-57.664,27.841-57.664s-16.064-33.07,0.803-56.389C2160.646,1007.004,2177.51,1009.414,2177.51,1009.414z"/>
		<path fill="#183F5B" d="M2249.258,1076.342l38.55,10.367c0,0-4.281,32.467,0,42.105h-26.77c0,0-4.646,13.92-7.143,20.346
			c-2.497,6.424,18.162,92.188,21.376,112.535c0,0,12.536,30.285-99.278,9.18c0,0,3.661-19.982,18.651-49.967
			c14.993-29.984-45.083-99.859-45.083-99.859s18.336-56.219,50.438-59.697C2225.637,1058.57,2225.483,1069.949,2249.258,1076.342z"
			/>
		<path fill="#FFE1BD" d="M2247.118,982.33c0,0,11.779,31.902,4.28,46.895c-7.495,14.992-25.699,12.852-25.699,12.852v34.266
			c0,0-1.856,1.779-5.084,1.965c-5.622,0.318-20.616-9.461-20.616-9.461v-79.242L2247.118,982.33z"/>
		<path fill="#FFE1BD" d="M2144.583,1139.191c0,0-14.86,84.953-7.93,90.129c6.931,5.174,79.494,2.229,86.804,3.41
			c7.313,1.178,36.651,9.051,51.978-4.451c1.978-1.742-15.81-2.602-18.476-8.504c-2.666-5.9-10.396-7.764-10.396-7.764l-22.231,9.83
			c0,0-55.854-8.215-59.737-11.486c-3.886-3.273,13.33-72.162,13.33-72.162L2144.583,1139.191z"/>
		<path fill="#183F5B" d="M2141.555,1137.324c0,0,6.666-56.76,25.441-65.133c18.772-8.371,32.047,18.475,25.143,46.055
			c-6.901,27.578-8.703,37.693-8.703,37.693S2157.116,1156.891,2141.555,1137.324z"/>
		<path fill="#FF0037" d="M2248.615,977.652c0,0-7.655,36.58-25.324,46.219c-17.67,9.637-4.32,33.33-21.164,51.023
			c-9.013,9.465-26.692-7.141-26.692-7.141l17.415-85.424L2248.615,977.652z"/>
		<g>
			<g>
				<g>
					<g>
						<path opacity="0.1" fill="#7F1E00" d="M2544.336,1234.863h-298.115c-8.641,0-15.644-7.006-15.644-15.646v-140.32
							c0-8.643,7.003-15.646,15.644-15.646h298.115c8.641,0,15.644,7.004,15.644,15.646v140.32
							C2559.979,1227.857,2552.977,1234.863,2544.336,1234.863z"/>
					</g>
				</g>
			</g>
			<g>
				<g>
					<g>
						<path fill="#FFFFFF" d="M2551.019,1228.182h-298.115c-8.641,0-15.644-7.006-15.644-15.646v-140.322
							c0-8.641,7.003-15.646,15.644-15.646h298.115c8.641,0,15.644,7.006,15.644,15.646v140.322
							C2566.662,1221.176,2559.659,1228.182,2551.019,1228.182z"/>
					</g>
				</g>
			</g>
			<g>
				<g>
					<g>
						<g>
							<rect x="2268.565" y="1166.568" fill="#FFD04D" width="14.348" height="36.021"/>
						</g>
					</g>
				</g>
				<g>
					<g>
						<g>
							<rect x="2300.896" y="1134.945" fill="#00BFD8" width="14.351" height="67.645"/>
						</g>
					</g>
				</g>
				<g>
					<g>
						<g>
							<rect x="2333.229" y="1141.939" fill="#FFD04D" width="14.352" height="60.65"/>
						</g>
					</g>
				</g>
				<g>
					<g>
						<g>
							<rect x="2365.563" y="1107.695" fill="#00BFD8" width="14.351" height="94.895"/>
						</g>
					</g>
				</g>
				<g opacity="0.15">
					<g>
						<g>
							<rect x="2300.896" y="1134.945" opacity="0.26" width="6.588" height="67.645"/>
						</g>
					</g>
				</g>
				<g opacity="0.15">
					<g>
						<g>
							<rect x="2268.565" y="1166.568" opacity="0.26" width="6.585" height="36.021"/>
						</g>
					</g>
				</g>
				<g opacity="0.62">
					<g>
						<g>
							<rect x="2365.563" y="1107.695" opacity="0.26" width="6.588" height="94.895"/>
						</g>
					</g>
				</g>
				<g opacity="0.15">
					<g>
						<g>
							<rect x="2333.229" y="1141.939" opacity="0.26" width="6.588" height="60.65"/>
						</g>
					</g>
				</g>
				<g>
					<g>
						<g>
							<polygon fill="#D5DBDA" points="2387.507,1212.506 2259.09,1212.506 2259.09,1075.764 2261.048,1075.764 2261.048,1210.547 
								2387.507,1210.547 							"/>
						</g>
					</g>
				</g>
				<g>
					<g>
						<g>
							<polygon fill="#D5DBDA" points="2272.279,1149.697 2270.971,1148.24 2304.563,1118.076 2335.681,1124.834 2369.371,1087.324 
								2370.83,1088.633 2336.375,1126.99 2305.125,1120.203 							"/>
						</g>
					</g>
				</g>
				<g>
					<g>
						<g>
							<polygon fill="#D5DBDA" points="2373.47,1094.178 2363.968,1085.066 2376.233,1081.783 							"/>
						</g>
					</g>
				</g>
				<g>
					<g>
						<g>
							<g>
								<rect x="2399.665" y="1164.014" fill="#00BFD8" width="9.854" height="9.854"/>
							</g>
						</g>
					</g>
					<g>
						<g>
							<g>
								<rect x="2399.665" y="1181.277" fill="#FFD04D" width="9.854" height="9.855"/>
							</g>
						</g>
					</g>
					<g>
						<g>
							<g>
								<rect x="2412.234" y="1185.533" fill="#EFEFEF" width="31.237" height="5.6"/>
							</g>
						</g>
					</g>
					<g>
						<g>
							<g>
								<rect x="2412.234" y="1168.268" fill="#EFEFEF" width="31.237" height="5.6"/>
							</g>
						</g>
					</g>
				</g>
				<g>
					<g>
						<g>
							<g>
								<rect x="2457.617" y="1164.014" fill="#00BFD8" width="9.854" height="9.854"/>
							</g>
						</g>
					</g>
					<g>
						<g>
							<g>
								<rect x="2457.617" y="1181.277" fill="#FFD04D" width="9.854" height="9.855"/>
							</g>
						</g>
					</g>
					<g>
						<g>
							<g>
								<rect x="2470.187" y="1185.533" fill="#EFEFEF" width="31.234" height="5.6"/>
							</g>
						</g>
					</g>
					<g>
						<g>
							<g>
								<rect x="2470.187" y="1168.268" fill="#EFEFEF" width="31.234" height="5.6"/>
							</g>
						</g>
					</g>
				</g>
				<g>
					<g>
						<g>
							<g>
								<rect x="2509.8" y="1164.014" fill="#00BFD8" width="9.854" height="9.854"/>
							</g>
						</g>
					</g>
					<g>
						<g>
							<g>
								<rect x="2509.8" y="1181.277" fill="#FFD04D" width="9.854" height="9.855"/>
							</g>
						</g>
					</g>
					<g>
						<g>
							<g>
								<rect x="2522.369" y="1185.533" fill="#EFEFEF" width="20.554" height="5.6"/>
							</g>
						</g>
					</g>
					<g>
						<g>
							<g>
								<rect x="2522.369" y="1168.268" fill="#EFEFEF" width="20.554" height="5.6"/>
							</g>
						</g>
					</g>
				</g>
				<g>
					<g>
						<g>
							<g>
								<rect x="2409.944" y="1084.025" fill="#EFEFEF" width="132.979" height="2.572"/>
							</g>
						</g>
					</g>
					<g>
						<g>
							<g>
								<rect x="2401.085" y="1090.252" fill="#EFEFEF" width="141.838" height="2.57"/>
							</g>
						</g>
					</g>
					<g>
						<g>
							<g>
								<rect x="2401.085" y="1096.479" fill="#EFEFEF" width="141.838" height="2.57"/>
							</g>
						</g>
					</g>
					<g>
						<g>
							<g>
								<rect x="2401.085" y="1102.703" fill="#EFEFEF" width="141.838" height="2.568"/>
							</g>
						</g>
					</g>
					<g>
						<g>
							<g>
								<rect x="2401.085" y="1108.926" fill="#EFEFEF" width="141.838" height="2.572"/>
							</g>
						</g>
					</g>
					<g>
						<g>
							<g>
								<rect x="2401.085" y="1115.152" fill="#EFEFEF" width="141.838" height="2.57"/>
							</g>
						</g>
					</g>
					<g>
						<g>
							<g>
								<rect x="2401.085" y="1121.379" fill="#EFEFEF" width="141.838" height="2.57"/>
							</g>
						</g>
					</g>
					<g>
						<g>
							<g>
								<rect x="2401.085" y="1127.602" fill="#EFEFEF" width="141.838" height="2.57"/>
							</g>
						</g>
					</g>
					<g>
						<g>
							<g>
								<rect x="2418.451" y="1133.826" fill="#EFEFEF" width="124.472" height="2.572"/>
							</g>
						</g>
					</g>
				</g>
			</g>
		</g>
		<path fill="#FFE1BD" d="M2336.633,1225.564c0,0-8.086-10.322-13.424-11.996c-5.339-1.674-11.078-1.754-12.433,0.953
			c-1.354,2.713-3.031,14.82-1.834,16.814C2310.137,1233.33,2332.29,1236.838,2336.633,1225.564z"/>
	</g>
	<g>
		<g>
			<path fill="#0A1828" d="M2951.898,1307.15c-0.47,2.65,4.543,9.656-2.185,15.549c-6.72,5.885-22.001,12.094-11.875,12.328
				c10.124,0.234,19.836-2.115,24.993-4.656c5.146-2.547,1.039-6.547,7.427-8.563c8.417-2.658,8.32-3.197,4.25-12.359
				C2968.906,1296.844,2953.413,1298.586,2951.898,1307.15z"/>
			<path fill="#CCD6E7" d="M2885.559,881.848c-3.512,9.115-4.353,19.064-2.227,28.621c4.214,18.973-0.581,20.244-0.581,20.244
				s-25.715,16.32-47.1,22.99c-15.327,4.77-28.388,3.963-28.025-12.959l0.011-0.232c0.028-1.027,0.054-2.012,0.079-2.969
				c0.721-38.031-7.21-39.967-9.164-82.553c-2.019-43.689,9.664-68.057,21.227-78.625c11.586-10.545,27.398-10.938,57.141-3.906
				c22.344,5.264,29.703,11.193,29.521,27.727c-0.058,5.496-0.948,12.166-2.404,20.354
				C2900.348,841.346,2891.538,866.322,2885.559,881.848z"/>
			<path fill="#12374F" d="M2831.601,788.279c0,0-23.179,75.975-18.541,112.367l8.537,15.535l9.336-16.941
				c0,0-7.591-72.76,6.939-109.676L2831.601,788.279z"/>
			<path fill="#A3B4D8" d="M2885.559,881.848c-3.512,9.115-4.353,19.064-2.227,28.621c4.214,18.973-0.581,20.244-0.581,20.244
				s-25.715,16.32-47.1,22.99l-19.981-1.895l-7.999-6.285l-0.034-5.012c0.028-1.027,0.054-2.012,0.079-2.969
				c4.562,0.436,14.947,0.969,30.173-0.785c11.766-1.342,22.46-4.699,29.589-7.414c5.196-1.967,8.244-7.34,7.273-12.814
				c-1.292-7.48-2.826-18.203-2.767-26.529c0.061-8.375,3.938-22.525,7.108-32.736c2.419-7.834,3.243-16.029,2.664-24.201
				c-0.99-14.135,0.022-27.586,0.022-27.586l15.841-8.58l8.82,3.289c-0.058,5.496-0.948,12.166-2.404,20.354
				C2900.348,841.346,2891.538,866.322,2885.559,881.848z"/>
			<path fill="#F4D5B5" d="M2885.885,962.559c1.831,0.297,6.511-7.916,6.511-7.916l-1.965-2.605
				c-1.108-1.473-2.656-2.557-4.418-3.096l-0.317-0.098c-1.581-0.484-3.313,0.082-4.236,1.453c-1.345,1.99-3.419,4.264-5.828,4.176
				h-0.042c-0.087,0.041-0.17,0.041-0.257,0.041C2873.205,954.559,2884.056,962.26,2885.885,962.559z"/>
			<g>
				<path fill="#153851" d="M2813.702,698.215c0,0-1.981,5.544,1.02,9.947l12.262-16.603l-8.552-0.079L2813.702,698.215z"/>
				<path fill="#FFE1BD" d="M2880.304,720.17c-0.543,21.411-19.012,33.816-19.012,33.816l1.236,19.486l-12.459,8.076l-8.548,5.535
					l-4.907-10.252l-0.674-12.564c-0.167-2.924-2.261-5.355-5.142-5.971c-3.189-0.682-7.618-2.543-12.149-7.344
					c-0.268-0.293-0.541-0.609-0.774-0.961c-0.03-0.016-0.03-0.016-0.03-0.016c-8.095-11.03-11.16-53.275,16.556-65.269
					C2863.019,672.291,2880.86,698.73,2880.304,720.17z"/>
				<path fill="#E8C5A0" d="M2849.231,769.861l0.838,11.688l-8.548,5.535l-4.907-10.252l-0.674-12.564
					c-0.167-2.924-2.261-5.355-5.142-5.971c-3.189-0.682-7.618-2.543-12.149-7.344c-0.268-0.293-0.541-0.609-0.774-0.961
					c0.557,0.332,7.254,4.256,17.434,5.395C2842.832,756.227,2848.691,762.311,2849.231,769.861z"/>
				<path fill="#153851" d="M2850.411,726.769c1.086,0.442,2.119-1.231,2.119-1.231s6.01-13.496,8.077-15.564
					c3.693-3.744,12.412-3.398,13.103,8.177c0.543,8.963-10.049,28.075-13.297,33.688c-0.493,0.887-0.298,2.068,0.54,2.709
					c0.345,0.246,0.787,0.395,1.183,0.443h0.147c0.492,0,0.985-0.146,1.378-0.492c6.848-6.01,36.99-34.92,13.053-62.109
					c0,0-19.012,1.232-21.918,10.393c-2.906,9.211-4.975,21.623-4.975,21.623S2849.278,726.275,2850.411,726.769z"/>
				<path fill="#153851" d="M2813.702,698.215c0,0,16.637-12.969,41.903,2.832l20.689-5.279c0,0,0.869-0.281,0.413-3.381
					c-0.46-3.1-2.745-33.518-38.986-26.682C2816.884,669.637,2804.122,684.078,2813.702,698.215z"/>
			</g>
			<path fill="#12374F" d="M2829.994,781.814l0.12,0.996c0.23,1.885,0.729,3.727,1.486,5.469l0,0l6.271,1.285l5.467-4.072
				l-6.269-7.285l-0.975,0.248c-2.246,0.57-4.312,1.697-6.012,3.275L2829.994,781.814z"/>
			<path fill="#A3B4D8" d="M2862.378,764.393c0,0,3.009,1.676,6.004,6.18c0,0-4.108,1.838-7.69,4.025
				c-3.273,1.998-18.998,13.105-18.998,13.105l-4.623-9.496C2837.07,778.207,2853.487,766.881,2862.378,764.393z"/>
			<path fill="#A3B4D8" d="M2837.07,778.207c0,0-5.503,1.881-7.192,5.992c0,0-2.814-5.395,0.782-14.99c0,0,3.014-2.855,5.338-3.873
				L2837.07,778.207z"/>
			<path fill="#E5BB98" d="M2880.8,949.143c0,0-2.924,3.67-3.789,4.146c-0.865,0.479-1.017-0.537-0.688-1.252
				C2876.651,951.32,2880.671,948.172,2880.8,949.143z"/>
			<path fill="#153851" d="M2862.136,754.99h0.147c0.492,0,0.985-0.146,1.378-0.492c6.848-6.01,36.99-34.92,13.053-62.109
				c0,0,1.183,4.729,0.689,8.668C2877.403,701.057,2892.674,725.732,2862.136,754.99z"/>
			<path fill="#183F5B" d="M2915.696,1038.842c0,0,17.935-59.289-32.945-108.129c0,0-27.271,12.207-49.107,13.682
				c-17.193,1.158-25.926-0.621-25.926-0.621s-1.447,52.67-1.509,81.059L2915.696,1038.842z"/>
			<path fill="#183F5B" d="M2801.575,1137.314c-1.108-26.508,18.516-23.668,30.009-4.369c36.798,61.773-0.14,139.232-4.106,183.92
				c-4.331-7.195-12.545-9.631-14.471-9.479c-3.135,0.236-4.83,2.709-4.83,2.709
				C2808.812,1255.279,2802.761,1165.656,2801.575,1137.314z"/>
			<path fill="#183F5B" d="M2830.59,1140.189c-3.304,10.822-31.771,23.348-28.798-16.049c1.319-17.473,4.835-113.967,5.511-123.266
				c0.683-9.305,2.233-22.898,6.731-24.594c22.479-8.484,54.017,19.768,48.102,54.693
				C2858.188,1054.324,2837.446,1117.74,2830.59,1140.189z"/>
			<path fill="#0A1828" d="M2808.258,1310.898c-1.18,2.293-6.825,7.598-14.652,11.094c-7.819,3.49-24.4,5.133-15.189,8.211
				c9.21,3.074,19.949,1.211,25.392,0.34c5.436-0.877,10.708-0.99,17.127-1.033c8.462-0.055,8.528-0.578,7.387-10.121
				C2826.751,1306.258,2812.065,1303.477,2808.258,1310.898z"/>
			<path fill="#183F5B" d="M2895.896,1143.357c-8.867-25.004,10.72-28.074,27.391-13.025
				c53.371,48.188,40.906,133.092,50.284,176.963c-5.321,3.646-13.775,4.953-16.732,4.791c-3.136-0.17-4.564-2.33-4.564-2.33
				C2936.726,1257.188,2905.384,1170.09,2895.896,1143.357z"/>
			<path fill="#183F5B" d="M2924.849,1136.197c1.002,11.271-20.679,33.57-32.718-4.061c-5.342-16.688-38.317-107.439-41.185-116.313
				c-2.861-8.879-6.53-22.059-3-25.318c17.649-16.307,57.487-1.967,65.122,32.625
				C2918.18,1046.252,2922.771,1112.82,2924.849,1136.197z"/>
			<path fill="#3A3A3A" d="M2873.827,947.754c0,0,3.975,14.023,21.642,22.084c15.239,6.953-24.403,10.932-25.285,9.385
				c-0.886-1.547-8.504-27.139-8.504-27.139L2873.827,947.754z"/>
			<path fill="#FFFFFF" d="M2983.459,982.828h-154.032c-6.822,0-12.351-5.531-12.351-12.352v-86.15
				c0-6.82,5.528-12.352,12.351-12.352h154.032c6.821,0,12.35,5.531,12.35,12.352v86.15
				C2995.809,977.297,2990.28,982.828,2983.459,982.828z"/>
			<g>
				<rect x="2893.002" y="887.92" opacity="0.1" fill="#0964AF" width="86.384" height="8.266"/>
				<rect x="2893.002" y="900.268" opacity="0.1" fill="#0964AF" width="86.384" height="8.266"/>
				<rect x="2893.002" y="912.617" opacity="0.1" fill="#0964AF" width="86.384" height="8.266"/>
				<rect x="2893.002" y="924.646" opacity="0.1" fill="#0964AF" width="86.384" height="8.268"/>
				<rect x="2893.002" y="939.041" opacity="0.1" fill="#0964AF" width="60.244" height="8.266"/>
				<g>
					<path fill="#50A4FF" d="M2873.695,951.367h-29.218c-6.915,0-12.521-5.605-12.521-12.521v-38.402
						c0-6.916,5.605-12.523,12.521-12.523h29.218c6.918,0,12.523,5.607,12.523,12.523v38.402
						C2886.219,945.762,2880.613,951.367,2873.695,951.367z"/>
					<rect x="2831.957" y="959.27" opacity="0.1" fill="#0964AF" width="54.262" height="6.811"/>
				</g>
			</g>
			<path fill="#CCD6E7" d="M2881.504,834.791c0,0,34.087,27.184,44.277,60.363c0,0,29.21-1.85,36.036-24.545
				c0,0-45.67-76.734-62.466-88.033C2882.553,771.277,2872.056,810.121,2881.504,834.791z"/>
			<path fill="#FFE1BD" d="M2927.827,898.832c0,0-22.833,70.471-27.164,74.406c-4.332,3.938-5.512,8.268-16.535,9.449
				c0,0,3.544,8.268,11.023,7.48c7.479-0.787,10.828-8.268,10.828-8.268s35.311-41.861,45.135-61.633
				c13.517-27.201,12.998-43.877,12.998-43.877L2927.827,898.832z"/>
			<path fill="#FFE1BD" d="M2736.132,761.238c0,0-69.867-41.846-73.418-47.23c-3.855-5.846-7.552-7.93-6.152-20.066
				c0,0-15.245,1.025-16.211,9.26c-0.966,8.231,11.519,13.004,11.519,13.004s36.698,49.525,55.572,64.877
				c25.974,21.123,44.024,24.605,44.024,24.605L2736.132,761.238z"/>
			<path fill="#A2B5D7" d="M2925.781,898.367c0.047-1.354,1.11,0.145,0.37-0.988c-0.384-0.588-1.061-0.996-1.255-1.672
				c-0.401-1.385,1.395-2.309,2.806-2.6c9.479-1.941,16.314-6.68,23.595-13.055c2.862-2.506,2.562-4.125,4.727-7.252
				c1.365-1.969,3.613-3.898,5.794-2.906c4.539,2.068,1.115,6.227,3.092,9.045c0.398,0.568,0.996,0.996,1.274,1.631
				c0.465,1.051-0.094,2.26-0.74,3.209c-2.107,3.096-3.922,5.32-6.942,7.535c-2.863,2.098-6.109,3.326-9.258,4.971
				C2945.714,898.129,2925.533,905.553,2925.781,898.367z"/>
			<g>
				<path fill="#CCD6E7" d="M2827.478,770.979c0,0-59.277,6.299-84.137-9.016l-30.118,35.484c0,0,59.349,27.145,92.986,21.234
					L2827.478,770.979z"/>
				<path fill="#A2B5D7" d="M2742.029,757.764c0.896,1.416-1.235,0.625,0.312,1.268c0.803,0.334,1.779,0.277,2.45,0.832
					c1.375,1.137,0.184,3.336-1.058,4.617c-8.34,8.6-12.021,18.211-15.021,29.809c-1.177,4.561,0.26,6.004,0.227,10.715
					c-0.022,2.965-1.195,2.354-4.117,2.857c-6.086,1.053-5.261-1.434-9.253-2.938c-0.801-0.301-1.712-0.324-2.44-0.777
					c-1.208-0.75-1.479-2.377-1.481-3.801c-0.006-4.633,0.301-8.174,1.846-12.545c1.464-4.146,3.928-7.666,5.998-11.543
					C2721.813,771.91,2737.27,750.242,2742.029,757.764z"/>
			</g>
		</g>
		<g>
			<path fill="#F2F2F3" d="M2610.595,647.068l2.762,2.078l10.702-14.227l-2.761-2.077c-3.931-2.956-9.51-2.167-12.465,1.763l0,0
				C2605.876,638.532,2606.667,644.113,2610.595,647.068z"/>
			<polygon fill="#FF8931" points="2629.36,710.876 2639.69,721.074 2663.474,689.602 2657.789,685.324 			"/>
			<polygon fill="#EAEBEE" points="2598.324,663.779 2649.152,676.639 2660.397,661.693 2633.95,616.42 			"/>
			<polygon fill="#DCE3EB" points="2601.576,664.803 2649.152,676.639 2653.633,670.682 2613.356,649.146 			"/>
			<path fill="#EAEBEE" d="M2670.236,690.666L2670.236,690.666c2.748,2.066,6.65,1.516,8.716-1.231l1.999-2.657
				c2.065-2.746,1.514-6.65-1.233-8.715l0,0c-2.744-2.066-6.647-1.516-8.716,1.232l-1.998,2.656
				C2666.938,684.698,2667.49,688.6,2670.236,690.666z"/>
			<path fill="#DCE3EB" d="M2671.006,679.297l-1.996,2.652c-2.071,2.755-1.515,6.65,1.232,8.717
				c2.745,2.066,6.645,1.521,8.716-1.232l1.996-2.653c0.153-0.202,0.289-0.413,0.406-0.63c-2.139,2.242-5.673,2.573-8.217,0.659
				c-2.545-1.915-3.204-5.403-1.646-8.077C2671.323,678.904,2671.158,679.096,2671.006,679.297z"/>
			<path fill="#FF8931" d="M2596.705,665.199L2596.705,665.199c1.614,1.213,3.905,0.889,5.118-0.725l33.767-44.885
				c1.214-1.613,0.889-3.903-0.723-5.117l0,0c-1.614-1.213-3.905-0.891-5.119,0.725l-33.765,44.883
				C2594.771,661.693,2595.093,663.984,2596.705,665.199z"/>
			<path fill="#FF7110" d="M2604.245,649.099l-8.262,10.979c-1.213,1.615-0.891,3.9,0.725,5.116
				c1.614,1.215,3.902,0.891,5.115-0.724l8.259-10.98c-1.208,1.609-3.501,1.939-5.115,0.725S2603.034,650.706,2604.245,649.099z"/>
			<path fill="#FFAC33" d="M2653.803,685.637l3.327,2.502c4.904,3.689,11.871,2.705,15.563-2.2l3.165-4.207
				c3.688-4.905,2.706-11.872-2.199-15.562l-3.326-2.502c-4.904-3.689-11.872-2.705-15.563,2.2l-3.165,4.207
				C2647.916,674.98,2648.899,681.947,2653.803,685.637z"/>
			<path fill="#FF8931" d="M2651.779,669.846l-4.739,6.301c-1.167,1.55-0.861,3.754,0.695,4.926l15.462,11.633
				c1.551,1.166,3.761,0.854,4.927-0.695l4.741-6.301c-1.167,1.549-3.377,1.861-4.927,0.695l-15.463-11.632
				C2650.92,673.6,2650.613,671.396,2651.779,669.846z"/>
			<path fill="#FFE1BD" d="M2636.782,703.216c-0.187-0.774,10.947-12.331,13.202-11.612c2.252,0.719,2.559,5.629,2.717,7.855
				s-3.825,7.402-6.369,7.721S2637.896,707.828,2636.782,703.216z"/>
		</g>
	</g>
</g>
<path fill="#52E6C6" d="M201.029,2312.563c258.971-35.727,365.062,48.014,514.907,114.772
	c171.406,76.363,271.741,107.779,393.23,68.329c576.94-187.344,766.967,93.891,732.325,209.172
	c0,0-1687.613,124.934-1846.012,101.282c-4.781-139.978-9.563-279.958-14.344-419.935
	C-18.864,2386.185,76.795,2329.701,201.029,2312.563z"/>
<g>
	<defs>
		<path id="SVGID_9_" d="M926.124,2520.514c169.27,80.432,435.854-48.136,610.99-44.176
			c290.011,6.557,274.47,138.582,428.028,153.754c181.546,17.938,239.32,140.898,179.305,223.372
			c-55.346,76.054-194.265,143.756-356.877,198.454c-176.132,59.243-393.258,107.017-622.087,114.568
			c-228.826,7.547-465.362-33.093-537.355-109.554c-36.061-38.298-116.057-33.322-314.981-44.169
			c-276.342-15.07-398.69-94.69-419.868-191.084c-21.352-97.186,0.557-202.998,149.094-296.826
			C475.666,2251.135,807.625,2464.211,926.124,2520.514z"/>
	</defs>
	<clipPath id="SVGID_10_">
		<use xlink:href="#SVGID_9_"  overflow="visible"/>
	</clipPath>
	
		<linearGradient id="SVGID_11_" gradientUnits="userSpaceOnUse" x1="2554.3428" y1="-103.6631" x2="3999.0977" y2="-103.6631" gradientTransform="matrix(0.2218 0.9751 0.9751 -0.2218 443.7245 -467.9892)">
		<stop  offset="0.1622" style="stop-color:#7476F8"/>
		<stop  offset="0.1996" style="stop-color:#7C7EF8"/>
		<stop  offset="0.4666" style="stop-color:#B4B5FB"/>
		<stop  offset="0.6963" style="stop-color:#DDDDFD"/>
		<stop  offset="0.8772" style="stop-color:#F6F6FF"/>
		<stop  offset="0.987" style="stop-color:#FFFFFF"/>
	</linearGradient>
	<path clip-path="url(#SVGID_10_)" fill="url(#SVGID_11_)" d="M1442.291,2351.923c61.418-10.244,133.372-9.385,187.145,2.234
		c73.691,15.923,106.346,48.598,116.893,80.556c12.739,38.598,630.143,285.48,570.127,367.954
		c-55.346,76.054-366.272,194.553-528.885,249.251c-176.132,59.243-393.258,107.017-622.087,114.568
		c-228.826,7.547-465.362-33.093-537.355-109.554c-36.061-38.298-305.642,38.18-408.656,23.495
		c-515.603-73.492-332.783-282.156-325.058-382.074c2.972-38.396,43.49-76.213,66.22-114.41
		c55.036-92.489-66.15-156.753-65.159-242.93c0.581-50.478,91.709-94.029,224.26-112.845
		C551.226,2166.914,1249.317,2384.107,1442.291,2351.923z"/>
	
		<linearGradient id="SVGID_12_" gradientUnits="userSpaceOnUse" x1="-194.8125" y1="2319.8848" x2="1052.2598" y2="2319.8848" gradientTransform="matrix(-0.1123 -0.983 -1.1286 0.1289 3081.209 2804.0825)">
		<stop  offset="0.1622" style="stop-color:#7476F8"/>
		<stop  offset="0.1997" style="stop-color:#7C7EF8;stop-opacity:0.9546"/>
		<stop  offset="0.4675" style="stop-color:#B4B5FB;stop-opacity:0.6308"/>
		<stop  offset="0.6978" style="stop-color:#DDDDFD;stop-opacity:0.3524"/>
		<stop  offset="0.8792" style="stop-color:#F6F6FF;stop-opacity:0.1331"/>
		<stop  offset="0.9892" style="stop-color:#FFFFFF;stop-opacity:0"/>
	</linearGradient>
	<path clip-path="url(#SVGID_10_)" fill="url(#SVGID_12_)" d="M1531.749,2374.723c0.671,73.294-64.546,145.161-193.238,202.988
		c-49.385,22.19-20.639,48.188-5.167,76.989c50.15,93.349-103.492,139.469-48.223,185.635
		c202.313,168.987,46.91,236.94,17.489,267.302c-220.297,227.318-693.983,103.349-1072.431,77.918
		c-273.171-18.355-511.38-125.605-622.599-206.398c-65.297-47.433-94.555-98.195-123.267-148.384
		c-78.846-137.815-167.22-275.781-251.677-413.688L1531.749,2374.723z"/>
</g>
</svg>
