<?xml version="1.0" encoding="utf-8"?>
<!-- Generator: Adobe Illustrator 16.0.0, SVG Export Plug-In . SVG Version: 6.00 Build 0)  -->
<!DOCTYPE svg PUBLIC "-//W3C//DTD SVG 1.1//EN" "http://www.w3.org/Graphics/SVG/1.1/DTD/svg11.dtd">
<svg version="1.1" id="Layer_1" xmlns="http://www.w3.org/2000/svg" xmlns:xlink="http://www.w3.org/1999/xlink" x="0px" y="0px"
	 width="1920px" height="285px" viewBox="0 0 1920 285" enable-background="new 0 0 1920 285" xml:space="preserve">
<linearGradient id="SVGID_1_" gradientUnits="userSpaceOnUse" x1="3495.2676" y1="-2789.2959" x2="4063.1182" y2="-2789.2959" gradientTransform="matrix(0.9524 -0.3049 0.3049 0.9524 -511.4971 932.1174)">
	<stop  offset="0" style="stop-color:#F37621"/>
	<stop  offset="0.063" style="stop-color:#EF6F21"/>
	<stop  offset="0.469" style="stop-color:#D54A23"/>
	<stop  offset="0.7955" style="stop-color:#C53325"/>
	<stop  offset="1" style="stop-color:#BF2A25"/>
</linearGradient>
<path fill="url(#SVGID_1_)" d="M2507.756-2963.264c22.584,70.539-80.172,166.485-229.513,214.3
	c-149.342,47.815-288.716,29.396-311.302-41.144c-22.583-70.536,80.173-166.482,229.514-214.297
	C2345.797-3052.222,2485.171-3033.802,2507.756-2963.264z"/>
<linearGradient id="SVGID_2_" gradientUnits="userSpaceOnUse" x1="1957.1602" y1="-2624.4741" x2="3071.2188" y2="-2624.4741">
	<stop  offset="0" style="stop-color:#F37621"/>
	<stop  offset="0.063" style="stop-color:#EF6F21"/>
	<stop  offset="0.469" style="stop-color:#D54A23"/>
	<stop  offset="0.7955" style="stop-color:#C53325"/>
	<stop  offset="1" style="stop-color:#BF2A25"/>
</linearGradient>
<path fill="url(#SVGID_2_)" d="M1957.16-2360.412c17.676-1.45,246.611,8.237,378.771-264.118
	c89.139-183.694,173.43-380.08,474.254-376.198c71.018,0.915,157.846,30.303,234.146,115.504
	c95.729,551.178-94.93,561.635-94.93,561.635l-544.389,75.426"/>
<g>
	<g>
		<g>
			<g>
				<g>
					<g>
						<path fill="#E3EFF8" d="M713.992-2983.707c0,0-33.398-3.996-32.859-57.852c-9.559-14.472-22.059-25.01-30.685-31.252v-6.563
							c0,0-1.491,1.412-3.853,3.863c-3.66-2.451-6.132-3.863-6.132-3.863l0.952,9.471c-5.692,6.422-13.473,15.96-21.652,28.344
							c0.539,53.855-32.86,57.852-32.86,57.852l63.545,1.85v0.306l0,0L713.992-2983.707z"/>
						<g opacity="0.62">
							<path fill="#E3EFF8" d="M617.044-3016.695c13.138-7.319,37.505-15.803,66.402-1.691c-1.517-6.465-2.404-14.096-2.313-23.17
								c-0.259-0.391-0.537-0.747-0.797-1.128c-39.408-5.56,7.98-13.366-42.246-5.099c-5.968,0.982-11.22,1.848-15.89,2.617
								c-0.808,1.183-1.616,2.371-2.437,3.609C619.864-3031.686,618.813-3023.501,617.044-3016.695z"/>
						</g>
						<path fill="#FFFFF8" d="M900.402-3027.74H400.494c-10.355,0-18.753-8.393-18.753-18.75v-291.252
							c0.464-10.583,9.548-18.239,18.753-18.75h498.475c10.357,0,20.187,8.929,20.187,19.287v290.715
							C919.155-3036.133,910.76-3027.74,900.402-3027.74z"/>
						<path fill="#181F47" d="M899.232-3356.492H401.667c-11.005,0-19.926,8.919-19.926,19.923v249.668h537.414v-249.668
							C919.155-3347.573,910.236-3356.492,899.232-3356.492z"/>
					</g>
					<path fill="#FFFFF8" d="M718.344-2980.883H582.552v-1.306c0-2.326,1.888-4.211,4.214-4.211h127.367
						c2.326,0,4.211,1.885,4.211,4.211V-2980.883z"/>
					<rect x="407.908" y="-3333.024" fill="#3FF8FF" width="488.795" height="223.325"/>
					<rect x="653.103" y="-3287.701" fill="#5421A0" width="216.588" height="142.869"/>
					<path fill="#321479" d="M810.695-3221.191h38.285c4.417,0,7.996-3.58,7.996-7.997v-38.282c0-4.417-3.579-7.996-7.996-7.996
						h-38.285c-4.416,0-7.996,3.58-7.996,7.996v38.282C802.699-3224.771,806.279-3221.191,810.695-3221.191z"/>
					<path fill="#321479" d="M744.486-3221.191h38.285c4.416,0,7.996-3.58,7.996-7.997v-38.282c0-4.417-3.58-7.996-7.996-7.996
						h-38.285c-4.414,0-7.994,3.58-7.994,7.996v38.282C736.492-3224.771,740.072-3221.191,744.486-3221.191z"/>
					<rect x="753.864" y="-3322.968" fill="#FF2E20" width="154.026" height="82.541"/>
					<rect x="761.396" y="-3260.291" fill="#3FF8FF" width="75.451" height="1.612"/>
					<rect x="761.396" y="-3254.991" fill="#3FF8FF" width="75.451" height="1.614"/>
					<rect x="761.396" y="-3249.687" fill="#3FF8FF" width="75.451" height="1.612"/>
					<rect x="761.396" y="-3268.914" fill="#003DC0" width="51.65" height="5.046"/>
					<circle fill="#3FF8FF" cx="867.291" cy="-3281.697" r="31.475"/>
					<circle fill="#00D6F1" cx="867.29" cy="-3281.697" r="27.515"/>
					<path fill="#ECF4FF" d="M864.073-3264.685l17.692-13.268c2.163-1.619,2.163-4.865,0-6.487l-17.692-13.265
						c-2.672-2.005-6.487-0.096-6.487,3.244v26.531C857.586-3264.587,861.401-3262.682,864.073-3264.685z"/>
					<path fill="#321479" d="M678.277-3221.191h38.287c4.414,0,7.994-3.58,7.994-7.997v-38.282c0-4.417-3.58-7.996-7.994-7.996
						h-38.287c-4.414,0-7.994,3.58-7.994,7.996v38.282C670.283-3224.771,673.863-3221.191,678.277-3221.191z"/>
					<path fill="#321479" d="M810.695-3155.195h38.285c4.417,0,7.996-3.579,7.996-7.994v-38.284c0-4.417-3.579-7.996-7.996-7.996
						h-38.285c-4.416,0-7.996,3.58-7.996,7.996v38.284C802.699-3158.774,806.279-3155.195,810.695-3155.195z"/>
					<path fill="#321479" d="M744.486-3155.195h38.285c4.416,0,7.996-3.579,7.996-7.994v-38.284c0-4.417-3.58-7.996-7.996-7.996
						h-38.285c-4.414,0-7.994,3.58-7.994,7.996v38.284C736.492-3158.774,740.072-3155.195,744.486-3155.195z"/>
					<g>
						<path fill="#3FF8FF" d="M758.87-3167.402L758.87-3167.402c-1.15,0-2.249-0.459-3.063-1.271l-10.172-10.174
							c-1.692-1.695-1.692-4.438,0-6.127c1.691-1.692,4.435-1.692,6.126,0l7.109,7.114l17.645-17.645
							c1.692-1.692,4.435-1.692,6.126,0c1.692,1.692,1.692,4.434,0,6.124l-20.707,20.708
							C761.121-3167.861,760.018-3167.402,758.87-3167.402z"/>
					</g>
					<path fill="#321479" d="M678.277-3155.195h38.287c4.414,0,7.994-3.579,7.994-7.994v-38.284c0-4.417-3.58-7.996-7.994-7.996
						h-38.287c-4.414,0-7.994,3.58-7.994,7.996v38.284C670.283-3158.774,673.863-3155.195,678.277-3155.195z"/>
				</g>
			</g>
			<path fill="#005FE3" d="M829.005-3001.851c1.474-3.908-1.923-11.856-14.89-6.808c-16.329,6.363-34.354,16.498-58.915-3.064
				l-8.095,2.222c0,0,21.192,31.56,62.438,20.159C814.727-2990.773,826.109-2994.16,829.005-3001.851z"/>
			<path opacity="0.46" fill="#FFD222" d="M808.234-2989.017c1.459-11.736,8.031-20.174,8.031-20.174l8.565-0.315
				c0,0,0,0-0.354,8.021c-0.133,3.058-0.92,5.334-2.462,7.169c-4.326,2.632-9.45,4.141-12.473,4.974
				C809.1-2989.217,808.673-2989.129,808.234-2989.017z"/>
			<g>
				<path opacity="0.09" fill="#008DCA" d="M791.755-2853.851l-290.31-1.763c-2.326-0.012-3.612-1.594-2.885-3.502l24.119-63.181
					c0.391-1.025,2.063-1.84,3.737-1.833l209.186,1.271c1.675,0.01,3.723,0.848,4.58,1.883l52.874,63.649
					C794.653-2855.404,794.079-2853.838,791.755-2853.851z"/>
				<path fill="#C8E1FF" d="M813.253-2952.022l-310.965,95.569c-2.492,0.766-3.828-2.176-3.908-3.506l28.115-77.193
					c0.443-1.264,2.251-2.726,4.046-3.277l224.07-68.861c1.792-0.551,3.968-0.315,4.863,0.537l55.034,50.805
					C815.448-2956.074,815.744-2952.787,813.253-2952.022z"/>
				<path fill="#EBF6FF" d="M812.583-2954.199l-310.967,95.566c-2.489,0.767-3.833-0.545-3.011-2.894l27.22-77.808
					c0.441-1.264,2.251-2.723,4.046-3.273l224.068-68.863c1.795-0.553,3.971-0.314,4.868,0.538l55.247,52.463
					C815.722-2956.886,815.075-2954.966,812.583-2954.199z"/>
				<g>
					<polygon fill="#FFFFF8" points="550.995,-2939.881 530.084,-2933.453 532.318,-2940.396 552.587,-2946.629 					"/>
					<polygon fill="#FFFFF8" points="565.481,-2944.332 555.525,-2941.271 556.979,-2947.977 566.627,-2950.939 					"/>
					<polygon fill="#FFFFF8" points="581.479,-2949.248 571.522,-2946.188 572.482,-2952.74 582.133,-2955.707 					"/>
					<polygon fill="#FFFFF8" points="597.477,-2954.164 587.521,-2951.105 587.986,-2957.505 597.637,-2960.471 					"/>
					<polygon fill="#FFFFF8" points="613.475,-2959.082 603.518,-2956.021 603.493,-2962.27 613.144,-2965.238 					"/>
					<polygon fill="#FFFFF8" points="629.473,-2963.997 619.516,-2960.937 618.996,-2967.035 628.647,-2970.001 					"/>
					<polygon fill="#FFFFF8" points="645.47,-2968.912 635.511,-2965.854 634.503,-2971.801 644.154,-2974.769 					"/>
					<polygon fill="#FFFFF8" points="661.465,-2973.831 651.509,-2970.771 650.007,-2976.566 659.658,-2979.531 					"/>
					<polygon fill="#FFFFF8" points="677.463,-2978.746 667.506,-2975.686 665.514,-2981.331 675.164,-2984.297 					"/>
					<polygon fill="#FFFFF8" points="693.461,-2983.662 683.504,-2980.602 681.018,-2986.096 690.668,-2989.062 					"/>
					<polygon fill="#FFFFF8" points="709.458,-2988.58 699.502,-2985.518 696.523,-2990.861 706.174,-2993.826 					"/>
					<polygon fill="#FFFFF8" points="725.456,-2993.493 715.499,-2990.436 712.027,-2995.627 721.678,-2998.592 					"/>
					<polygon fill="#FFFFF8" points="741.451,-2998.412 731.494,-2995.354 727.534,-3000.392 737.185,-3003.357 					"/>
					<polygon fill="#FFFFF8" points="757.449,-3003.33 747.492,-3000.267 743.037,-3005.157 752.688,-3008.123 					"/>
					<path fill="#FFD5B6" d="M755.2-3011.723l-1.261,0.252l-6.319,7.273c0,0-2.771,0.291-1.993-2.331
						c0.777-2.624,2.191-3.061,2.191-3.061l-8.074,2.484c0,0,0.125-3.6,2.762-5.686c2.64-2.085,6.023-1.808,6.023-1.808
						L755.2-3011.723z"/>
				</g>
				<g>
					<polygon fill="#FFFFF8" points="782.879,-2977.719 767.36,-2993.348 759.316,-2990.877 774.078,-2975.014 					"/>
					<g>
						<polygon fill="#FFFFF8" points="742.985,-2989.082 764.906,-2995.819 759.682,-3001.078 738.468,-2994.562 						"/>
						<polygon fill="#FFFFF8" points="727.802,-2984.416 738.237,-2987.623 733.873,-2993.147 723.773,-2990.044 						"/>
						<polygon fill="#FFFFF8" points="711.032,-2979.266 721.471,-2982.469 717.645,-2988.159 707.545,-2985.056 						"/>
						<polygon fill="#FFFFF8" points="694.266,-2974.111 704.7,-2977.318 701.417,-2983.174 691.317,-2980.067 						"/>
						<polygon fill="#FFFFF8" points="677.495,-2968.958 687.934,-2972.164 685.188,-2978.188 675.089,-2975.082 						"/>
						<polygon fill="#FFFFF8" points="660.729,-2963.805 671.166,-2967.013 668.96,-2973.199 658.86,-2970.096 						"/>
						<polygon fill="#FFFFF8" points="643.961,-2958.65 654.396,-2961.859 652.731,-2968.211 642.633,-2965.107 						"/>
						<polygon fill="#FFFFF8" points="627.193,-2953.496 637.629,-2956.705 636.506,-2963.223 626.404,-2960.119 						"/>
						<polygon fill="#FFFFF8" points="610.424,-2948.343 620.861,-2951.551 620.277,-2958.236 610.176,-2955.131 						"/>
						<polygon fill="#FFFFF8" points="593.656,-2943.189 604.092,-2946.397 604.049,-2953.251 593.947,-2950.145 						"/>
						<polygon fill="#FFFFF8" points="576.887,-2938.038 587.324,-2941.244 587.821,-2948.263 577.719,-2945.159 						"/>
						<polygon fill="#FFFFF8" points="560.119,-2932.885 570.555,-2936.09 571.593,-2943.274 561.49,-2940.171 						"/>
						<polygon fill="#FFFFF8" points="543.353,-2927.73 553.787,-2930.937 555.364,-2938.286 545.265,-2935.183 						"/>
						<polygon fill="#FFFFF8" points="526.582,-2922.579 537.021,-2925.785 539.136,-2933.301 529.034,-2930.194 						"/>
					</g>
					<g>
						<polygon fill="#FFFFF8" points="758.321,-2941.783 771.303,-2945.773 764.603,-2954.254 752.135,-2950.424 						"/>
						<polygon fill="#FFFFF8" points="791.494,-2951.978 804.477,-2955.969 796.458,-2964.045 783.989,-2960.215 						"/>
						<polygon fill="#FFFFF8" points="770.957,-2952.338 783.613,-2956.229 780.906,-2959.268 768.438,-2955.435 						"/>
						<polygon fill="#FFFFF8" points="775.299,-2947 788.281,-2950.99 785.434,-2954.188 772.649,-2950.258 						"/>
						<polygon fill="#FFFFF8" points="737.461,-2935.373 750.442,-2939.363 744.572,-2948.098 732.104,-2944.268 						"/>
						<polygon fill="#FFFFF8" points="716.602,-2928.961 729.584,-2932.951 724.541,-2941.943 712.072,-2938.11 						"/>
						<polygon fill="#FFFFF8" points="695.741,-2922.549 708.724,-2926.539 704.51,-2935.787 692.044,-2931.954 						"/>
						<polygon fill="#FFFFF8" points="674.881,-2916.143 687.863,-2920.13 684.479,-2929.633 672.014,-2925.801 						"/>
						<polygon fill="#FFFFF8" points="654.022,-2909.73 667.005,-2913.721 664.45,-2923.477 651.982,-2919.644 						"/>
						<polygon fill="#FFFFF8" points="633.162,-2903.318 646.145,-2907.309 644.42,-2917.32 631.951,-2913.49 						"/>
						<polygon fill="#FFFFF8" points="612.301,-2896.908 625.286,-2900.898 624.389,-2911.164 611.92,-2907.334 						"/>
						<polygon fill="#FFFFF8" points="591.443,-2890.498 604.426,-2894.489 604.357,-2905.008 591.892,-2901.178 						"/>
						<polygon fill="#FFFFF8" points="570.582,-2884.086 583.567,-2888.077 584.326,-2898.851 571.861,-2895.021 						"/>
						<polygon fill="#FFFFF8" points="549.725,-2877.674 562.707,-2881.665 564.298,-2892.697 551.83,-2888.864 						"/>
						<polygon fill="#FFFFF8" points="528.863,-2871.268 541.846,-2875.256 544.268,-2886.541 531.799,-2882.708 						"/>
						<polygon fill="#FFFFF8" points="508.003,-2864.855 520.987,-2868.846 524.236,-2880.384 511.768,-2876.551 						"/>
					</g>
					<g>
						<polygon fill="#FFFFF8" points="767.34,-2959.553 793.068,-2967.459 785.914,-2974.663 761.153,-2967.053 						"/>
						<polygon fill="#FFFFF8" points="749.52,-2954.076 761.771,-2957.838 755.792,-2965.406 744.003,-2961.783 						"/>
						<polygon fill="#FFFFF8" points="729.84,-2948.027 742.09,-2951.792 736.852,-2959.588 725.063,-2955.963 						"/>
						<polygon fill="#FFFFF8" points="710.16,-2941.98 722.41,-2945.744 717.91,-2953.765 706.121,-2950.143 						"/>
						<polygon fill="#FFFFF8" points="690.48,-2935.93 702.73,-2939.695 698.971,-2947.944 687.182,-2944.322 						"/>
						<polygon fill="#FFFFF8" points="670.8,-2929.884 683.05,-2933.648 680.029,-2942.124 668.24,-2938.502 						"/>
						<polygon fill="#FFFFF8" points="651.12,-2923.835 663.37,-2927.598 661.089,-2936.303 649.303,-2932.682 						"/>
						<polygon fill="#FFFFF8" points="631.439,-2917.786 643.69,-2921.551 642.15,-2930.48 630.362,-2926.86 						"/>
						<polygon fill="#FFFFF8" points="611.76,-2911.74 624.01,-2915.503 623.211,-2924.66 611.422,-2921.04 						"/>
						<polygon fill="#FFFFF8" points="592.082,-2905.689 604.33,-2909.454 604.27,-2918.84 592.48,-2915.217 						"/>
						<polygon fill="#FFFFF8" points="572.4,-2899.643 584.65,-2903.408 585.329,-2913.019 573.54,-2909.396 						"/>
						<polygon fill="#FFFFF8" points="552.723,-2893.592 564.97,-2897.357 566.389,-2907.198 554.6,-2903.576 						"/>
						<polygon fill="#FFFFF8" points="535.266,-2888.23 547.514,-2891.992 549.589,-2902.034 537.8,-2898.414 						"/>
						<polygon fill="#FFFFF8" points="513.362,-2881.5 528.733,-2886.223 531.516,-2896.479 516.721,-2891.933 						"/>
					</g>
				</g>
				<g>
					<polygon fill="#FFFFF8" points="545.759,-2917.679 522.728,-2910.602 525.432,-2918.997 547.684,-2925.836 					"/>
					<polygon fill="#FFFFF8" points="561.711,-2922.582 550.747,-2919.21 552.502,-2927.316 563.098,-2930.573 					"/>
					<polygon fill="#FFFFF8" points="579.328,-2927.996 568.364,-2924.625 569.524,-2932.549 580.118,-2935.805 					"/>
					<polygon fill="#FFFFF8" points="596.945,-2933.408 585.98,-2930.039 586.545,-2937.779 597.141,-2941.033 					"/>
					<polygon fill="#FFFFF8" points="614.563,-2938.822 603.598,-2935.453 603.568,-2943.012 614.161,-2946.268 					"/>
					<polygon fill="#FFFFF8" points="632.18,-2944.236 621.215,-2940.868 620.588,-2948.242 631.185,-2951.496 					"/>
					<polygon fill="#FFFFF8" points="649.797,-2949.651 638.832,-2946.282 637.611,-2953.472 648.207,-2956.73 					"/>
					<polygon fill="#FFFFF8" points="667.413,-2955.066 656.449,-2951.697 654.635,-2958.705 665.228,-2961.959 					"/>
					<polygon fill="#FFFFF8" points="685.03,-2960.48 674.066,-2957.111 671.654,-2963.935 682.25,-2967.193 					"/>
					<polygon fill="#FFFFF8" points="702.647,-2965.895 691.684,-2962.525 688.678,-2969.166 699.271,-2972.422 					"/>
					<polygon fill="#FFFFF8" points="720.265,-2971.309 709.301,-2967.94 705.701,-2974.397 716.294,-2977.654 					"/>
					<polygon fill="#FFFFF8" points="737.881,-2976.724 726.917,-2973.354 722.721,-2979.629 733.316,-2982.885 					"/>
					<polygon fill="#FFFFF8" points="755.498,-2982.139 744.534,-2978.77 739.744,-2984.86 750.337,-2988.117 					"/>
					<polygon fill="#FFFFF8" points="773.115,-2987.553 759.437,-2983.346 754.143,-2989.287 767.36,-2993.348 					"/>
				</g>
				<g>
					<polygon fill="#FFFFF8" points="542.495,-2903.844 518.145,-2896.359 521.16,-2905.727 544.641,-2912.943 					"/>
					<polygon fill="#FFFFF8" points="559.36,-2909.025 547.767,-2905.463 549.727,-2914.508 560.906,-2917.941 					"/>
					<polygon fill="#FFFFF8" points="577.987,-2914.751 566.394,-2911.189 567.689,-2920.027 578.869,-2923.461 					"/>
					<polygon fill="#FFFFF8" points="596.614,-2920.474 585.021,-2916.912 585.65,-2925.547 596.83,-2928.981 					"/>
					<polygon fill="#FFFFF8" points="615.239,-2926.199 603.648,-2922.637 603.613,-2931.066 614.793,-2934.504 					"/>
					<polygon fill="#FFFFF8" points="633.866,-2931.924 622.273,-2928.359 621.576,-2936.586 632.756,-2940.023 					"/>
					<polygon fill="#FFFFF8" points="652.494,-2937.649 640.9,-2934.085 639.539,-2942.109 650.719,-2945.545 					"/>
					<polygon fill="#FFFFF8" points="671.121,-2943.372 659.527,-2939.811 657.502,-2947.629 668.682,-2951.065 					"/>
					<polygon fill="#FFFFF8" points="689.748,-2949.095 678.152,-2945.535 675.465,-2953.148 686.645,-2956.585 					"/>
					<polygon fill="#FFFFF8" points="708.373,-2954.82 696.779,-2951.258 693.428,-2958.67 704.607,-2962.104 					"/>
					<polygon fill="#FFFFF8" points="727,-2960.545 715.406,-2956.98 711.391,-2964.19 722.57,-2967.625 					"/>
					<polygon fill="#FFFFF8" points="745.627,-2966.271 734.033,-2962.706 729.352,-2969.71 740.531,-2973.145 					"/>
					<polygon fill="#FFFFF8" points="764.252,-2971.996 752.658,-2968.432 747.314,-2975.229 758.494,-2978.666 					"/>
				</g>
			</g>
		</g>
		<g>
			<g>
				<g>
					<g>
						<path fill="#00A1FF" d="M813.842-3008.557c0,0-2.73,13.584,1.936,23.423c4.664,9.839,24.059,49.46,24.059,49.46
							s11.807,8.981,31.03-8.829c0,0-22.796-52.886-27.975-61.56c-5.179-8.673-12.072-16.89-20.292-11.239L813.842-3008.557z"/>
						<path fill="#0097ED" d="M820.654-2975.01l9.218-12.809l11.24-13.609c0,0,7.563,24.764-11.283,45.273
							C826.716-2962.535,823.39-2969.369,820.654-2975.01z"/>
						<path fill="#FFD5B6" d="M825.268-3029.58l2.519,13.055c0,0-2.273,8.17-9.58,11.411l-2.609-13.531L825.268-3029.58z"/>
						<g>
							<path fill="#181F47" d="M806.73-3051.383c2.261-4.329,18.101-11.703,23.563,0c0,0,16.088,13.436-0.232,22.365l-3.43,3.303
								l-2.401-0.133l-3.121,2.795l-2.857-14.4l-11.621-1.181l0.101-4.675C802.349-3045.858,801.632-3052.431,806.73-3051.383z"/>
							<polygon fill="#FF8B99" points="806.73,-3041.133 802.349,-3033.265 806.414,-3032.322 							"/>
							<path fill="#FFD5B6" d="M806.73-3043.309l-3.364,24.838c0,0,16.211,6.927,21.898-6.777c0,0,7.239-1.8,5.274-6.783
								c-0.301-0.765-1.51-1.293-2.532-1.309c-0.917-0.013-1.94,0.502-2.529,1.184c-1.181,1.355-1.233,3.003-1.233,3.003
								s-1.93-1.694-1.213-4.958c0,0-3.507-2.412-2.702-6.076C820.329-3040.188,807.392-3036.729,806.73-3043.309L806.73-3043.309z"
								/>
							<path fill="#FFFFFF" d="M804.139-3024.05l0.669-4.828l7.676,1.214c0,0-1.817,4.491-7.082,4.055
								C804.948-3023.648,804.584-3023.781,804.139-3024.05z"/>
						</g>
					</g>
				</g>
				<path fill="#00C7FF" d="M818.206-3005.114l4.67,3.193c0,0,12.242-14.065,4.259-17.978
					C827.135-3019.898,826.934-3012.479,818.206-3005.114z"/>
				<path fill="#00C7FF" d="M816.945-3011.652l1.261,6.538l-5.174,1.486c0,0-0.103-5.788,3.444-10.458L816.945-3011.652z"/>
			</g>
			<ellipse opacity="0.09" fill="#008DCA" cx="904.381" cy="-2877.467" rx="14.629" ry="5.445"/>
			<ellipse opacity="0.09" fill="#008DCA" cx="854.416" cy="-2877.467" rx="7.406" ry="2.756"/>
			<ellipse opacity="0.09" fill="#008DCA" cx="803.366" cy="-2877.467" rx="23.482" ry="8.741"/>
			<g>
				<path fill="#001329" d="M816.065-2879.926v1.86c0,0.763-0.617,1.379-1.379,1.379h-27.832c0,0,3.876-7.149,17.356-7.603
					C811.305-2882.928,816.065-2879.926,816.065-2879.926z"/>
				<path fill="#00285C" d="M835.219-2944.503l-45.115,9.687l18.772,52.387l7.189,2.504c0,0,0.656-34.01-9.769-43.423l45.338,3.632"
					/>
			</g>
			<path fill="#002D71" d="M835.219-2944.503l15.313,67.816l53.628-13.812l-0.736-4.613c0,0-33.623-3.384-41.401,4.908l8.844-41.102
				c0,0,1.853-9.653,0-13.198C870.866-2944.503,856.145-2938.475,835.219-2944.503z"/>
			<path fill="#001329" d="M903.424-2895.111h6.256v18.425h-12.23c0,0,1.191-4.502,6.711-5.926v-7.886L903.424-2895.111z"/>
			<g>
				<path fill="#005FE3" d="M839.177-3010.067c-2.63-3.244-11.205-4.327-13.388,9.42c-2.75,17.306-6.087,39.22-35.367,50.55
					l0.816,6.873c0,0,37.944-2.366,48.919-43.727C841.535-2992.15,844.355-3003.686,839.177-3010.067z"/>
				
					<rect x="789.746" y="-2950.834" transform="matrix(-0.9817 0.1903 -0.1903 -0.9817 1008.3141 -5990.8354)" fill="#00C7FF" width="3.978" height="7.637"/>
				<path fill="#FFD5B6" d="M778.894-2939.64c2.181,0.536,7.943,0.16,7.943,0.16l3.876-3.614l-1.043-7.41l-3.678-1.659l-5.893-1.376
					l-3.522,1.562l7.057,4.753l-0.043,4l-3.707,1.489l-4.457,1.309L778.894-2939.64z"/>
			</g>
		</g>
		<g>
			<path fill="#00225E" d="M785.541-3379.905l39.34,68.021l-7.49,1.098c0,0-17.998-10.43-28.969-37.821"/>
			<polyline fill="#00225E" points="780.841,-3356.161 721.568,-3352.501 768.143,-3373.613 785.696,-3372.605 			"/>
			<path fill="#002D71" d="M681.902-3393.551l50.609,7.114l53.029,6.532l10.781,78.69l-8.502-0.193c0,0-24.19-45.975-11.301-64.891
				l-54.951,13.797c0,0-23.967,0.852-32.364-10.262C677.455-3378.315,681.902-3393.551,681.902-3393.551z"/>
			<path fill="#002663" d="M681.902-3393.554l44.654,6.279l0,0c1.333,0.186-45.003,6.545-45.061,6.548
				C680.496-3388.001,681.902-3393.554,681.902-3393.554z"/>
			<polygon fill="#001329" points="787.82,-3301.408 787.627,-3292.998 817.587,-3292.316 796.668,-3301.207 			"/>
			<polygon fill="#001329" points="817.391,-3310.785 821.193,-3303.28 847.925,-3316.826 825.287,-3314.786 			"/>
			<g>
				<path fill="#FFD5B6" d="M720.984-3469.506c0,0-11.232-2.602-25.035,6.56c0,0,26,37.886,79.607,43.594l2.385-7.081
					C777.941-3426.434,730.71-3441.361,720.984-3469.506z"/>
				<path fill="#DEE7FF" d="M703.753-3451.824l18.196-17.682l-23.563,11.426C700.08-3455.933,701.259-3454.354,703.753-3451.824z"/>
				<path fill="#FFD5B6" d="M776.422-3425.985c0,0,3.765-2.318,5.316-2.619c0,0,7.573-2.672,8.776-3.008
					c0,0,1.378,1.306-0.491,2.635c-1.868,1.329-4.116,2.98-4.116,2.98s2.995,0.015,5.209-0.391c2.216-0.406,6.612-1.09,7.804-0.343
					c1.19,0.747,0.045,1.602,0.045,1.602s-6.758,1.045-8.205,1.278c-1.268,0.208-0.834,0.667-0.834,0.667s7.863-0.572,9.295-0.481
					c1.431,0.09,2.01,0.639,1.521,1.78c0,0-6.089,0.642-6.996,0.752c-0.905,0.113-3.894-0.038-3.783,0.942
					c0,0,6.836-0.115,8.009-0.06c1.171,0.053,1.71,0.775,0.91,1.665l-9.4,0.647c0,0-0.661,0.06-0.464,0.461
					c0.176,0.356,4.131,1.386,4.61,1.459c0.476,0.075,1.96,0.424,1.514,1.519c0,0-0.208,0.351-1.602,0.042
					c-1.394-0.308-7.948-0.907-7.948-0.907s-4.457-0.401-8.674-3.051c-4.246-2.667-4.033-4.57-3.176-1.94l1.168-2.336
					L776.422-3425.985z"/>
			</g>
			<g>
				<g>
					<path fill="#FFD5B6" d="M727.594-3511.907c0,0,4.851,9.691,5.435,23.32c0,0-4.94,3.386-14.538,2.431l-1.238,12.431
						l-10.76-7.818l0.86-8.628l2.729-0.213l-1.456-3.805c0,0-3.806-0.652-4.737-4.715c-0.933-4.063,3.481-2.654,4.539-2.065
						l1.336,2.649c0,0,0.131-5.655-3.11-7.43l1.722-5.402C708.375-3511.152,716.822-3508.373,727.594-3511.907z"/>
					<path fill="#181F47" d="M710.082-3490.384l-2.729,0.213l-0.288,2.885c0,0-1.652-0.893-2.462-3.645
						c0,0-12.408-1.985-7.605-17.552c0,0-2.008-8.242,4.901-13.771c13.042-10.431,31.13,6.991,31.13,6.991s-1.483,3.81-9.558,4.725
						l1.523,1.646c0,0-6.961,2.918-14.471,0.85l-0.936,1.607c0,0,0.555,1.998,0.176,8.114l-1.336-2.649c0,0-2.414-1.594-3.955,0.123
						c-1.539,1.714,0.797,5.535,4.153,6.658L710.082-3490.384z"/>
					<path fill="#181F47" d="M703.761-3518.394l-1.354-4.242c0,0,6.796-6.502,22.024-10.676c0,0,4.008,7.721-2.481,14.917
						c-6.487,7.199-11.781,1.982-11.781,1.982"/>
					<polygon fill="#FFA28E" points="724.426,-3505.658 723.711,-3498.486 727.093,-3498.15 					"/>
					<path fill="#FFFFFF" d="M730.336-3495.801c-0.827,2.998-3.699,5.061-6.898,4.745c-3.201-0.321-5.609-2.91-5.83-6.011
						L730.336-3495.801z"/>
				</g>
				<polygon fill="#0066EF" points="731.148,-3453.687 718.801,-3440.942 716.873,-3453.083 715.891,-3462.234 720.984,-3468.569 
									"/>
				<path fill="#3FF8FF" d="M681.075-3385.63l45.481-1.645l-4.219-80.417c0,0-2.51-13.563-13.093-13.534
					c-9.593,0.03-18.7,12.441-22.377,27.614C679.686-3423.992,681.075-3385.63,681.075-3385.63z"/>
			</g>
			<polygon fill="#003BBC" points="720.307,-3477.793 720.984,-3483.067 706.791,-3484.531 715.577,-3479.771 			"/>
			<path fill="#0066EF" d="M702.406-3479.084l1.595-5.858c0,0,11.839,0.94,16.983,8.001l-0.574,4.374
				C720.41-3472.567,711.147-3478.48,702.406-3479.084z"/>
			<path fill="#18EBFF" d="M726.298-3395.16c-13.982-3.845-26.442-16.208-26.442-16.208s-3.818-37.232-3.345-46.141
				c0.481-9.017,3.101-17.647,12.526-16.303c9.678,1.381,7.855,15.072,7.855,15.072l-3.685,31.329l12.366,22.112L726.298-3395.16z"
				/>
			<path fill="#FFD5B6" d="M719.319-3459.204c0,0,0.612-13.877-9.603-14.338c-10.145-0.459-11.998,8.65-11.517,17.833
				c0.47,8.957,3.425,40.39,3.425,40.39s19.489,18.986,49.803,23.744l-1.088-7.004l-32.104-22.5L719.319-3459.204z"/>
			<path fill="#FFD5B6" d="M750.34-3398.58l10.975-2.201l9.414,3.126l2.177,11.162c0,0-2.517,0.938-3.976-5.655l-2.587-0.351
				c0,0-4.633,2.437-8.333,1.727c-3.702-0.709-7.39-0.85-7.39-0.85L750.34-3398.58z"/>
			<g>
				<path fill="#FFFFFF" d="M796.317-3412.369c-1.093,0.403-1.667,1.642-1.667,1.642l-14.341,30.085l2.396,0.882l15.517-32.547
					C798.223-3412.306,797.466-3412.792,796.317-3412.369z"/>
				
					<rect x="741.46" y="-3385.417" transform="matrix(-0.9909 -0.1346 0.1346 -0.9909 1973.0172 -6634.5762)" fill="#F0F2FF" width="41.527" height="2.861"/>
			</g>
		</g>
		<g>
			<g>
				<path fill="#642DB9" d="M302.014-3138.132c0,0-5.959,9.743-4.111,25.879c0,0,44.285,0.144,71.962-46.98l-7.422-6.555
					C362.442-3165.788,338.37-3130.479,302.014-3138.132z"/>
				<path fill="#FFD5B6" d="M366.285-3167.453c0,0,0.33-4.321,0.984-5.728c0,0,2.249-7.542,2.675-8.69c0,0,1.83-0.341,1.808,1.905
					c-0.025,2.248-0.768,5.019-0.768,5.019s2.497-2.402,3.449-4.393c0.955-1.99,2.948-5.87,4.225-6.387
					c1.278-0.511,1.296,0.89,1.296,0.89s-3.065,5.958-3.713,7.242c-0.566,1.128,0.048,1.048,0.048,1.048s4.078-6.567,4.976-7.65
					c0.896-1.083,1.665-1.223,2.286-0.181c0,0-3,5.199-3.434,5.981c-0.434,0.784-2.274,3.065-1.435,3.544
					c0,0,3.851-5.489,4.567-6.387s1.6-0.908,1.845,0.235l-4.903,7.831c0,0-0.333,0.557,0.096,0.632
					c0.386,0.064,3.482-2.477,3.815-2.813c0.333-0.339,1.464-1.313,2.075-0.326c0,0,0.16,0.366-0.887,1.293
					c-1.049,0.928-5.303,5.781-5.303,5.781s-2.885,3.304-7.417,5.118c-4.562,1.83-5.945,0.567-3.368,1.399l-1.182-2.271
					L366.285-3167.453z"/>
				<polygon fill="#FFCC00" points="373.376,-3163.217 365.844,-3169.573 362.314,-3165.788 369.739,-3159.233 				"/>
				<path fill="#3FF8FF" d="M337.859-3242.776v-8.45h-4.898c-0.411-1.614-1.045-3.139-1.878-4.532l3.465-3.464l-5.977-5.976
					l-3.464,3.464c-1.394-0.832-2.915-1.469-4.529-1.877v-4.898h-8.453v4.898c-1.614,0.409-3.136,1.045-4.531,1.877l-3.463-3.464
					l-5.979,5.976l3.465,3.464c-0.83,1.394-1.467,2.918-1.875,4.532h-4.898v8.45h4.898c0.408,1.614,1.045,3.136,1.875,4.53
					l-3.465,3.464l5.979,5.976l3.463-3.464c1.396,0.832,2.917,1.469,4.531,1.877v4.9h8.453v-4.9
					c1.614-0.409,3.136-1.045,4.529-1.877l3.464,3.464l5.977-5.976l-3.465-3.464c0.833-1.394,1.467-2.916,1.878-4.53H337.859z
					 M307.818-3247.263c0.139-4.6,3.9-8.285,8.533-8.285c4.72,0,8.545,3.825,8.545,8.545c0,4.63-3.688,8.395-8.284,8.533
					C311.814-3238.607,307.954-3242.463,307.818-3247.263z"/>
				<path opacity="0.67" fill="#FFFFFF" d="M715.891-3123.02H316.352v-257.226h376.563c12.688,0,22.977,10.288,22.977,22.974
					V-3123.02z"/>
				<rect x="494.477" y="-3163.806" fill="#FFFAFF" width="202.824" height="2.938"/>
				<rect x="494.477" y="-3153.074" fill="#FFFAFF" width="202.824" height="2.938"/>
				<rect x="494.477" y="-3142.341" fill="#FFFAFF" width="202.824" height="2.938"/>
				<path fill="#00F8FF" d="M465.532-3220.078v-16.038h-9.298c-0.776-3.063-1.982-5.951-3.562-8.598l6.572-6.575l-11.34-11.343
					l-6.573,6.578c-2.646-1.579-5.534-2.788-8.6-3.564v-9.295h-16.038v9.295c-3.065,0.777-5.951,1.985-8.598,3.564l-6.573-6.578
					l-11.342,11.343l6.574,6.575c-1.579,2.647-2.785,5.535-3.562,8.598h-9.298v16.038h9.298c0.776,3.063,1.982,5.951,3.562,8.598
					l-6.574,6.572l11.342,11.343l6.573-6.575c2.646,1.579,5.532,2.787,8.598,3.564v9.294h16.038v-9.294
					c3.065-0.777,5.953-1.985,8.6-3.564l6.573,6.575l11.34-11.343l-6.572-6.572c1.579-2.647,2.785-5.535,3.562-8.598H465.532z
					 M408.522-3228.591c0.263-8.729,7.402-15.725,16.19-15.725c8.959,0,16.219,7.262,16.219,16.218
					c0,8.789-6.996,15.928-15.723,16.191C416.103-3212.167,408.783-3219.486,408.522-3228.591z"/>
				<path opacity="0.69" fill="#0070FF" d="M685.646-3171.674H434.625c-5.475,0-9.912-4.438-9.912-9.912v-119.278
					c0-5.475,4.438-9.912,9.912-9.912h251.021c5.475,0,9.912,4.437,9.912,9.912v119.278
					C695.559-3176.111,691.121-3171.674,685.646-3171.674z"/>
				<path opacity="0.21" fill="#0070FF" d="M675.352-3220.569l-109.146-37.169l109.146-37.169c1.627-0.554,2.5-2.324,1.943-3.951
					c-0.555-1.624-2.321-2.499-3.948-1.942l-116.797,39.773l-116.794-39.773c-1.624-0.557-3.396,0.318-3.95,1.942
					c-0.557,1.627,0.315,3.396,1.942,3.951l109.148,37.169l-109.148,37.169c-1.627,0.551-2.499,2.321-1.942,3.948
					c0.44,1.296,1.651,2.11,2.947,2.11c0.331,0,0.672-0.053,1.003-0.168l116.794-39.771l116.797,39.771
					c0.331,0.115,0.672,0.168,1.003,0.168c1.296,0,2.504-0.814,2.945-2.11C677.852-3218.248,676.979-3220.018,675.352-3220.569z"/>
				<path opacity="0.69" fill="#0070FF" d="M542.017-3137.789H363.598c-5.475,0-9.912-4.437-9.912-9.911v-81.988
					c0-5.475,4.438-9.912,9.912-9.912h178.416c5.475,0,9.912,4.437,9.912,9.912v81.988
					C551.926-3142.226,547.488-3137.789,542.017-3137.789z"/>
				<path fill="#FF2E20" d="M604.102-3399.82h-46.519v24.733h58.624v-12.628C616.207-3394.401,610.787-3399.82,604.102-3399.82z"/>
				<path fill="#5421A0" d="M715.891-3351.218H316.352v-29.027h381.496c9.964,0,18.043,8.077,18.043,18.041V-3351.218z"/>
				<g>
					<circle fill="#2E187F" cx="328.561" cy="-3365.732" r="6.063"/>
					<circle fill="#00A1FF" cx="328.562" cy="-3365.732" r="4.063"/>
				</g>
				<g>
					<circle fill="#2E187F" cx="345.641" cy="-3365.732" r="6.063"/>
					<circle fill="#3FF8FF" cx="345.641" cy="-3365.732" r="4.062"/>
				</g>
				<g>
					<circle fill="#2E187F" cx="362.719" cy="-3365.732" r="6.063"/>
					<circle fill="#FFFFFF" cx="362.719" cy="-3365.732" r="4.062"/>
				</g>
				<path fill="#CD6DFF" d="M551.361-3404.981h-46.517v24.736h58.624v-12.628C563.469-3399.562,558.047-3404.981,551.361-3404.981z"
					/>
				<path fill="#3FF8FF" d="M501.098-3409.644h-57.576v29.398h69.681v-17.293C513.202-3404.225,507.782-3409.644,501.098-3409.644z"
					/>
				<path fill="#00A1FF" d="M440.285-3414.81H327.968c-6.415,0-11.616,5.201-11.616,11.613v22.951h143.242v-15.256
					C459.594-3406.165,450.948-3414.81,440.285-3414.81z"/>
				<rect x="424.713" y="-3329.094" fill="#22316B" width="169.846" height="5.247"/>
				<rect x="424.713" y="-3343.367" fill="#22316B" width="67.769" height="5.247"/>
				<rect x="520.256" y="-3343.367" fill="#22316B" width="11.771" height="5.247"/>
				<rect x="550.664" y="-3343.367" fill="#22316B" width="11.774" height="5.247"/>
				<rect x="581.073" y="-3343.367" fill="#22316B" width="11.773" height="5.247"/>
				<rect x="611.481" y="-3343.367" fill="#22316B" width="11.774" height="5.247"/>
				<rect x="641.891" y="-3343.367" fill="#22316B" width="11.776" height="5.247"/>
				<rect x="672.302" y="-3343.367" fill="#22316B" width="11.773" height="5.247"/>
				<rect x="598.379" y="-3196.776" fill="#3FF8FF" width="84.714" height="4.572"/>
				<rect x="598.379" y="-3186.904" fill="#3FF8FF" width="84.714" height="4.572"/>
			</g>
			<path fill="#0090FF" d="M403.459-3287.097v-15.512h-8.991c-0.752-2.963-1.918-5.755-3.444-8.317l6.357-6.356l-10.97-10.97
				l-6.357,6.357c-2.562-1.526-5.354-2.692-8.319-3.444v-8.994h-15.512v8.994c-2.965,0.752-5.758,1.917-8.316,3.444l-6.36-6.357
				l-10.969,10.97l6.359,6.356c-1.529,2.562-2.694,5.354-3.446,8.317h-8.992v15.512h8.992c0.752,2.965,1.917,5.758,3.446,8.319
				l-6.359,6.359l10.969,10.97l6.36-6.36c2.559,1.527,5.352,2.692,8.316,3.444v8.992h15.512v-8.992
				c2.965-0.752,5.758-1.917,8.319-3.444l6.357,6.36l10.97-10.97l-6.357-6.359c1.526-2.562,2.692-5.354,3.444-8.319H403.459z
				 M348.316-3295.332c0.256-8.44,7.162-15.208,15.662-15.208c8.663,0,15.688,7.024,15.688,15.687
				c0,8.502-6.769,15.406-15.209,15.662C355.648-3279.441,348.567-3286.523,348.316-3295.332z"/>
			<path fill="#CD6DFF" d="M368.549-3230.997v-5.693h-3.299c-0.276-1.088-0.705-2.113-1.264-3.051l2.331-2.331l-4.023-4.026
				l-2.333,2.332c-0.94-0.559-1.963-0.988-3.051-1.264v-3.299h-5.693v3.299c-1.088,0.276-2.11,0.705-3.051,1.264l-2.333-2.332
				l-4.023,4.026l2.331,2.331c-0.559,0.938-0.987,1.963-1.264,3.051h-3.299v5.693h3.299c0.276,1.088,0.705,2.11,1.264,3.05
				l-2.331,2.334l4.023,4.023l2.333-2.333c0.94,0.562,1.963,0.988,3.051,1.263v3.302h5.693v-3.302
				c1.088-0.275,2.11-0.702,3.051-1.263l2.333,2.333l4.023-4.023l-2.331-2.334c0.559-0.94,0.987-1.962,1.264-3.05H368.549z
				 M348.316-3234.021c0.096-3.096,2.627-5.58,5.746-5.58c3.178,0,5.755,2.577,5.755,5.755c0,3.118-2.481,5.655-5.58,5.745
				C351.007-3228.19,348.41-3230.787,348.316-3234.021z"/>
		</g>
		<g>
			<g>
				<g>
					<g>
						<path fill="#FFD5B6" d="M307.706-3175.193c0,0,5.673,8.979,7.563,22.219c0,0-4.489,3.781-13.947,3.781v12.247l-11.253-6.583
							v-8.502l2.645-0.472l-1.792-3.569c0,0-3.772-0.266-5.078-4.141c-1.304-3.871,3.138-2.928,4.226-2.455l1.563,2.455
							c0,0-0.422-5.525-3.756-6.943l1.156-5.439C289.031-3172.596,297.541-3170.703,307.706-3175.193z"/>
						<path fill="#18285F" d="M277.373-3171.183c0,0-2.184-6.399,3.975-10.368c1.023,5.093,5.836,7.761,9.578,11.358l-2.725,0.619
							c0,0,3.204,3.358,3.43,9.36l-1.563-2.455c0,0-2.506-1.32-3.845,0.504c-1.336,1.82,1.315,5.322,4.697,6.092l1.792,3.569
							l-2.645,0.474v2.843c0,0-1.696-0.71-2.754-3.316C287.314-3152.503,274.201-3155.531,277.373-3171.183z"/>
						<path fill="#18285F" d="M284.795-3172.792c0,0,24.741,6.567,26.658-8.758l-2.19,1.231c0,0,2.326-4.104,0.546-9.167
							l-1.256,2.206c0,0-13.658-7.545-27.205,5.73l-1.095,3.421L284.795-3172.792z"/>
						<polygon fill="#FFA28E" points="305.222,-3168.791 305.222,-3161.728 308.553,-3161.728 						"/>
						<path fill="#FFFFFF" d="M312.674-3161.728c0.6,2.988-1.002,6.063-3.942,7.199c-2.94,1.134-6.194-0.067-7.756-2.687
							L312.674-3161.728z"/>
					</g>
					<path opacity="0.09" fill="#008DCA" d="M252.381-2923.803c0,9.791,19.171,17.725,42.824,17.725
						c23.648,0,42.822-7.934,42.822-17.725c0-9.785-19.174-17.723-42.822-17.723
						C271.552-2941.525,252.381-2933.588,252.381-2923.803z"/>
					<polygon fill="#001329" points="310.973,-2927.818 310.973,-2922.785 331.857,-2922.785 317.7,-2927.818 					"/>
					<polygon fill="#001329" points="261.1,-2927.818 261.1,-2922.785 273.723,-2917.007 279.393,-2917.007 268.81,-2927.818 					
						"/>
					<path fill="#002D71" d="M313.098-3051.41l4.603,123.592h-6.728c0,0-11.215-31.398-9.421-62.346l-7.625-46.645l-25.117,108.99
						h-7.623c0,0-6.63-40.242,2.69-64.587l3.589-69.97L313.098-3051.41z"/>
					<polygon fill="#001D4F" points="293.927,-3036.809 302.527,-3053.947 301.552,-2990.164 					"/>
					<polygon fill="#001D4F" points="313.098,-3051.41 266.997,-3042.033 267.032,-3052.23 					"/>
					<path fill="#CD6DFF" d="M266.195-3052.23l46.902,0.82c0,0,0.627-37.405-6.227-80.145c-0.732-4.557-3.768-12.986-14.085-11.93
						c-9.357,0.958-15.126,11.957-19.099,26.737C267.296-3092.964,266.195-3052.23,266.195-3052.23z"/>
				</g>
				<path fill="#FBFFFF" d="M288.201-3142.058l0.985-5.873c0,0,9.62,0.822,14.759,7.473l0.51,2.8
					C304.455-3137.658,294.909-3140.992,288.201-3142.058z"/>
				<g>
					<path fill="#7F43D6" d="M305.102-3130.143c0,0-6.089-6.804-11.109-5.896c-9.799,1.775-10.443,12.436-5.791,18.524
						c0.572,0.747,1.457,1.69,2.582,2.782c19.763,19.121,50.102,22.094,73.654,7.901c5.457-3.284,11.346-6.988,17.569-11.12
						l-6.257-7.713l-12.879,4.979C343.323-3113.128,321.22-3116.747,305.102-3130.143L305.102-3130.143z"/>
					<polygon fill="#CD6DFF" points="385.995,-3120.943 382.007,-3117.951 375.555,-3125.516 379.543,-3128.509 					"/>
				</g>
			</g>
			<path fill="#FFD5B6" d="M385.085-3131.281c0,0,6.307,0.086,9.57,0.562c0,0,6.821,0.196,8.4,0.672c0,0-0.569,2.587-3.502,3.339
				c-3.013,0.77-5.513,0.832-5.513,0.832s6.438,2.273,9.015,2.868c-1.886,1.579-3.321,2.065-3.321,2.065s-10.16,6.855-18.959-4.505
				C376.881-3130.479,385.085-3131.281,385.085-3131.281z"/>
		</g>
		<rect x="821.494" y="-3188.694" fill="#CD6DFF" width="63.207" height="63.206"/>
		<rect x="832.339" y="-3177.848" fill="#EFA2FF" width="41.516" height="41.514"/>
		<rect x="846.381" y="-3163.806" fill="#FFB8FF" width="13.431" height="13.429"/>
		<g>
			<path fill="#FFFFF8" d="M433.943-3151.219L433.943-3151.219c-6.727-3.545-9.328-11.947-5.783-18.67l21.953-41.667
				c3.545-6.723,11.947-9.325,18.67-5.781l0,0c6.726,3.542,9.327,11.944,5.785,18.67l-21.956,41.661
				C449.068-3150.279,440.668-3147.675,433.943-3151.219z"/>
			<path fill="#003DC0" d="M531.455-3203.79c9.266-17.582,4.132-38.879-11.172-50.532l0.027-0.038l-74.058-64.512l-28.919,54.881
				l-28.923,54.881l94.339,24.425C501.189-3178.207,522.073-3185.982,531.455-3203.79z"/>
			<path fill="#FFD222" d="M442.909-3250.452c-18.688,35.459-45.296,58.165-59.437,50.715c-14.137-7.452-10.452-42.235,8.232-77.695
				c18.688-35.459,45.299-58.165,59.436-50.715C465.279-3320.697,461.594-3285.911,442.909-3250.452z"/>
			
				<ellipse transform="matrix(0.8847 0.4662 -0.4662 0.8847 -1476.1798 -568.1101)" fill="#F68E00" cx="410.172" cy="-3267.703" rx="17.156" ry="53.703"/>
			<path fill="#FF2E20" d="M407.322-3290.441c-8.676-2.868-18.396,0.842-22.799,9.192c-4.457,8.458-1.895,18.728,5.593,24.212
				l21.61,18.825c4.67-6.082,9.347-13.375,13.623-21.493c4.299-8.151,7.684-16.17,10.06-23.487l-28.08-7.27L407.322-3290.441z"/>
			<g>
				<path fill="#FFD222" d="M443.802-3335.88L443.802-3335.88c-3.407,0-6.194-2.787-6.194-6.194v-31.98
					c0-3.404,2.787-6.191,6.194-6.191l0,0c3.404,0,6.191,2.788,6.191,6.191v31.98C449.993-3338.667,447.206-3335.88,443.802-3335.88
					z"/>
				<path fill="#FFD222" d="M462.504-3332.009L462.504-3332.009c-2.95-1.702-3.971-5.512-2.266-8.46l12.826-21.387
					c1.705-2.948,5.51-3.971,8.461-2.266l0,0c2.949,1.705,3.97,5.51,2.266,8.46l-12.827,21.385
					C469.262-3331.325,465.454-3330.307,462.504-3332.009z"/>
				<path fill="#FFD222" d="M423.676-3332.009L423.676-3332.009c2.95-1.702,3.971-5.512,2.269-8.46l-11.968-20.906
					c-1.701-2.951-5.51-3.971-8.459-2.266l0,0c-2.951,1.705-3.971,5.51-2.267,8.46l11.964,20.903
					C416.92-3331.325,420.725-3330.307,423.676-3332.009z"/>
			</g>
		</g>
		<g>
			<g>
				<g>
					<path fill="#CD6DFF" d="M476.416-3068.368l-44.904,44.902l58.549-24.638C486.703-3055.652,482.066-3062.498,476.416-3068.368z"
						/>
					<path fill="#FF2E20" d="M430.158-3105.189v76.527l54.111-54.115C470.18-3096.336,451.161-3104.791,430.158-3105.189z"/>
					<path fill="#00A1FF" d="M425.641-3016.713h-0.002c-0.158,0-0.313-0.037-0.462-0.088c-0.018-0.01-0.04-0.01-0.06-0.018
						c-0.028-0.012-0.051-0.035-0.08-0.05c-0.104-0.053-0.198-0.115-0.286-0.193c-0.035-0.03-0.07-0.055-0.103-0.09
						c-0.104-0.11-0.193-0.235-0.256-0.382c-0.003-0.004-0.008-0.01-0.008-0.015c0,0,0,0-0.002,0c0,0,0-0.005,0-0.007
						c-0.07-0.166-0.105-0.344-0.105-0.52l0,0c0,0,0-0.002,0-0.005v-70.442c-38.295,0.729-69.12,31.978-69.12,70.447
						c0,38.924,31.555,70.48,70.481,70.48c38.467,0,69.718-30.824,70.445-69.119H425.641z"/>
					<path fill="#FFE622" d="M511.151-3048.607l-58.731,24.715h63.699C515.954-3032.613,514.207-3040.939,511.151-3048.607z"/>
				</g>
				<g>
					<g>
						<path fill="#00D7FF" d="M494.577-3084.832c-0.409,0-0.817-0.17-1.108-0.506c-27.633-31.532-69.455-27.755-69.876-27.725
							c-0.777,0.098-1.532-0.509-1.612-1.318c-0.082-0.807,0.51-1.531,1.316-1.611c0.438-0.049,43.739-3.984,72.389,28.713
							c0.536,0.612,0.476,1.545-0.139,2.081C495.27-3084.955,494.923-3084.832,494.577-3084.832z"/>
					</g>
					<g>
						<path fill="#00D7FF" d="M423.53-3109.367c-0.8,0-1.452-0.637-1.472-1.441l-0.195-8.471c-0.018-0.816,0.624-1.488,1.438-1.509
							c0.84,0.024,1.486,0.626,1.507,1.438l0.195,8.473c0.018,0.813-0.624,1.486-1.438,1.51
							C423.555-3109.367,423.543-3109.367,423.53-3109.367z"/>
					</g>
					<g>
						<path fill="#00D7FF" d="M491.83-3081.738c-0.416,0-0.827-0.174-1.118-0.512c-0.529-0.617-0.462-1.547,0.155-2.081l6.287-5.419
							c0.609-0.524,1.549-0.464,2.078,0.155c0.528,0.616,0.461,1.546-0.156,2.081l-6.286,5.419
							C492.514-3081.859,492.171-3081.738,491.83-3081.738z"/>
					</g>
				</g>
			</g>
		</g>
		<g>
			<g>
				<path fill="#00285C" d="M542.914-2946.388l-55.627-2.446l-16.047,90.098l7.176,0.17c0,0,20.102-39.337,15.955-60.1l12.386-8.836
					L542.914-2946.388z"/>
				<g>
					<path fill="#002D71" d="M573.977-2925.683c0,0-8.393,16.597-39.861,13.056c-31.467-3.54-51.247-8.523-51.247-8.523
						s1.108,20.35-44.995,61.625l-6.785-0.161l41.433-80.094l70.394-6.607L573.977-2925.683z"/>
					<path fill="#003373" d="M567.545-2918.955c-8.253-8.969-24.631-27.433-24.631-27.433l31.063,20.705
						C573.977-2925.683,572.167-2922.098,567.545-2918.955z"/>
					<polygon fill="#001329" points="438.066,-2859.521 437.868,-2851.133 413.874,-2851.7 430.89,-2859.691 					"/>
					<ellipse opacity="0.09" fill="#008DCA" cx="467.013" cy="-2851.133" rx="15.785" ry="5.875"/>
					<ellipse opacity="0.09" fill="#008DCA" cx="426.853" cy="-2851.133" rx="15.783" ry="5.875"/>
					<polygon fill="#001329" points="478.52,-2858.563 478.321,-2850.176 453.818,-2850.758 471.34,-2858.734 					"/>
				</g>
				<g>
					<path fill="#FFD222" d="M552.475-3013.875c0,0-32.385,6.27-53.381-14.933l-4.765,8.478c0,0,16.256,25.693,63.261,24.919
						C557.59-2995.411,561.546-3004.202,552.475-3013.875z"/>
					<path opacity="0.6" fill="#FFB819" d="M550.985-3013.64c0.699-0.098,1.165-0.178,1.366-0.213l0.186,0.05
						c2.817,3.028,4.366,5.961,5.164,8.568l-0.695,2.055l-5.43,7.706c-0.183-0.011-0.363-0.015-0.543-0.021l-7.114-0.49
						c-0.123-0.011-0.246-0.025-0.368-0.041C550.589-3003.142,551.008-3011.406,550.985-3013.64z"/>
					<path fill="#FFD5B6" d="M495.191-3030.673l-6.498-8.087l-19.654-5.354c0,0-2.078,3.785,11.852,7.196l-2.016,3.948l2.91,6.572
						l7.794,1.504l1.424,1.908L495.191-3030.673z"/>
					<polygon fill="#FFB722" points="488.235,-3023.508 496.646,-3032.172 501.408,-3027.99 493.156,-3019.094 					"/>
				</g>
				<path fill="#FFE622" d="M542.871-2946.455l8.873-64.084c0,0-0.335-11.525,11.725-17.118c0,0-3.038,3.071,9.156,5.593
					c14.148,2.928,18.936,67.811,1.352,96.382L542.871-2946.455z"/>
				<path opacity="0.68" fill="#FFD222" d="M544.904-2961.145l3.176-22.929c4.875-7.239,7.771-15.206,10.388-22.364
					c4.9-13.401,13.476-10.117,16.717-7.32c5.353,4.62,4.54,12.218-0.36,22.912C567.502-2974.869,556.028-2966.022,544.904-2961.145
					z"/>
				<g>
					<g>
						<path fill="#DFF2FF" d="M476.033-3004.439l-13.953,25.796c-0.787,1.458,0.075,3.267,1.707,3.567l42.226,8.337
							c1.712,0.315,3.435-0.499,4.276-2.022l13.621-24.701c0.446-0.813,0-1.83-0.899-2.049l-43.461-10.49
							C478.158-3006.343,476.712-3005.701,476.033-3004.439z"/>
						<path fill="#0049D1" d="M476.8-3002.617l-12.429,23.139c-0.416,0.77,0.041,1.725,0.902,1.883l40.378,8.277
							c1.139,0.205,2.281-0.336,2.841-1.35l12.293-22.284c0.237-0.437,0-0.978-0.482-1.098l-40.475-9.911
							C478.63-3004.258,477.387-3003.703,476.8-3002.617z"/>
						<path fill="#FF2E20" d="M513.362-2990.887l-10.175,17.822c0,0-16.933-5.361-16.469-8.028
							c0.464-2.665,13.599,0.864,15.384-0.784c1.787-1.65-15.241-5.991-13.762-9.608
							C489.261-2993.739,497.074-2995.689,513.362-2990.887z"/>
					</g>
					<path fill="#FFD5B6" d="M494.406-2964.992c0,0-11.954,0.627-18.559-7.961l12.518-0.083l-7.086-2.264
						c0,0,1.002-2.462,5.449-1.171l4.347,1.219c0,0,3.88-0.489,5.603,2.8L494.406-2964.992z"/>
					<path fill="#FFE622" d="M501.045-2970.688l-1.896,7.354l-4.743-1.659c0,0-0.434-4.988,2.271-7.46L501.045-2970.688z"/>
					<path fill="#FFB819" d="M576.29-3012.88c-2.883-3.56-12.501-6.714-18.256,7.43c-6.886,16.92-18.31,34.708-56.989,34.763
						l-1.896,7.354c0,0,44.486,17.437,72.434-25.487C578.451-2999.369,581.058-3007.004,576.29-3012.88z"/>
				</g>
				<g>
					<path fill="#181F47" d="M569.066-3062.543c-2.692-7.139-13.657-7.347-21.911-4.08c-0.025,1.659,3.088,4.807,2.549,6.412
						c-0.431,2.757-1.521,5.259-3.276,7.504c-0.576,0.863-1.232,1.63-1.93,2.347l11.733,11.81l8.007,4.695l4.462-3.484
						C579.952-3052.736,569.066-3062.543,569.066-3062.543z"/>
					<circle fill="#181F47" cx="547.175" cy="-3058.647" r="10.526"/>
					<path fill="#FFA28E" d="M544.037-3047.533c0,0-2.793,3.47-2.211,11.01l6.643-1.067L544.037-3047.533z"/>
					<polyline fill="#FFFFFF" points="544.791,-3034.789 546.16,-3030.945 551.657,-3032.658 551.737,-3035.906 551.088,-3037.436 
											"/>
					<path fill="#FFD5B6" d="M564.757-3039.765c0,0-2.651,1.71-4.054-2.401c0,0,5.009-1.902,3.525-5.537
						c-1.234-3.018-5.009-1.328-5.828,1.574l0.578,3.6c0,0-1.396-0.604-2.865-7.455l-2.403-2.68l-9.302,2.217
						c0,0-1.908,7.379,0.383,15.658l5.558-0.893c0,0-0.459,3.305-4.188,4.736c0.621,1.557,0.982,2.186,1.984,3.709l8.175-1.315
						l0.96,5.971l5.031,1.368l4.249,0.633l3.188-2.129l0.566-4.595l-1.614-10.036C568.7-3037.34,566.814-3037.14,564.757-3039.765z"
						/>
					<path fill="#FFBB00" d="M556.894-3024.987l-3.216,6.898c0,0,13.346,0.637,18.947-3.976l-2.311-5.239
						C570.314-3027.304,563.18-3024.015,556.894-3024.987z"/>
				</g>
			</g>
		</g>
		<g>
			<g>
				<g>
					<path fill="#BBEAFF" d="M942.372-2940.102l-3.896,2.316c-3.371-3.123-10.545-5.279-18.855-5.279
						c-8.307,0-15.483,2.156-18.853,5.279l-3.897-2.186l1.99,12.566l0.005,0.002c1.208,4.623,10.036,8.217,20.755,8.217
						s19.548-3.592,20.756-8.217l0.01-0.002L942.372-2940.102z"/>
					<path fill="#C8F1FF" d="M902.223-2931.127v4.878c0,0,3.233,3.048,11.122,3.494v-4.878
						C913.345-2927.633,906.89-2928.104,902.223-2931.127z"/>
					<path fill="#C8F1FF" d="M933.396-2929.537l-0.429,5.363c3.008-1.127,4.59-2.768,4.59-2.768l0.682-5.09
						C936.707-2930.901,935.005-2930.117,933.396-2929.537z"/>
					<ellipse fill="#DAFAFF" cx="919.622" cy="-2940.102" rx="22.75" ry="10.123"/>
					<ellipse fill="#ADDFFF" cx="919.621" cy="-2941.131" rx="19.201" ry="8.545"/>
				</g>
			</g>
			<path fill="#00FBED" d="M904.376-2963.365c0,0-12.739-32.404-7.505-38.887c5.236-6.482,16.256,29.81,16.256,29.81
				s-2.269-29.413,3.24-30.584c5.51-1.171,7.132,14.065,7.132,14.065s5.51-14.645,10.047-14.128c4.54,0.517-2.269,24.5-2.269,24.5
				s3.424-7.524,7.545-8.462c4.124-0.938-6.572,36.825-6.572,36.825l-13.117-1.832"/>
			<path fill="#ED2C51" d="M904.33-2940.102c0,0-9.78-5.163-8.858-10.124c0.923-4.96,10.017,1.718,10.017,1.718
				s-17.096-22.852,7.565-36.447c22.255-12.273,17.838,33.373,17.838,33.373s5.023-6.214,10.117-4.873
				c6.569,1.73-6.081,16.354-6.081,16.354S924.249-2939.148,904.33-2940.102z"/>
			<path fill="#C71E44" d="M909.299-2937.229c0,0-8.852-5.364-6.332-8.322c2.521-2.957,7.601,2.486,7.601,2.486
				s-8.142-19.853-2.354-24.916c5.79-5.066,11.407,17.755,11.407,17.755s0.171-15.042,5.417-15.224
				c5.247-0.18,1.63,20.986,1.63,20.986s4.161-14.293,7.778-13.932c3.617,0.363-3.076,16.824-3.076,16.824s1.817-3.188,4.148-2.712
				c2.331,0.477-3.063,7.054-3.063,7.054S923.141-2933.122,909.299-2937.229z"/>
		</g>
		<g>
			<g>
				<ellipse opacity="0.09" fill="#008DCA" cx="355.036" cy="-2870.793" rx="24.862" ry="11.064"/>
				<path fill="#BBEAFF" d="M379.648-2901.127l-4.006,0.942c-3.683-3.417-11.526-5.775-20.607-5.775
					c-9.08,0-16.921,2.358-20.605,5.772l-4-0.939l1.917,29.4h0.005c1.321,5.057,10.97,8.982,22.684,8.982
					c11.716,0,21.364-3.926,22.686-8.979l0.01-0.003L379.648-2901.127z"/>
				<path fill="#C8F1FF" d="M338.721-2875.844v4.875c0,0,3.977,2.163,11.123,2.113v-4.879
					C349.844-2873.734,343.938-2873.332,338.721-2875.844z"/>
				<ellipse fill="#DAFAFF" cx="355.036" cy="-2902.721" rx="24.862" ry="11.064"/>
				<path fill="#ADDFFF" d="M374.451-2903.844c0,4.772-8.693,8.638-19.416,8.638c-10.722,0-19.415-3.865-19.415-8.638
					c0-4.773,8.693-8.639,19.415-8.639C365.758-2912.482,374.451-2908.617,374.451-2903.844z"/>
			</g>
			<g>
				<g>
					<path fill="#FFCC00" d="M354.152-2901.495l-45.11-41.405c0,0-0.381,9.267,5.74,14.18c6.121,4.916,11.06,3.184,11.819,10.887
						c0.762,7.703,5.948,12.105,10.506,12.776C346.419-2903.688,348.58-2898.715,354.152-2901.495z"/>
					<path fill="#FFBD00" d="M354.154-2901.495l-45.112-41.408c0,0,9.202-1.171,14.622,4.507c5.419,5.68,4.115,10.749,11.856,10.847
						c7.74,0.098,12.568,4.891,13.626,9.375C351.308-2909.016,356.446-2907.288,354.154-2901.495z"/>
				</g>
				<path fill="#00FBED" d="M355.035-2900.889v-155.407c0,0-17.983,15.192-16.668,35.068c1.316,19.878,13.03,26.143-0.067,40.784
					c-13.097,14.645-12.425,31.893-5.855,41.566C345.86-2919.117,340.273-2906.541,355.035-2900.889z"/>
				<path fill="#00EEEE" d="M355.037-2900.889v-155.407c0,0,17.983,15.192,16.667,35.068c-1.318,19.878-13.029,26.143,0.067,40.784
					c13.098,14.645,12.426,31.893,5.855,41.566C364.209-2919.117,369.797-2906.541,355.037-2900.889z"/>
			</g>
			<g>
				<path fill="#ED2C51" d="M361.432-2900.666l32.182-96.809c0,0-14.349,5.738-17.646,18.395
					c-3.296,12.654,2.705,18.98-8.487,25.393c-11.189,6.407-14.344,17.291-12.255,24.679
					C359.494-2913.921,353.408-2907.243,361.432-2900.666z"/>
				<path fill="#C71E44" d="M361.435-2900.666l32.179-96.809c0,0,8.056,13.186,3.12,25.298
					c-4.936,12.107-13.528,13.587-8.399,25.418c5.126,11.834,1.135,22.44-4.961,27.107
					C370.925-2910.121,371.8-2901.129,361.435-2900.666z"/>
			</g>
		</g>
		<g>
			<path fill="#FAC83D" d="M921.416-3077.348H806.728c-2.815,0-5.096-2.281-5.096-5.094v-59.623c0-2.813,2.28-5.097,5.096-5.097
				h114.688c2.815,0,5.099,2.284,5.099,5.097v59.623C926.515-3079.629,924.231-3077.348,921.416-3077.348z"/>
			<path fill="#FBB03D" d="M803.958-3078.969l54.729-42.08c3.188-2.449,7.612-2.486,10.841-0.09l55.539,41.209
				c-1.191,1.535-2.969,2.582-5.062,2.582H808.139C806.524-3077.348,805.096-3077.994,803.958-3078.969z"/>
			<path opacity="0.39" fill="#FBB03D" d="M803.968-3145.408l54.962,45.41c3.201,2.643,7.628,2.683,10.842,0.101l55.307-44.474
				c-1.197-1.654-2.98-2.787-5.073-2.787H808.139C806.524-3147.158,805.099-3146.461,803.968-3145.408z"/>
			<path fill="#FAD93D" d="M803.958-3145.537l54.729,42.08c3.188,2.449,7.612,2.486,10.841,0.09l55.539-41.209
				c-1.191-1.535-2.969-2.582-5.062-2.582H808.139C806.524-3147.158,805.096-3146.512,803.958-3145.537z"/>
			<circle fill="#FF2E20" cx="925.065" cy="-3147.161" r="20.27"/>
			<circle fill="#C82521" cx="925.064" cy="-3147.161" r="15.026"/>
			
				<text transform="matrix(0.9091 0 0 1 916.8838 -3136.334)" fill="#FFFFF8" font-family="'Quicksand-Bold'" font-size="29.8608" letter-spacing="12.1">3</text>
		</g>
	</g>
	<path fill="#0066EF" d="M720.445-3457.677c0,0,0.677-15.354-10.624-15.862c-11.222-0.509-13.272,9.571-12.739,19.728
		c0.131,2.482,0.432,6.525,0.813,11.19l22.162-1.406L720.445-3457.677z"/>
</g>
<image overflow="visible" width="300" height="104" xlink:href="6543A4E3.jpg"  transform="matrix(1 0 0 1 1889 -2448)">
</image>
<linearGradient id="SVGID_3_" gradientUnits="userSpaceOnUse" x1="4959.5566" y1="-1247.5664" x2="6132.0615" y2="-1066.9611" gradientTransform="matrix(0.9359 -0.3522 0.3522 0.9359 -961.7789 1139.8811)">
	<stop  offset="0" style="stop-color:#F37621"/>
	<stop  offset="0.063" style="stop-color:#EF6F21"/>
	<stop  offset="0.469" style="stop-color:#D54A23"/>
	<stop  offset="0.7955" style="stop-color:#C53325"/>
	<stop  offset="1" style="stop-color:#BF2A25"/>
</linearGradient>
<path fill="url(#SVGID_3_)" d="M4317.216-2769.258l-224.116-5.985l-442.398,104.912l-194.868,73.34l-340.271,256.845
	c0,0-45.845,190.799,260.862,312.761c96.696,38.455,190.277,59.867,263.801,86.885c142.376,52.317,192.713,106.683,202.59,173.614
	c23.908,162.019-242.316,313.725-448.585,353.039c-99.094,65.75-5.853,197.988-5.853,197.988l322.302-97.493
	c-16.56,29.316-31.105,56.819-40.678,82.474c141.432,299.513,571.248,5.388,571.248,5.388l386.221-284.968l84.206-134.348
	l0.981-193.777l-148.38-448.797l-109.315-290.452L4317.216-2769.258z"/>
<linearGradient id="SVGID_4_" gradientUnits="userSpaceOnUse" x1="1882.1191" y1="-3026.7729" x2="2856.6975" y2="-3231.541" gradientTransform="matrix(2.7078 0.7208 -0.3819 1.4348 -5037.8096 -768.9414)">
	<stop  offset="0" style="stop-color:#F37621"/>
	<stop  offset="0.063" style="stop-color:#EF6F21"/>
	<stop  offset="0.469" style="stop-color:#D54A23"/>
	<stop  offset="0.7955" style="stop-color:#C53325"/>
	<stop  offset="1" style="stop-color:#BF2A25"/>
</linearGradient>
<polygon opacity="0.3" fill="url(#SVGID_4_)" points="3956.179,-2226.21 1270.026,-2941.265 1761.971,-4789.287 4448.125,-4074.232 
	"/>
<g>
	<g>
		<g opacity="0.335">
			<image overflow="visible" width="2065" height="1348" xlink:href="6543A4E1.png"  transform="matrix(1 0 0 1 -20 -2329)">
			</image>
		</g>
		<linearGradient id="SVGID_5_" gradientUnits="userSpaceOnUse" x1="40.4761" y1="-1116.2568" x2="1953.9656" y2="-2285.7368">
			<stop  offset="0" style="stop-color:#EC008C"/>
			<stop  offset="0.601" style="stop-color:#F15A29"/>
			<stop  offset="0.6578" style="stop-color:#F36B2E"/>
			<stop  offset="0.8008" style="stop-color:#F79038"/>
			<stop  offset="0.9161" style="stop-color:#FAA83E"/>
			<stop  offset="0.9885" style="stop-color:#FBB040"/>
		</linearGradient>
		<rect x="-18.053" y="-2326.998" fill="url(#SVGID_5_)" width="1992.317" height="1275.367"/>
		<linearGradient id="SVGID_6_" gradientUnits="userSpaceOnUse" x1="-266.6235" y1="-1803.9336" x2="443.7613" y2="-2027.3828">
			<stop  offset="0" style="stop-color:#EC008C"/>
			<stop  offset="0.601" style="stop-color:#F15A29"/>
			<stop  offset="0.9885" style="stop-color:#FBB040"/>
		</linearGradient>
		<path opacity="0.25" fill="url(#SVGID_6_)" d="M-18.053-1843.584c14.175,1.071,28.32,2.548,42.407,4.682
			c79.573,12.036,157.508,45.164,223.95,95.181c43.373,32.656,82.079,72.43,128.688,99.642
			c66.338,38.688,150.241,47.888,212.398,11.645c62.155-36.244,93.676-122.309,60.967-192.409
			c-27.498-59.005-89.499-94.157-127.938-147.013c-32.631-44.861-45.973-99.188-52.731-152.094
			c-6.083-47.543-0.254-86.348-34.165-127.941c-25.151-30.85-61.078-51.628-98.342-61.9c-21.97-6.041-44.961-8.875-67.369-13.205
			H-18.053V-1843.584z"/>
		<g>
			<linearGradient id="SVGID_7_" gradientUnits="userSpaceOnUse" x1="1971.29" y1="-2492.7466" x2="1159.4587" y2="-1523.0122">
				<stop  offset="0" style="stop-color:#EC008C"/>
				<stop  offset="1" style="stop-color:#F15A29"/>
			</linearGradient>
			<path fill="url(#SVGID_7_)" d="M1974.251-2327.013v1073.558c-160.298,71.328-363.015,40.352-492.216-79.295
				c-40.047-37.124-74.247-82.157-122.387-107.991c-105.557-56.688-255.175-9.283-341.228-92.625
				c-74.369-71.996-54.562-198.854-110.093-286.185c-24.068-37.915-56.477-70.474-91.835-98.195
				c-128.985-101.021-142.041-329.756-12.993-409.267H1974.251z"/>
			<linearGradient id="SVGID_8_" gradientUnits="userSpaceOnUse" x1="1949.5938" y1="-2456.2075" x2="1137.7625" y2="-1486.4731">
				<stop  offset="0" style="stop-color:#EC008C"/>
				<stop  offset="0.601" style="stop-color:#F15A29"/>
				<stop  offset="0.9885" style="stop-color:#FBB040"/>
			</linearGradient>
			<path opacity="0.25" fill="url(#SVGID_8_)" d="M1944.476-2297.237l29.788,1065.267
				c-160.301,71.327-392.807,48.643-522.007-71.004c-40.044-37.124-74.244-82.157-122.384-107.991
				c-105.557-56.688-255.175-9.283-341.228-92.625c-74.372-71.996-54.559-198.854-110.093-286.185
				c-24.071-37.913-56.477-70.474-91.832-98.193c-128.988-101.023-112.269-359.533,16.779-439.044L1944.476-2297.237z"/>
		</g>
		<g>
			<text transform="matrix(1 0 0 1 -818.8965 -2509.7891)"><tspan x="0" y="0" fill="#FFFFFF" font-family="'OpenSans-Light'" font-size="66.8274">We create high quality </tspan><tspan x="0" y="74.584" fill="#FFFFFF" font-family="'OpenSans-Bold'" font-size="62.1533">digital advertising</tspan></text>
			<g>
				<rect x="-809.633" y="-2385.49" fill="none" width="688.021" height="122.279"/>
				<text transform="matrix(1 0 0 1 -809.6348 -2365.4297)"><tspan x="0" y="0" fill="#FFFFFF" font-family="'SourceSansRoman-Regular'" font-size="28.2515">You must be able to convey information via phone, email, </tspan><tspan x="0" y="45.202" fill="#FFFFFF" font-family="'SourceSansRoman-Regular'" font-size="28.2515">and in person. You want to make sure your tone is always </tspan><tspan x="0" y="90.404" fill="#FFFFFF" font-family="'SourceSansRoman-Regular'" font-size="28.2515">professional but friendly. </tspan></text>
			</g>
			<path opacity="0.49" fill="none" stroke="#FFFFFF" stroke-width="0.6" stroke-miterlimit="10" d="M-571.257-2145.726h-211.58
				c-19.915,0-36.057-16.143-36.057-36.057l0,0c0-19.914,16.143-36.057,36.057-36.057h211.58c19.915,0,36.057,16.143,36.057,36.057
				l0,0C-535.201-2161.868-551.343-2145.726-571.257-2145.726z"/>
			
				<text transform="matrix(1 0 0 1 -753.9243 -2172.7871)" fill="#FFFFFF" font-family="'OpenSans-Bold'" font-size="20.0482" letter-spacing="4">READ MORE</text>
		</g>
		<rect x="103.026" y="-1295.506" fill="#FFFFFF" width="62.2" height="5.988"/>
		<rect x="171.406" y="-1295.506" opacity="0.35" fill="#FFFFFF" width="62.201" height="5.988"/>
		<rect x="239.787" y="-1295.506" opacity="0.35" fill="#FFFFFF" width="62.2" height="5.988"/>
	</g>
	<g>
		<g>
			<path fill="#FFFFFF" stroke="#FFFFFF" stroke-width="0.5" stroke-miterlimit="10" d="M2957.813-1262.045h-842.945
				c-8.794,0-15.989-7.197-15.989-15.992v-317.653c0-8.798,7.195-15.993,15.989-15.993h842.945c8.794,0,15.992,7.195,15.992,15.993
				v317.653C2973.806-1269.242,2966.607-1262.045,2957.813-1262.045z"/>
			<g>
				<path fill="#E8F1F8" d="M2913.605-1522.541h-755.821c-10.948,0-19.82-8.873-19.82-19.82l0,0c0-10.947,8.872-19.82,19.82-19.82
					h755.821c10.944,0,19.819,8.873,19.819,19.82l0,0C2933.425-1531.414,2924.55-1522.541,2913.605-1522.541z"/>
				<path fill="#00AEEF" d="M2756.44-1522.541h-598.656c-10.948,0-19.82-8.873-19.82-19.82l0,0c0-10.947,8.872-19.82,19.82-19.82
					h598.656c10.947,0,19.823,8.873,19.823,19.82l0,0C2776.264-1531.414,2767.388-1522.541,2756.44-1522.541z"/>
				<path fill="#E8F1F8" d="M2913.605-1453.488h-755.821c-10.948,0-19.82-8.873-19.82-19.821l0,0
					c0-10.946,8.872-19.819,19.82-19.819h755.821c10.944,0,19.819,8.873,19.819,19.819l0,0
					C2933.425-1462.361,2924.55-1453.488,2913.605-1453.488z"/>
				<path fill="#81BC00" d="M2437.522-1453.488h-279.738c-10.948,0-19.82-8.873-19.82-19.821l0,0
					c0-10.946,8.872-19.819,19.82-19.819h279.738c10.944,0,19.82,8.873,19.82,19.819l0,0
					C2457.343-1462.361,2448.467-1453.488,2437.522-1453.488z"/>
				<path fill="#E8F1F8" d="M2913.605-1384.436h-755.821c-10.948,0-19.82-8.873-19.82-19.821l0,0
					c0-10.946,8.872-19.819,19.82-19.819h755.821c10.944,0,19.819,8.873,19.819,19.819l0,0
					C2933.425-1393.309,2924.55-1384.436,2913.605-1384.436z"/>
				<path fill="#E8F1F8" d="M2913.605-1311.547h-755.821c-10.948,0-19.82-8.873-19.82-19.822l0,0
					c0-10.945,8.872-19.818,19.82-19.818h755.821c10.944,0,19.819,8.873,19.819,19.818l0,0
					C2933.425-1320.42,2924.55-1311.547,2913.605-1311.547z"/>
				<path fill="#FF8931" d="M2521.918-1311.547h-364.134c-10.948,0-19.82-8.873-19.82-19.822l0,0
					c0-10.945,8.872-19.818,19.82-19.818h364.134c10.947,0,19.823,8.873,19.823,19.818l0,0
					C2541.741-1320.42,2532.865-1311.547,2521.918-1311.547z"/>
				<path fill="#FFBC00" d="M2230.364-1384.436h-72.58c-10.948,0-19.82-8.873-19.82-19.821l0,0c0-10.946,8.872-19.819,19.82-19.819
					h72.58c10.947,0,19.819,8.873,19.819,19.819l0,0C2250.184-1393.309,2241.312-1384.436,2230.364-1384.436z"/>
				<g>
					<circle fill="#81BC00" cx="2512.477" cy="-1473.31" r="19.661"/>
				</g>
				<g>
					<circle fill="#FFBC00" cx="2301.482" cy="-1404.257" r="19.66"/>
				</g>
				<g>
					<circle fill="#FF8931" cx="2591.12" cy="-1331.369" r="19.662"/>
				</g>
			</g>
		</g>
		<g>
			<g>
				<g>
					<g>
						<path opacity="0.1" fill="#7F1E00" d="M3074.5-914.357v0.029c0,5.805-4.853,10.514-10.837,10.525l-287.729,0.572
							l-161.919,0.328c-6.001,0.014-10.886-4.695-10.898-10.512l-0.604-288.967c-0.014-5.807,4.839-10.543,10.84-10.559
							l449.648-0.898c6.001-0.014,10.883,4.693,10.898,10.516l0.029,11.256L3074.5-914.357z"/>
						<path fill="#E8F1F8" d="M3062.276-1220.852l-447.736,0.924c-6.529,0.012-11.813,5.318-11.799,11.848l0.02,10.283
							l471.384-0.973l-0.02-10.283C3074.112-1215.584,3068.806-1220.867,3062.276-1220.852z"/>
					</g>
					<g>
						<path fill="#FFFFFF" d="M3079.646-919.795v0.027c0,5.809-4.855,10.516-10.84,10.529l-287.729,0.57l-161.919,0.33
							c-6.001,0.014-10.883-4.695-10.898-10.516l-0.604-288.965c-0.014-5.807,4.839-10.543,10.84-10.557l449.648-0.898
							c6.001-0.016,10.883,4.693,10.898,10.514l0.029,11.256L3079.646-919.795z"/>
						<path fill="#50A4FF" d="M3067.419-1226.289l-447.736,0.922c-6.529,0.016-11.813,5.32-11.799,11.852l0.02,10.279l471.387-0.971
							l-0.022-10.283C3079.255-1221.02,3073.948-1226.303,3067.419-1226.289z"/>
					</g>
					<circle fill="#F43434" cx="2629.93" cy="-1214.528" r="3.81"/>
					<circle fill="#FFC950" cx="2646.056" cy="-1214.562" r="3.81"/>
					<circle fill="#42FCEA" cx="2662.182" cy="-1214.595" r="3.81"/>
				</g>
				<g>
					<rect x="2646.055" y="-933.209" fill="#D6F2FE" width="376.978" height="8.67"/>
					<rect x="2646.055" y="-933.209" fill="#BACEDB" width="199.725" height="8.67"/>
					<path fill="#C62C2C" d="M2850.98-928.748c0,3.289-2.417,5.951-5.399,5.951c-2.986,0-5.404-2.662-5.404-5.951
						c0-3.285,2.418-5.951,5.404-5.951C2848.563-934.699,2850.98-932.033,2850.98-928.748z"/>
				</g>
				<g>
					<rect x="2646.055" y="-1174.424" fill="#E8F1F8" width="231.03" height="113.447"/>
					<rect x="2890.5" y="-1174.424" fill="#E8F1F8" width="128.495" height="113.447"/>
					<rect x="2646.055" y="-1050.391" fill="#E8F1F8" width="372.94" height="91.332"/>
				</g>
				<g>
					<circle fill="#FEB80C" cx="2763.684" cy="-1112.373" r="30.02"/>
					<path fill="#FFFFFF" d="M2755.876-1120.201v15.656c0,2.045,2.326,3.221,3.975,2.006l10.627-7.828
						c1.354-0.994,1.354-3.018,0-4.016l-10.627-7.828C2758.202-1123.426,2755.876-1122.248,2755.876-1120.201z"/>
				</g>
			</g>
		</g>
	</g>
	<g>
		<path opacity="0.14" fill="#FFFFFF" d="M2469.037-814.361c0,5.342-96.4,9.674-215.313,9.674
			c-118.913,0-215.313-4.332-215.313-9.674c0-5.346,96.399-9.676,215.313-9.676C2372.637-824.037,2469.037-819.707,2469.037-814.361
			z"/>
		<g>
			<path fill="#FFE1BD" d="M2363.34-868.984c0,0-1.129,13.123-4.376,22.848c-3.36,6.404-2.728,8.791-2.728,8.791l26.438,5.826
				c0,0-9.643-9.139-0.567-35.453C2391.181-893.289,2363.34-868.984,2363.34-868.984z"/>
			<path fill="#183F5B" d="M2379.721-837.715c0,0,29.991,11.744,35.176,12.664c5.182,0.92,8.862,3.07,7.884,5.57
				c-0.979,2.498-22.375,8.029-33.609,7.143c-11.235-0.889-18.984-7.826-21.338-7.816c-2.355,0.01-14.628,3.498-20.906-0.289
				c-6.278-3.789,8.896-24.189,8.896-24.189S2372.444-832.273,2379.721-837.715z"/>
			<path fill="#FFFFFF" d="M2259.539-1011.398c0,0,135.492-32.225,152.47-27.23c16.98,4.994,15.982,43.943,9.988,85.891
				c-5.991,41.949-11.985,88.889-11.985,88.889s-29.962,8.99-68.913-4.992c0,0,24.97-95.879,36.955-122.848
				c0,0-100.379,48.539-151.314,45.676C2175.803-948.871,2259.539-1011.398,2259.539-1011.398z"/>
			<path fill="#FFE1BD" d="M2121.186-870.471c0,0-13.053-1.748-22.613-5.451c-6.238-3.658-8.653-3.139-8.653-3.139l-7.071,26.133
				c0,0,9.584-9.201,35.44,1.109C2144.147-841.51,2121.186-870.471,2121.186-870.471z"/>
			<path fill="#183F5B" d="M2089.175-855.588c0,0-9.173,15.973-10.337,21.109c-1.165,5.133,8.285,12.621,5.605,12.811
				c-25.582,1.799-23.657-14.713-21.063-25.68c2.711-11.473,8.715-18.594,8.813-20.943c0.105-2.352-2.799-14.777,1.283-20.869
				c4.082-6.09,23.742,10.029,23.742,10.029S2084.084-863.111,2089.175-855.588z"/>
			<path fill="#FFFFFF" d="M2186.407-1007.799c0,0-16.165,66.504,26.895,80.711c11.956,3.945,71.461-65.42,73.193-75.117
				c1.729-9.695-12.468-33.939-12.468-33.939S2198.181-1037.637,2186.407-1007.799z"/>
			<path fill="#FFFFFF" d="M2262.857-990.146c0,0,31.257,149.961,26.187,166.916c-5.074,16.957-44.022,15.777-85.939,9.586
				c-41.921-6.189-88.83-12.402-88.83-12.402s-8.85-30.004,5.312-68.889c0,0,95.765,25.418,122.675,37.527
				c0,0-53.497-90.148-50.4-141.072C2194.96-1049.402,2262.857-990.146,2262.857-990.146z"/>
		</g>
		<path fill="#FF0037" d="M2185.51-1269.586c0,0,1.766-32.93,15.34-41.764s49.889-12.047,61.046,3.213
			c11.159,15.26,23.076,81.521-31.407,90.057l-28.242,130.32c0,0-73.49-7.516-79.109-46.867
			c-5.622-39.355,27.841-57.664,27.841-57.664s-16.064-33.07,0.803-56.389C2168.646-1271.996,2185.51-1269.586,2185.51-1269.586z"/>
		<path fill="#183F5B" d="M2257.258-1202.658l38.55,10.367c0,0-4.281,32.467,0,42.105h-26.77c0,0-4.646,13.92-7.143,20.346
			c-2.497,6.424,18.162,92.188,21.376,112.535c0,0,12.536,30.285-99.278,9.18c0,0,3.661-19.982,18.651-49.967
			c14.993-29.984-45.083-99.859-45.083-99.859s18.336-56.219,50.438-59.697C2233.637-1220.43,2233.483-1209.051,2257.258-1202.658z"
			/>
		<path fill="#FFE1BD" d="M2255.118-1296.67c0,0,11.779,31.902,4.28,46.895c-7.495,14.992-25.699,12.852-25.699,12.852v34.266
			c0,0-1.856,1.779-5.084,1.965c-5.622,0.318-20.616-9.461-20.616-9.461v-79.242L2255.118-1296.67z"/>
		<path fill="#FFE1BD" d="M2152.583-1139.809c0,0-14.86,84.953-7.93,90.129c6.931,5.174,79.494,2.229,86.804,3.41
			c7.313,1.178,36.651,9.051,51.978-4.451c1.978-1.742-15.81-2.602-18.476-8.504c-2.666-5.9-10.396-7.764-10.396-7.764l-22.231,9.83
			c0,0-55.854-8.215-59.737-11.486c-3.886-3.273,13.33-72.162,13.33-72.162L2152.583-1139.809z"/>
		<path fill="#183F5B" d="M2149.555-1141.676c0,0,6.666-56.76,25.441-65.133c18.772-8.371,32.047,18.475,25.143,46.055
			c-6.901,27.578-8.703,37.693-8.703,37.693S2165.116-1122.109,2149.555-1141.676z"/>
		<path fill="#FF0037" d="M2256.615-1301.348c0,0-7.655,36.58-25.324,46.219c-17.67,9.637-4.32,33.33-21.164,51.023
			c-9.013,9.465-26.692-7.141-26.692-7.141l17.415-85.424L2256.615-1301.348z"/>
		<g>
			<g>
				<g>
					<g>
						<path opacity="0.1" fill="#7F1E00" d="M2552.336-1044.137h-298.115c-8.641,0-15.644-7.006-15.644-15.646v-140.32
							c0-8.643,7.003-15.646,15.644-15.646h298.115c8.641,0,15.644,7.004,15.644,15.646v140.32
							C2567.979-1051.143,2560.977-1044.137,2552.336-1044.137z"/>
					</g>
				</g>
			</g>
			<g>
				<g>
					<g>
						<path fill="#FFFFFF" d="M2559.019-1050.818h-298.115c-8.641,0-15.644-7.006-15.644-15.646v-140.322
							c0-8.641,7.003-15.646,15.644-15.646h298.115c8.641,0,15.644,7.006,15.644,15.646v140.322
							C2574.662-1057.824,2567.659-1050.818,2559.019-1050.818z"/>
					</g>
				</g>
			</g>
			<g>
				<g>
					<g>
						<g>
							<rect x="2276.565" y="-1112.432" fill="#FFD04D" width="14.348" height="36.021"/>
						</g>
					</g>
				</g>
				<g>
					<g>
						<g>
							<rect x="2308.896" y="-1144.055" fill="#00BFD8" width="14.351" height="67.645"/>
						</g>
					</g>
				</g>
				<g>
					<g>
						<g>
							<rect x="2341.229" y="-1137.061" fill="#FFD04D" width="14.352" height="60.65"/>
						</g>
					</g>
				</g>
				<g>
					<g>
						<g>
							<rect x="2373.563" y="-1171.305" fill="#00BFD8" width="14.351" height="94.895"/>
						</g>
					</g>
				</g>
				<g opacity="0.15">
					<g>
						<g>
							<rect x="2308.896" y="-1144.055" opacity="0.26" width="6.588" height="67.645"/>
						</g>
					</g>
				</g>
				<g opacity="0.15">
					<g>
						<g>
							<rect x="2276.565" y="-1112.432" opacity="0.26" width="6.585" height="36.021"/>
						</g>
					</g>
				</g>
				<g opacity="0.62">
					<g>
						<g>
							<rect x="2373.563" y="-1171.305" opacity="0.26" width="6.588" height="94.895"/>
						</g>
					</g>
				</g>
				<g opacity="0.15">
					<g>
						<g>
							<rect x="2341.229" y="-1137.061" opacity="0.26" width="6.588" height="60.65"/>
						</g>
					</g>
				</g>
				<g>
					<g>
						<g>
							<polygon fill="#D5DBDA" points="2395.507,-1066.494 2267.09,-1066.494 2267.09,-1203.236 2269.048,-1203.236 
								2269.048,-1068.453 2395.507,-1068.453 							"/>
						</g>
					</g>
				</g>
				<g>
					<g>
						<g>
							<polygon fill="#D5DBDA" points="2280.279,-1129.303 2278.971,-1130.76 2312.563,-1160.924 2343.681,-1154.166 
								2377.371,-1191.676 2378.83,-1190.367 2344.375,-1152.01 2313.125,-1158.797 							"/>
						</g>
					</g>
				</g>
				<g>
					<g>
						<g>
							<polygon fill="#D5DBDA" points="2381.47,-1184.822 2371.968,-1193.934 2384.233,-1197.217 							"/>
						</g>
					</g>
				</g>
				<g>
					<g>
						<g>
							<g>
								<rect x="2407.665" y="-1114.986" fill="#00BFD8" width="9.854" height="9.854"/>
							</g>
						</g>
					</g>
					<g>
						<g>
							<g>
								<rect x="2407.665" y="-1097.723" fill="#FFD04D" width="9.854" height="9.855"/>
							</g>
						</g>
					</g>
					<g>
						<g>
							<g>
								<rect x="2420.234" y="-1093.467" fill="#EFEFEF" width="31.237" height="5.6"/>
							</g>
						</g>
					</g>
					<g>
						<g>
							<g>
								<rect x="2420.234" y="-1110.732" fill="#EFEFEF" width="31.237" height="5.6"/>
							</g>
						</g>
					</g>
				</g>
				<g>
					<g>
						<g>
							<g>
								<rect x="2465.617" y="-1114.986" fill="#00BFD8" width="9.854" height="9.854"/>
							</g>
						</g>
					</g>
					<g>
						<g>
							<g>
								<rect x="2465.617" y="-1097.723" fill="#FFD04D" width="9.854" height="9.855"/>
							</g>
						</g>
					</g>
					<g>
						<g>
							<g>
								<rect x="2478.187" y="-1093.467" fill="#EFEFEF" width="31.234" height="5.6"/>
							</g>
						</g>
					</g>
					<g>
						<g>
							<g>
								<rect x="2478.187" y="-1110.732" fill="#EFEFEF" width="31.234" height="5.6"/>
							</g>
						</g>
					</g>
				</g>
				<g>
					<g>
						<g>
							<g>
								<rect x="2517.8" y="-1114.986" fill="#00BFD8" width="9.854" height="9.854"/>
							</g>
						</g>
					</g>
					<g>
						<g>
							<g>
								<rect x="2517.8" y="-1097.723" fill="#FFD04D" width="9.854" height="9.855"/>
							</g>
						</g>
					</g>
					<g>
						<g>
							<g>
								<rect x="2530.369" y="-1093.467" fill="#EFEFEF" width="20.554" height="5.6"/>
							</g>
						</g>
					</g>
					<g>
						<g>
							<g>
								<rect x="2530.369" y="-1110.732" fill="#EFEFEF" width="20.554" height="5.6"/>
							</g>
						</g>
					</g>
				</g>
				<g>
					<g>
						<g>
							<g>
								<rect x="2417.944" y="-1194.975" fill="#EFEFEF" width="132.979" height="2.572"/>
							</g>
						</g>
					</g>
					<g>
						<g>
							<g>
								<rect x="2409.085" y="-1188.748" fill="#EFEFEF" width="141.838" height="2.57"/>
							</g>
						</g>
					</g>
					<g>
						<g>
							<g>
								<rect x="2409.085" y="-1182.521" fill="#EFEFEF" width="141.838" height="2.57"/>
							</g>
						</g>
					</g>
					<g>
						<g>
							<g>
								<rect x="2409.085" y="-1176.297" fill="#EFEFEF" width="141.838" height="2.568"/>
							</g>
						</g>
					</g>
					<g>
						<g>
							<g>
								<rect x="2409.085" y="-1170.074" fill="#EFEFEF" width="141.838" height="2.572"/>
							</g>
						</g>
					</g>
					<g>
						<g>
							<g>
								<rect x="2409.085" y="-1163.848" fill="#EFEFEF" width="141.838" height="2.57"/>
							</g>
						</g>
					</g>
					<g>
						<g>
							<g>
								<rect x="2409.085" y="-1157.621" fill="#EFEFEF" width="141.838" height="2.57"/>
							</g>
						</g>
					</g>
					<g>
						<g>
							<g>
								<rect x="2409.085" y="-1151.398" fill="#EFEFEF" width="141.838" height="2.57"/>
							</g>
						</g>
					</g>
					<g>
						<g>
							<g>
								<rect x="2426.451" y="-1145.174" fill="#EFEFEF" width="124.472" height="2.572"/>
							</g>
						</g>
					</g>
				</g>
			</g>
		</g>
		<path fill="#FFE1BD" d="M2344.633-1053.436c0,0-8.086-10.322-13.424-11.996c-5.339-1.674-11.078-1.754-12.433,0.953
			c-1.354,2.713-3.031,14.82-1.834,16.814C2318.137-1045.67,2340.29-1042.162,2344.633-1053.436z"/>
	</g>
	<g>
		<g>
			<path fill="#0A1828" d="M2959.898-971.85c-0.47,2.65,4.543,9.656-2.185,15.549c-6.72,5.885-22.001,12.094-11.875,12.328
				c10.124,0.234,19.836-2.115,24.993-4.656c5.146-2.547,1.039-6.547,7.427-8.563c8.417-2.658,8.32-3.197,4.25-12.359
				C2976.906-982.156,2961.413-980.414,2959.898-971.85z"/>
			<path fill="#CCD6E7" d="M2893.559-1397.152c-3.512,9.115-4.353,19.064-2.227,28.621c4.214,18.973-0.581,20.244-0.581,20.244
				s-25.715,16.32-47.1,22.99c-15.327,4.77-28.388,3.963-28.025-12.959l0.011-0.232c0.028-1.027,0.054-2.012,0.079-2.969
				c0.721-38.031-7.21-39.967-9.164-82.553c-2.019-43.689,9.664-68.057,21.227-78.625c11.586-10.545,27.398-10.938,57.141-3.906
				c22.344,5.264,29.703,11.193,29.521,27.727c-0.058,5.496-0.948,12.166-2.404,20.354
				C2908.348-1437.654,2899.538-1412.678,2893.559-1397.152z"/>
			<path fill="#12374F" d="M2839.601-1490.721c0,0-23.179,75.975-18.541,112.367l8.537,15.535l9.336-16.941
				c0,0-7.591-72.76,6.939-109.676L2839.601-1490.721z"/>
			<path fill="#A3B4D8" d="M2893.559-1397.152c-3.512,9.115-4.353,19.064-2.227,28.621c4.214,18.973-0.581,20.244-0.581,20.244
				s-25.715,16.32-47.1,22.99l-19.981-1.895l-7.999-6.285l-0.034-5.012c0.028-1.027,0.054-2.012,0.079-2.969
				c4.562,0.436,14.947,0.969,30.173-0.785c11.766-1.342,22.46-4.699,29.589-7.414c5.196-1.967,8.244-7.34,7.273-12.814
				c-1.292-7.48-2.826-18.203-2.767-26.529c0.061-8.375,3.938-22.525,7.108-32.736c2.419-7.834,3.243-16.029,2.664-24.201
				c-0.99-14.135,0.022-27.586,0.022-27.586l15.841-8.58l8.82,3.289c-0.058,5.496-0.948,12.166-2.404,20.354
				C2908.348-1437.654,2899.538-1412.678,2893.559-1397.152z"/>
			<path fill="#F4D5B5" d="M2893.885-1316.441c1.831,0.297,6.511-7.916,6.511-7.916l-1.965-2.605
				c-1.108-1.473-2.656-2.557-4.418-3.096l-0.317-0.098c-1.581-0.484-3.313,0.082-4.236,1.453c-1.345,1.99-3.419,4.264-5.828,4.176
				h-0.042c-0.087,0.041-0.17,0.041-0.257,0.041C2881.205-1324.441,2892.056-1316.74,2893.885-1316.441z"/>
			<g>
				<path fill="#153851" d="M2821.702-1580.785c0,0-1.981,5.544,1.02,9.947l12.262-16.603l-8.552-0.079L2821.702-1580.785z"/>
				<path fill="#FFE1BD" d="M2888.304-1558.83c-0.543,21.411-19.012,33.816-19.012,33.816l1.236,19.486l-12.459,8.076l-8.548,5.535
					l-4.907-10.252l-0.674-12.564c-0.167-2.924-2.261-5.355-5.142-5.971c-3.189-0.682-7.618-2.543-12.149-7.344
					c-0.268-0.293-0.541-0.609-0.774-0.961c-0.03-0.016-0.03-0.016-0.03-0.016c-8.095-11.03-11.16-53.275,16.556-65.269
					C2871.019-1606.709,2888.86-1580.27,2888.304-1558.83z"/>
				<path fill="#E8C5A0" d="M2857.231-1509.139l0.838,11.688l-8.548,5.535l-4.907-10.252l-0.674-12.564
					c-0.167-2.924-2.261-5.355-5.142-5.971c-3.189-0.682-7.618-2.543-12.149-7.344c-0.268-0.293-0.541-0.609-0.774-0.961
					c0.557,0.332,7.254,4.256,17.434,5.395C2850.832-1522.773,2856.691-1516.689,2857.231-1509.139z"/>
				<path fill="#153851" d="M2858.411-1552.231c1.086,0.442,2.119-1.231,2.119-1.231s6.01-13.496,8.077-15.564
					c3.693-3.744,12.412-3.398,13.103,8.177c0.543,8.963-10.049,28.075-13.297,33.688c-0.493,0.887-0.298,2.068,0.54,2.709
					c0.345,0.246,0.787,0.395,1.183,0.443h0.147c0.492,0,0.985-0.146,1.378-0.492c6.848-6.01,36.99-34.92,13.053-62.109
					c0,0-19.012,1.232-21.918,10.393c-2.906,9.211-4.975,21.623-4.975,21.623S2857.278-1552.725,2858.411-1552.231z"/>
				<path fill="#153851" d="M2821.702-1580.785c0,0,16.637-12.969,41.903,2.832l20.689-5.279c0,0,0.869-0.281,0.413-3.381
					c-0.46-3.1-2.745-33.518-38.986-26.682C2824.884-1609.363,2812.122-1594.922,2821.702-1580.785z"/>
			</g>
			<path fill="#12374F" d="M2837.994-1497.186l0.12,0.996c0.23,1.885,0.729,3.727,1.486,5.469l0,0l6.271,1.285l5.467-4.072
				l-6.269-7.285l-0.975,0.248c-2.246,0.57-4.312,1.697-6.012,3.275L2837.994-1497.186z"/>
			<path fill="#A3B4D8" d="M2870.378-1514.607c0,0,3.009,1.676,6.004,6.18c0,0-4.108,1.838-7.69,4.025
				c-3.273,1.998-18.998,13.105-18.998,13.105l-4.623-9.496C2845.07-1500.793,2861.487-1512.119,2870.378-1514.607z"/>
			<path fill="#A3B4D8" d="M2845.07-1500.793c0,0-5.503,1.881-7.192,5.992c0,0-2.814-5.395,0.782-14.99c0,0,3.014-2.855,5.338-3.873
				L2845.07-1500.793z"/>
			<path fill="#E5BB98" d="M2888.8-1329.857c0,0-2.924,3.67-3.789,4.146c-0.865,0.479-1.017-0.537-0.688-1.252
				C2884.651-1327.68,2888.671-1330.828,2888.8-1329.857z"/>
			<path fill="#153851" d="M2870.136-1524.01h0.147c0.492,0,0.985-0.146,1.378-0.492c6.848-6.01,36.99-34.92,13.053-62.109
				c0,0,1.183,4.729,0.689,8.668C2885.403-1577.943,2900.674-1553.268,2870.136-1524.01z"/>
			<path fill="#183F5B" d="M2923.696-1240.158c0,0,17.935-59.289-32.945-108.129c0,0-27.271,12.207-49.107,13.682
				c-17.193,1.158-25.926-0.621-25.926-0.621s-1.447,52.67-1.509,81.059L2923.696-1240.158z"/>
			<path fill="#183F5B" d="M2809.575-1141.686c-1.108-26.508,18.516-23.668,30.009-4.369c36.798,61.773-0.14,139.232-4.106,183.92
				c-4.331-7.195-12.545-9.631-14.471-9.479c-3.135,0.236-4.83,2.709-4.83,2.709
				C2816.812-1023.721,2810.761-1113.344,2809.575-1141.686z"/>
			<path fill="#183F5B" d="M2838.59-1138.811c-3.304,10.822-31.771,23.348-28.798-16.049c1.319-17.473,4.835-113.967,5.511-123.266
				c0.683-9.305,2.233-22.898,6.731-24.594c22.479-8.484,54.017,19.768,48.102,54.693
				C2866.188-1224.676,2845.446-1161.26,2838.59-1138.811z"/>
			<path fill="#0A1828" d="M2816.258-968.102c-1.18,2.293-6.825,7.598-14.652,11.094c-7.819,3.49-24.4,5.133-15.189,8.211
				c9.21,3.074,19.949,1.211,25.392,0.34c5.436-0.877,10.708-0.99,17.127-1.033c8.462-0.055,8.528-0.578,7.387-10.121
				C2834.751-972.742,2820.065-975.523,2816.258-968.102z"/>
			<path fill="#183F5B" d="M2903.896-1135.643c-8.867-25.004,10.72-28.074,27.391-13.025
				c53.371,48.188,40.906,133.092,50.284,176.963c-5.321,3.646-13.775,4.953-16.732,4.791c-3.136-0.17-4.564-2.33-4.564-2.33
				C2944.726-1021.813,2913.384-1108.91,2903.896-1135.643z"/>
			<path fill="#183F5B" d="M2932.849-1142.803c1.002,11.271-20.679,33.57-32.718-4.061c-5.342-16.688-38.317-107.439-41.185-116.313
				c-2.861-8.879-6.53-22.059-3-25.318c17.649-16.307,57.487-1.967,65.122,32.625
				C2926.18-1232.748,2930.771-1166.18,2932.849-1142.803z"/>
			<path fill="#3A3A3A" d="M2881.827-1331.246c0,0,3.975,14.023,21.642,22.084c15.239,6.953-24.403,10.932-25.285,9.385
				c-0.886-1.547-8.504-27.139-8.504-27.139L2881.827-1331.246z"/>
			<path fill="#FFFFFF" d="M2991.459-1296.172h-154.032c-6.822,0-12.351-5.531-12.351-12.352v-86.15
				c0-6.82,5.528-12.352,12.351-12.352h154.032c6.821,0,12.35,5.531,12.35,12.352v86.15
				C3003.809-1301.703,2998.28-1296.172,2991.459-1296.172z"/>
			<g>
				<rect x="2901.002" y="-1391.08" opacity="0.1" fill="#0964AF" width="86.384" height="8.266"/>
				<rect x="2901.002" y="-1378.732" opacity="0.1" fill="#0964AF" width="86.384" height="8.266"/>
				<rect x="2901.002" y="-1366.383" opacity="0.1" fill="#0964AF" width="86.384" height="8.266"/>
				<rect x="2901.002" y="-1354.354" opacity="0.1" fill="#0964AF" width="86.384" height="8.268"/>
				<rect x="2901.002" y="-1339.959" opacity="0.1" fill="#0964AF" width="60.244" height="8.266"/>
				<g>
					<path fill="#50A4FF" d="M2881.695-1327.633h-29.218c-6.915,0-12.521-5.605-12.521-12.521v-38.402
						c0-6.916,5.605-12.523,12.521-12.523h29.218c6.918,0,12.523,5.607,12.523,12.523v38.402
						C2894.219-1333.238,2888.613-1327.633,2881.695-1327.633z"/>
					<rect x="2839.957" y="-1319.73" opacity="0.1" fill="#0964AF" width="54.262" height="6.811"/>
				</g>
			</g>
			<path fill="#CCD6E7" d="M2889.504-1444.209c0,0,34.087,27.184,44.277,60.363c0,0,29.21-1.85,36.036-24.545
				c0,0-45.67-76.734-62.466-88.033C2890.553-1507.723,2880.056-1468.879,2889.504-1444.209z"/>
			<path fill="#FFE1BD" d="M2935.827-1380.168c0,0-22.833,70.471-27.164,74.406c-4.332,3.938-5.512,8.268-16.535,9.449
				c0,0,3.544,8.268,11.023,7.48c7.479-0.787,10.828-8.268,10.828-8.268s35.311-41.861,45.135-61.633
				c13.517-27.201,12.998-43.877,12.998-43.877L2935.827-1380.168z"/>
			<path fill="#FFE1BD" d="M2744.132-1517.762c0,0-69.867-41.846-73.418-47.23c-3.855-5.846-7.552-7.93-6.152-20.066
				c0,0-15.245,1.025-16.211,9.26c-0.966,8.231,11.519,13.004,11.519,13.004s36.698,49.525,55.572,64.877
				c25.974,21.123,44.024,24.605,44.024,24.605L2744.132-1517.762z"/>
			<path fill="#A2B5D7" d="M2933.781-1380.633c0.047-1.354,1.11,0.145,0.37-0.988c-0.384-0.588-1.061-0.996-1.255-1.672
				c-0.401-1.385,1.395-2.309,2.806-2.6c9.479-1.941,16.314-6.68,23.595-13.055c2.862-2.506,2.562-4.125,4.727-7.252
				c1.365-1.969,3.613-3.898,5.794-2.906c4.539,2.068,1.115,6.227,3.092,9.045c0.398,0.568,0.996,0.996,1.274,1.631
				c0.465,1.051-0.094,2.26-0.74,3.209c-2.107,3.096-3.922,5.32-6.942,7.535c-2.863,2.098-6.109,3.326-9.258,4.971
				C2953.714-1380.871,2933.533-1373.447,2933.781-1380.633z"/>
			<g>
				<path fill="#CCD6E7" d="M2835.478-1508.021c0,0-59.277,6.299-84.137-9.016l-30.118,35.484c0,0,59.349,27.145,92.986,21.234
					L2835.478-1508.021z"/>
				<path fill="#A2B5D7" d="M2750.029-1521.236c0.896,1.416-1.235,0.625,0.312,1.268c0.803,0.334,1.779,0.277,2.45,0.832
					c1.375,1.137,0.184,3.336-1.058,4.617c-8.34,8.6-12.021,18.211-15.021,29.809c-1.177,4.561,0.26,6.004,0.227,10.715
					c-0.022,2.965-1.195,2.354-4.117,2.857c-6.086,1.053-5.261-1.434-9.253-2.938c-0.801-0.301-1.712-0.324-2.44-0.777
					c-1.208-0.75-1.479-2.377-1.481-3.801c-0.006-4.633,0.301-8.174,1.846-12.545c1.464-4.146,3.928-7.666,5.998-11.543
					C2729.813-1507.09,2745.27-1528.758,2750.029-1521.236z"/>
			</g>
		</g>
		<g>
			<path fill="#F2F2F3" d="M2618.595-1631.932l2.762,2.078l10.702-14.227l-2.761-2.077c-3.931-2.956-9.51-2.167-12.465,1.763l0,0
				C2613.876-1640.468,2614.667-1634.887,2618.595-1631.932z"/>
			<polygon fill="#FF8931" points="2637.36,-1568.124 2647.69,-1557.926 2671.474,-1589.398 2665.789,-1593.676 			"/>
			<polygon fill="#EAEBEE" points="2606.324,-1615.221 2657.152,-1602.361 2668.397,-1617.307 2641.95,-1662.58 			"/>
			<polygon fill="#DCE3EB" points="2609.576,-1614.197 2657.152,-1602.361 2661.633,-1608.318 2621.356,-1629.854 			"/>
			<path fill="#EAEBEE" d="M2678.236-1588.334L2678.236-1588.334c2.748,2.066,6.65,1.516,8.716-1.231l1.999-2.657
				c2.065-2.746,1.514-6.65-1.233-8.715l0,0c-2.744-2.066-6.647-1.516-8.716,1.232l-1.998,2.656
				C2674.938-1594.302,2675.49-1590.4,2678.236-1588.334z"/>
			<path fill="#DCE3EB" d="M2679.006-1599.703l-1.996,2.652c-2.071,2.755-1.515,6.65,1.232,8.717
				c2.745,2.066,6.645,1.521,8.716-1.232l1.996-2.653c0.153-0.202,0.289-0.413,0.406-0.63c-2.139,2.242-5.673,2.573-8.217,0.659
				c-2.545-1.915-3.204-5.403-1.646-8.077C2679.323-1600.096,2679.158-1599.904,2679.006-1599.703z"/>
			<path fill="#FF8931" d="M2604.705-1613.801L2604.705-1613.801c1.614,1.213,3.905,0.889,5.118-0.725l33.767-44.885
				c1.214-1.613,0.889-3.903-0.723-5.117l0,0c-1.614-1.213-3.905-0.891-5.119,0.725l-33.765,44.883
				C2602.771-1617.307,2603.093-1615.016,2604.705-1613.801z"/>
			<path fill="#FF7110" d="M2612.245-1629.901l-8.262,10.979c-1.213,1.615-0.891,3.9,0.725,5.116
				c1.614,1.215,3.902,0.891,5.115-0.724l8.259-10.98c-1.208,1.609-3.501,1.939-5.115,0.725S2611.034-1628.294,2612.245-1629.901z"
				/>
			<path fill="#FFAC33" d="M2661.803-1593.363l3.327,2.502c4.904,3.689,11.871,2.705,15.563-2.2l3.165-4.207
				c3.688-4.905,2.706-11.872-2.199-15.562l-3.326-2.502c-4.904-3.689-11.872-2.705-15.563,2.2l-3.165,4.207
				C2655.916-1604.02,2656.899-1597.053,2661.803-1593.363z"/>
			<path fill="#FF8931" d="M2659.779-1609.154l-4.739,6.301c-1.167,1.55-0.861,3.754,0.695,4.926l15.462,11.633
				c1.551,1.166,3.761,0.854,4.927-0.695l4.741-6.301c-1.167,1.549-3.377,1.861-4.927,0.695l-15.463-11.632
				C2658.92-1605.4,2658.613-1607.604,2659.779-1609.154z"/>
			<path fill="#FFE1BD" d="M2644.782-1575.784c-0.187-0.774,10.947-12.331,13.202-11.612c2.252,0.719,2.559,5.629,2.717,7.855
				s-3.825,7.402-6.369,7.721S2645.896-1571.172,2644.782-1575.784z"/>
		</g>
	</g>
</g>
<path fill="#52E6C6" d="M209.029,33.563C468-2.163,574.091,81.577,723.937,148.336c171.406,76.363,271.741,107.779,393.23,68.329
	c576.94-187.344,766.967,93.891,732.325,209.172c0,0-1687.613,124.934-1846.012,101.282
	c-4.781-139.978-9.563-279.958-14.344-419.935C-10.864,107.185,84.795,50.701,209.029,33.563z"/>
<g>
	<defs>
		<path id="SVGID_9_" d="M934.124,241.514c169.27,80.432,435.854-48.136,610.99-44.176
			c290.011,6.557,274.47,138.582,428.028,153.754c181.546,17.938,239.32,140.898,179.305,223.372
			c-55.346,76.054-194.265,143.756-356.877,198.454c-176.132,59.243-393.258,107.017-622.087,114.568
			c-228.826,7.547-465.362-33.093-537.355-109.554c-36.061-38.298-116.057-33.322-314.981-44.169
			c-276.342-15.07-398.69-94.69-419.868-191.084c-21.352-97.186,0.557-202.998,149.094-296.826
			C483.666-27.865,815.625,185.211,934.124,241.514z"/>
	</defs>
	<clipPath id="SVGID_10_">
		<use xlink:href="#SVGID_9_"  overflow="visible"/>
	</clipPath>
	
		<linearGradient id="SVGID_11_" gradientUnits="userSpaceOnUse" x1="2562.3428" y1="-2382.6631" x2="4007.0977" y2="-2382.6631" gradientTransform="matrix(0.2218 0.9751 0.9751 -0.2218 2672.2029 -3260.2722)">
		<stop  offset="0.1622" style="stop-color:#7476F8"/>
		<stop  offset="0.1996" style="stop-color:#7C7EF8"/>
		<stop  offset="0.4666" style="stop-color:#B4B5FB"/>
		<stop  offset="0.6963" style="stop-color:#DDDDFD"/>
		<stop  offset="0.8772" style="stop-color:#F6F6FF"/>
		<stop  offset="0.987" style="stop-color:#FFFFFF"/>
	</linearGradient>
	<path clip-path="url(#SVGID_10_)" fill="url(#SVGID_11_)" d="M1450.291,72.923c61.418-10.244,133.372-9.385,187.145,2.234
		c73.691,15.923,106.346,48.598,116.893,80.556c12.739,38.598,630.143,285.48,570.127,367.954
		c-55.346,76.054-366.272,194.553-528.885,249.251c-176.132,59.243-393.258,107.017-622.087,114.568
		c-228.826,7.547-465.362-33.093-537.355-109.554c-36.061-38.298-305.642,38.18-408.656,23.495
		c-515.603-73.492-332.783-282.156-325.058-382.074c2.972-38.396,43.49-76.213,66.22-114.41
		c55.036-92.489-66.15-156.753-65.159-242.93c0.581-50.478,91.709-94.029,224.26-112.845
		C559.226-112.086,1257.317,105.107,1450.291,72.923z"/>
	
		<linearGradient id="SVGID_12_" gradientUnits="userSpaceOnUse" x1="-186.8125" y1="40.8848" x2="1060.2598" y2="40.8848" gradientTransform="matrix(-0.1123 -0.983 -1.1286 0.1289 518.0278 826.7095)">
		<stop  offset="0.1622" style="stop-color:#7476F8"/>
		<stop  offset="0.1997" style="stop-color:#7C7EF8;stop-opacity:0.9546"/>
		<stop  offset="0.4675" style="stop-color:#B4B5FB;stop-opacity:0.6308"/>
		<stop  offset="0.6978" style="stop-color:#DDDDFD;stop-opacity:0.3524"/>
		<stop  offset="0.8792" style="stop-color:#F6F6FF;stop-opacity:0.1331"/>
		<stop  offset="0.9892" style="stop-color:#FFFFFF;stop-opacity:0"/>
	</linearGradient>
	<path clip-path="url(#SVGID_10_)" fill="url(#SVGID_12_)" d="M1539.749,95.723c0.671,73.294-64.546,145.161-193.238,202.988
		c-49.385,22.19-20.639,48.188-5.167,76.989c50.15,93.349-103.492,139.469-48.223,185.635
		c202.313,168.987,46.91,236.94,17.489,267.302c-220.297,227.318-693.983,103.349-1072.431,77.918
		c-273.171-18.355-511.38-125.605-622.599-206.398c-65.297-47.433-94.555-98.195-123.267-148.384
		c-78.846-137.815-167.22-275.781-251.677-413.688L1539.749,95.723z"/>
</g>
</svg>
