<svg height="512pt" viewBox="-62 0 512 512" width="512pt" xmlns="http://www.w3.org/2000/svg"><path d="m359.371094 512h-330.386719c-16.003906 0-28.98046875-12.972656-28.98046875-28.980469v-454.039062c0-16.007813 12.97656275-28.980469 28.98046875-28.980469h330.386719c16.003906 0 28.980468 12.972656 28.980468 28.980469v454.039062c0 16.007813-12.976562 28.980469-28.980468 28.980469zm0 0" fill="#ff5770"/><path d="m388.355469 28.984375v454.03125c0 16.007813-12.976563 28.984375-28.984375 28.984375h-27.980469c15.996094 0 28.972656-12.976562 28.972656-28.984375v-454.03125c0-16.007813-12.976562-28.984375-28.972656-28.984375h27.980469c16.007812 0 28.984375 12.976562 28.984375 28.984375zm0 0" fill="#ff435f"/><path d="m388.355469 28.984375v35.460937h-388.355469v-35.460937c0-16.007813 12.980469-28.984375 28.984375-28.984375h330.386719c16.007812 0 28.984375 12.976562 28.984375 28.984375zm0 0" fill="#80e0dc"/><path d="m388.355469 483.015625v-35.460937h-388.355469v35.460937c0 16.007813 12.976562 28.984375 28.984375 28.984375h330.386719c16.007812 0 28.984375-12.976562 28.984375-28.984375zm0 0" fill="#80e0dc"/><path d="m388.355469 28.984375v35.460937h-27.992188v-35.460937c0-16.007813-12.976562-28.984375-28.972656-28.984375h27.980469c16.007812 0 28.984375 12.976562 28.984375 28.984375zm0 0" fill="#00a8b0"/><path d="m360.363281 447.554688h27.992188v35.460937c0 16.007813-12.976563 28.984375-28.984375 28.984375h-27.980469c15.996094 0 28.972656-12.976562 28.972656-28.984375zm0 0" fill="#00a8b0"/><path d="m232.4375 210.53125c1.839844 1.714844 4.179688 2.859375 6.738281 3.234375l54.453125 7.910156c10.265625 1.492188 14.363282 14.105469 6.9375 21.347657l-39.402344 38.40625c-2.949218 2.875-4.296874 7.019531-3.601562 11.078124l9.304688 54.234376c1.753906 10.222656-8.980469 18.019531-18.160157 13.191406l-48.703125-25.605469c-3.648437-1.914063-8.003906-1.914063-11.648437 0l-48.703125 25.605469c-9.183594 4.828125-19.914063-2.96875-18.160156-13.191406l9.300781-54.234376c.695312-4.058593-.648438-8.199218-3.597657-11.078124l-39.402343-38.40625c-7.429688-7.242188-3.328125-19.855469 6.9375-21.347657l54.453125-7.910156c4.074218-.59375 7.597656-3.15625 9.421875-6.847656l24.351562-49.34375c4.589844-9.300781 17.855469-9.300781 22.445313 0l6.605468 13.386719" fill="#ffd86e"/><path d="m212.007812 170.960938 17.746094 35.957031c.679688 1.375 1.59375 2.59375 2.683594 3.613281" fill="#ffd86e"/><path d="m261.167969 281.429688c-2.957031 2.871093-4.300781 7.015624-3.605469 11.078124l9.296875 54.234376c1.757813 10.222656-8.96875 18.023437-18.152344 13.195312l-.3125-.164062c.382813-1.839844.433594-3.800782.085938-5.847657l-11.503907-67.082031c-.855468-5.023438.808594-10.136719 4.457032-13.691406l48.726562-47.511719c1.273438-1.238281 2.265625-2.601563 3.007813-4.039063l.464843.074219c10.261719 1.496094 14.363282 14.113281 6.933594 21.347657zm0 0" fill="#ffb509"/><path d="m336.039062 0h-87.242187v120.796875c0 6.539063 7.269531 10.457031 12.726563 6.855469l26.375-17.378906c2.742187-1.804688 6.296874-1.804688 9.035156 0l26.375 17.378906c5.460937 3.601562 12.730468-.316406 12.730468-6.855469zm0 0" fill="#ffd86e"/><path d="m336.039062 0v120.800781c0 6.535157-7.269531 10.445313-12.734374 6.855469l-5.292969-3.492188v-124.164062zm0 0" fill="#ffb509"/></svg>