<svg height="512pt" viewBox="0 -2 512 512" width="512pt" xmlns="http://www.w3.org/2000/svg"><path d="m485.71875 384.988281h-459.4375c-14.515625 0-26.28125-11.765625-26.28125-26.28125v-332.425781c0-14.515625 11.765625-26.28125 26.28125-26.28125h459.4375c14.515625 0 26.28125 11.765625 26.28125 26.28125v332.425781c0 14.515625-11.765625 26.28125-26.28125 26.28125zm0 0" fill="#e7e7e7"/><path d="m511.996094 26.277344v332.429687c0 14.519531-11.765625 26.285157-26.273438 26.285157h-32.023437c14.515625 0 26.28125-11.769532 26.28125-26.285157v-332.429687c0-14.507813-11.765625-26.27343775-26.28125-26.27343775h32.023437c14.507813 0 26.273438 11.76562475 26.273438 26.27343775zm0 0" fill="#cecece"/><path d="m512 89.664062h-512v-63.382812c0-14.515625 11.765625-26.28125 26.28125-26.28125h459.4375c14.515625 0 26.28125 11.765625 26.28125 26.28125zm0 0" fill="#64dcfc"/><path d="m457.183594 213.949219h-402.367188c-2.84375 0-5.152344-2.308594-5.152344-5.152344v-73.171875c0-2.84375 2.308594-5.152344 5.152344-5.152344h402.367188c2.84375 0 5.152344 2.308594 5.152344 5.152344v73.171875c0 2.84375-2.308594 5.152344-5.152344 5.152344zm0 0" fill="#acacac"/><path d="m457.183594 213.949219h-23.070313v-83.476563h23.070313c2.84375 0 5.152344 2.308594 5.152344 5.152344v73.171875c0 2.84375-2.308594 5.152344-5.152344 5.152344zm0 0" fill="#9c9c9c"/><g fill="#5a5a5a"><path d="m462.820312 263.6875h-57.417968c-4.140625 0-7.5-3.355469-7.5-7.5 0-4.140625 3.359375-7.5 7.5-7.5h57.417968c4.144532 0 7.5 3.359375 7.5 7.5 0 4.144531-3.355468 7.5-7.5 7.5zm0 0"/><path d="m103.160156 263.6875h-53.980468c-4.144532 0-7.5-3.355469-7.5-7.5 0-4.140625 3.355468-7.5 7.5-7.5h53.980468c4.144532 0 7.5 3.359375 7.5 7.5 0 4.144531-3.355468 7.5-7.5 7.5zm0 0"/><path d="m462.820312 301.296875h-43.679687c-4.140625 0-7.5-3.359375-7.5-7.5 0-4.144531 3.359375-7.5 7.5-7.5h43.679687c4.144532 0 7.5 3.355469 7.5 7.5 0 4.140625-3.355468 7.5-7.5 7.5zm0 0"/><path d="m91.484375 301.296875h-42.304687c-4.144532 0-7.5-3.359375-7.5-7.5 0-4.144531 3.355468-7.5 7.5-7.5h42.304687c4.140625 0 7.5 3.355469 7.5 7.5 0 4.140625-3.359375 7.5-7.5 7.5zm0 0"/><path d="m462.820312 338.902344h-57.417968c-4.140625 0-7.5-3.359375-7.5-7.5s3.359375-7.5 7.5-7.5h57.417968c4.144532 0 7.5 3.359375 7.5 7.5s-3.355468 7.5-7.5 7.5zm0 0"/><path d="m103.160156 338.902344h-53.980468c-4.144532 0-7.5-3.359375-7.5-7.5s3.355468-7.5 7.5-7.5h53.980468c4.144532 0 7.5 3.359375 7.5 7.5s-3.355468 7.5-7.5 7.5zm0 0"/></g><path d="m511.996094 26.277344v63.390625h-32.015625v-63.390625c0-14.507813-11.765625-26.27343775-26.28125-26.27343775h32.023437c14.507813 0 26.273438 11.76562475 26.273438 26.27343775zm0 0" fill="#00d1fc"/><path d="m64.222656 44.140625c0 8.257813-6.695312 14.949219-14.949218 14.949219-8.257813 0-14.953126-6.691406-14.953126-14.949219s6.695313-14.949219 14.953126-14.949219c8.253906 0 14.949218 6.691406 14.949218 14.949219zm0 0" fill="#ff5770"/><path d="m121.960938 44.140625c0 8.257813-6.691407 14.949219-14.949219 14.949219-8.257813 0-14.949219-6.691406-14.949219-14.949219s6.691406-14.949219 14.949219-14.949219c8.257812 0 14.949219 6.691406 14.949219 14.949219zm0 0" fill="#ffd86e"/><path d="m179.699219 44.140625c0 8.257813-6.691407 14.949219-14.949219 14.949219s-14.949219-6.691406-14.949219-14.949219 6.691407-14.949219 14.949219-14.949219 14.949219 6.691406 14.949219 14.949219zm0 0" fill="#80e0dc"/><path d="m64.21875 44.144531c0 8.253907-6.6875 14.941407-14.941406 14.941407-4 0-7.636719-1.566407-10.316406-4.132813 8.089843-.175781 14.601562-6.789063 14.601562-14.929687 0-4.265626-1.78125-8.097657-4.636719-10.820313.113281-.007813.238281-.007813.351563-.007813 8.253906 0 14.941406 6.6875 14.941406 14.949219zm0 0" fill="#ff435f"/><path d="m121.960938 44.144531c0 8.253907-6.6875 14.941407-14.953126 14.941407-3.996093 0-7.625-1.566407-10.3125-4.132813 8.097657-.175781 14.609376-6.789063 14.609376-14.929687 0-4.265626-1.78125-8.097657-4.636719-10.820313.113281-.007813.226562-.007813.339843-.007813 8.265626 0 14.953126 6.6875 14.953126 14.949219zm0 0" fill="#ffb509"/><path d="m179.703125 44.144531c0 8.253907-6.699219 14.941407-14.953125 14.941407-3.996094 0-7.625-1.566407-10.3125-4.132813 8.097656-.175781 14.601562-6.789063 14.601562-14.929687 0-4.265626-1.785156-8.097657-4.640624-10.820313.113281-.007813.238281-.007813.351562-.007813 8.253906 0 14.953125 6.6875 14.953125 14.949219zm0 0" fill="#00a8b0"/><path d="m308.730469 362.09375h-105.460938v138.046875c0 5.769531 5.789063 9.746094 11.175781 7.667969l38.597657-14.871094c1.902343-.734375 4.011719-.734375 5.914062 0l38.597657 14.871094c5.386718 2.078125 11.175781-1.898438 11.175781-7.667969zm0 0" fill="#80e0dc"/><path d="m308.734375 362.085938v138.054687c0 5.773437-5.789063 9.746094-11.175781 7.671875l-8.265625-3.183594v-142.542968zm0 0" fill="#00a8b0"/><path d="m392.730469 294.5c0 13.972656-16.289063 25.199219-20.378907 37.804688-4.242187 13.066406 2.183594 31.695312-5.730468 42.570312-7.992188 10.984375-27.75 10.589844-38.734375 18.582031-10.875 7.914063-16.558594 26.871094-29.625 31.113281-12.605469 4.09375-28.289063-7.765624-42.261719-7.765624s-29.652344 11.859374-42.261719 7.765624c-13.066406-4.242187-18.75-23.199218-29.625-31.113281-10.984375-7.992187-30.742187-7.597656-38.734375-18.582031-7.914062-10.875-1.484375-29.503906-5.730468-42.570312-4.089844-12.605469-20.378907-23.832032-20.378907-37.804688s16.289063-25.199219 20.378907-37.804688c4.242187-13.066406-2.183594-31.695312 5.730468-42.570312 7.992188-10.984375 27.75-10.589844 38.734375-18.582031 10.875-7.914063 16.558594-26.871094 29.625-31.113281 12.605469-4.09375 28.289063 7.769531 42.261719 7.769531s29.652344-11.863281 42.261719-7.769531c13.066406 4.242187 18.75 23.199218 29.625 31.113281 10.984375 7.992187 30.742187 7.597656 38.734375 18.582031 7.914062 10.875 1.484375 29.503906 5.730468 42.570312 4.09375 12.605469 20.378907 23.832032 20.378907 37.804688zm0 0" fill="#ffd86e"/><path d="m372.347656 332.308594c-4.242187 13.066406 2.1875 31.695312-5.726562 42.566406-7.996094 10.984375-27.75 10.589844-38.734375 18.585938-10.878907 7.914062-16.554688 26.863281-29.621094 31.105468-6.902344 2.246094-14.714844-.285156-22.667969-3.046875 3.210938 1.113281 11.910156-13.976562 13.398438-16.132812 8.164062-11.832031 21.347656-18.292969 32.476562-26.820313 11.421875-8.75 17.828125-18.074218 21.046875-32.507812 1.777344-7.992188 2.132813-15.722656 7.035157-22.679688 6.464843-9.171875 15.664062-17.808594 15.664062-29.585937 0-13.980469-16.300781-25.222657-20.402344-37.84375-3.640625-11.214844-.664062-23.917969-6.808594-34.398438-5.050781-8.613281-14.109374-14.890625-22.535156-19.855469-6.878906-4.050781-13.824218-8.152343-19.292968-14.070312-2.003907-2.164062-16.503907-21.542969-19.28125-20.589844 7.5-2.574218 14.84375-4.714844 21.367187-2.605468 13.066406 4.246093 18.742187 23.195312 29.621094 31.109374 10.984375 7.996094 30.738281 7.601563 38.734375 18.585938 7.914062 10.871094 1.484375 29.5 5.726562 42.566406 4.09375 12.609375 20.382813 23.839844 20.382813 37.8125s-16.289063 25.191406-20.382813 37.804688zm0 0" fill="#ffb509"/><path d="m341.570312 294.5c0 47.257812-38.3125 85.570312-85.570312 85.570312s-85.570312-38.3125-85.570312-85.570312 38.3125-85.570312 85.570312-85.570312 85.570312 38.3125 85.570312 85.570312zm0 0" fill="#fa0"/><path d="m341.574219 294.503906c0 47.253906-38.308594 85.5625-85.574219 85.5625-15.855469 0-30.714844-4.308594-43.441406-11.828125 7.800781 2.339844 16.0625 3.597657 24.617187 3.597657 47.261719 0 85.570313-38.308594 85.570313-85.574219 0-31.40625-16.917969-58.855469-42.140625-73.734375 35.269531 10.5625 60.96875 43.265625 60.96875 81.976562zm0 0" fill="#ff9500"/></svg>