<?xml version="1.0" encoding="utf-8"?>
<!-- Generator: Adobe Illustrator 21.0.0, SVG Export Plug-In . SVG Version: 6.00 Build 0)  -->
<svg version="1.1" id="Layer_1" xmlns="http://www.w3.org/2000/svg" xmlns:xlink="http://www.w3.org/1999/xlink" x="0px" y="0px"
	 viewBox="0 0 254 80" style="enable-background:new 0 0 254 80;" xml:space="preserve">
<style type="text/css">
	.st0{fill:#6F6F72;}
	.st1{fill:#CC392B;}
	.st2{fill:url(#SVGID_1_);}
</style>
<g>
	<g>
		<path class="st0" d="M80.5,52.5c-0.6,0-0.8-0.3-0.8-1V28.1c0-0.7,0.2-1,0.9-1h8.1c6.8,0,9.1,2.9,9.1,6.1v13.2
			c0,3.1-2.4,6.1-9.1,6.1H80.5z M84.7,31.3v17h4c2.5,0,4.1-0.9,4.1-2.8V34.1c0-1.9-1.5-2.8-4.1-2.8H84.7z"/>
		<path class="st0" d="M107.7,43.5v8c0,0.7-0.2,1-0.9,1h-3.2c-0.7,0-0.9-0.3-0.9-1V28.1c0-0.7,0.2-1,0.9-1h7.8c6.8,0,9,2.9,9,6.1
			v4.2c0,3.1-2.3,6.1-9,6.1H107.7z M107.7,31.3v8h3.7c2.5,0,4-0.9,4-2.8v-2.5c0-1.9-1.5-2.8-4-2.8H107.7z"/>
	</g>
	<g>
		<g>
			<path class="st1" d="M144.8,47.1c0,3.1-1.8,5.7-8.2,5.7c-6.4,0-8.2-2.7-8.2-5.7V32.6c0-3.1,1.8-5.7,8.2-5.7
				c6.4,0,8.2,2.7,8.2,5.7v1.8c0,0.5-0.2,0.7-0.7,0.7H142c-0.5,0-0.7-0.2-0.7-0.7v-1.2c0-2-1.3-3.2-4.7-3.2c-3.4,0-4.6,1.2-4.6,3.2
				v13.3c0,2,1.3,3.2,4.6,3.2c3.4,0,4.7-1.2,4.7-3.2v-1.8c0-0.5,0.2-0.7,0.7-0.7h2.2c0.5,0,0.7,0.2,0.7,0.7V47.1z"/>
			<path class="st1" d="M148.8,38.8c0-3.1,2.2-5.1,7.5-5.1c5.3,0,7.5,2.1,7.5,5.1v8.9c0,3.1-2.2,5.1-7.5,5.1c-5.3,0-7.5-2.1-7.5-5.1
				V38.8z M160.1,39.1c0-1.6-1.1-2.5-3.9-2.5c-2.8,0-3.9,0.9-3.9,2.5v8.3c0,1.6,1.1,2.5,3.9,2.5c2.8,0,3.9-0.9,3.9-2.5V39.1z"/>
			<path class="st1" d="M171.3,34c0.5,0,0.7,0.2,0.7,0.7l0.1,1.2c1-0.9,3.1-2.2,6.2-2.2c3.5,0,5.3,2,5.3,4.8v13.3
				c0,0.5-0.2,0.7-0.7,0.7h-2.2c-0.5,0-0.7-0.2-0.7-0.7V39.4c0-1.5-0.7-2.5-2.8-2.5c-2.4,0-4.3,1.3-5.1,1.9v13
				c0,0.5-0.2,0.7-0.7,0.7h-2.2c-0.5,0-0.7-0.2-0.7-0.7v-17c0-0.5,0.2-0.7,0.7-0.7H171.3z"/>
			<path class="st1" d="M196.9,34.1c0.5,0,0.7,0.2,0.7,0.7v1.5c0,0.5-0.2,0.7-0.7,0.7H193v10c0,1.6,1,2.5,3.8,2.5h0.7
				c0.5,0,0.7,0.2,0.7,0.7v1.6c0,0.5-0.2,0.7-0.7,0.7h-1.2c-5.3,0-6.8-1.8-6.8-5.1V37h-2.1c-0.5,0-0.7-0.2-0.7-0.7V35
				c0-0.5,0.2-0.7,0.7-0.7l1.8-0.1h0.2v-3.8c0-0.5,0.2-0.7,0.7-0.7h2.2c0.5,0,0.7,0.2,0.7,0.7v3.8H196.9z"/>
			<path class="st1" d="M215.5,43.4c0,0.4-0.2,0.7-0.6,0.7h-10.1v3.4c0,1.5,0.7,2.5,3.7,2.5c3,0,3.7-1,3.7-2.5v-0.4
				c0-0.5,0.2-0.7,0.7-0.7h1.9c0.5,0,0.7,0.2,0.7,0.7v0.6c0,3.1-1.8,5.1-7.1,5.1c-5.3,0-7.1-2.1-7.1-5.1v-8.9c0-3.1,1.9-5.1,7.2-5.1
				c5.3,0,7.1,2.1,7.1,5.1V43.4z M204.7,41.4h7.5v-2.3c0-1.5-0.9-2.5-3.7-2.5c-2.8,0-3.7,1-3.7,2.5V41.4z"/>
			<path class="st1" d="M222.8,34c0.5,0,0.7,0.2,0.7,0.7l0.1,1.2c1-0.9,3.1-2.2,6.2-2.2c3.5,0,5.3,2,5.3,4.8v13.3
				c0,0.5-0.2,0.7-0.7,0.7h-2.2c-0.5,0-0.7-0.2-0.7-0.7V39.4c0-1.5-0.7-2.5-2.8-2.5c-2.4,0-4.3,1.3-5.1,1.9v13
				c0,0.5-0.2,0.7-0.7,0.7h-2.2c-0.5,0-0.7-0.2-0.7-0.7v-17c0-0.5,0.2-0.7,0.7-0.7H222.8z"/>
			<path class="st1" d="M248.4,34.1c0.5,0,0.7,0.2,0.7,0.7v1.5c0,0.5-0.2,0.7-0.7,0.7h-3.8v10c0,1.6,1,2.5,3.8,2.5h0.7
				c0.5,0,0.7,0.2,0.7,0.7v1.6c0,0.5-0.2,0.7-0.7,0.7h-1.2c-5.3,0-6.8-1.8-6.8-5.1V37H239c-0.5,0-0.7-0.2-0.7-0.7V35
				c0-0.5,0.2-0.7,0.7-0.7l1.8-0.1h0.2v-3.8c0-0.5,0.2-0.7,0.7-0.7h2.2c0.5,0,0.7,0.2,0.7,0.7v3.8H248.4z"/>
		</g>
	</g>
	<linearGradient id="SVGID_1_" gradientUnits="userSpaceOnUse" x1="2.629931e-02" y1="73.4926" x2="67.0119" y2="6.5071">
		<stop  offset="0" style="stop-color:#98271E"/>
		<stop  offset="0.5" style="stop-color:#CB3729"/>
		<stop  offset="0.6041" style="stop-color:#CC3B29"/>
		<stop  offset="0.712" style="stop-color:#CE482A"/>
		<stop  offset="0.8216" style="stop-color:#D35C2C"/>
		<stop  offset="0.9317" style="stop-color:#D9792E"/>
		<stop  offset="1" style="stop-color:#DD8F2F"/>
	</linearGradient>
	<path class="st2" d="M21,2.3L4.2,19.1v58.6h41.9l16.7-16.7V2.3H21z M46.1,24.1L46.1,24.1v11.7h-5v-8.4L26.8,41.6l-3.3-3.3
		l14.2-14.2h-8.4v-5h11.7h5l0,0V24.1z"/>
</g>
</svg>
