<?xml version="1.0" encoding="utf-8"?>
<!-- Generator: Adobe Illustrator 21.0.0, SVG Export Plug-In . SVG Version: 6.00 Build 0)  -->
<svg version="1.1" id="Layer_1" xmlns="http://www.w3.org/2000/svg" xmlns:xlink="http://www.w3.org/1999/xlink" x="0px" y="0px"
	 viewBox="0 0 40 40" style="enable-background:new 0 0 40 40;" xml:space="preserve">
<style type="text/css">
	.st0{fill:#F04244;}
	.st1{fill:#F04244;stroke:#F04244;stroke-width:0.75;stroke-miterlimit:10;}
</style>
<g>
	<g>
		<g>
			<path class="st0" d="M1.5-36.2h36.9c0.9,0,1.5-1.4,1.5-3.4S39.3-43,38.4-43H1.5C0.6-43,0-41.7,0-39.6C0-37.6,0.6-36.2,1.5-36.2z"
				/>
			<path class="st0" d="M38.5-30.1h-37c-0.9,0-1.5,1.4-1.5,3.4s0.6,3.4,1.5,3.4h36.9c0.9,0,1.5-1.4,1.5-3.4
				C40-28.7,39.4-30.1,38.5-30.1z"/>
			<path class="st0" d="M38.5-17.2h-37c-0.9,0-1.5,1.4-1.5,3.4s0.6,3.4,1.5,3.4h36.9c0.9,0,1.5-1.4,1.5-3.4
				C40-15.9,39.4-17.2,38.5-17.2z"/>
		</g>
	</g>
</g>
<g id="surface1">
	<path class="st1" d="M0,7.2v1.6h40.3V7.2H0z M0,19.2v1.6h31.8v-1.6H0z M0,31.2v1.6h40.3v-1.6C40.3,31.2,0,31.2,0,31.2z"/>
</g>
</svg>
