<?xml version="1.0" encoding="iso-8859-1"?>
<!-- Generator: Adobe Illustrator 19.0.0, SVG Export Plug-In . SVG Version: 6.00 Build 0)  -->
<svg version="1.1" id="Layer_1" xmlns="http://www.w3.org/2000/svg" xmlns:xlink="http://www.w3.org/1999/xlink" x="0px" y="0px"
	 viewBox="0 0 512 512" style="enable-background:new 0 0 512 512;" xml:space="preserve">
<polygon style="fill:#ABB9C6;" points="346.4,469.587 165.605,469.587 178.512,439.386 183.427,427.902 194.153,402.811 
	317.852,402.811 328.578,427.902 333.492,439.386 "/>
<polygon style="fill:#93A0AA;" points="328.578,427.902 183.427,427.902 194.153,402.811 317.852,402.811 "/>
<path style="fill:#B6C7D3;" d="M393.462,481.074H118.535l0,0c9.791-14.369,26.054-22.967,43.442-22.967h188.043
	C367.408,458.107,383.67,466.705,393.462,481.074L393.462,481.074z"/>
<path style="fill:#ABB9C6;" d="M512,45.744v326.991c0,18.511-14.997,33.52-33.509,33.52H33.509C14.997,406.255,0,391.246,0,372.735
	V45.744c0-18.511,14.997-33.52,33.509-33.52h444.983C497.003,12.224,512,27.233,512,45.744z"/>
<path style="fill:#C5D6E2;" d="M512,45.744v326.991c0,18.511-14.997,33.52-33.509,33.52H180.898l24.552-59.875L342.47,12.224
	h136.021C497.003,12.224,512,27.233,512,45.744z"/>
<path style="fill:#B8E9F2;" d="M512,45.744V346.38H0V45.744c0-18.511,14.997-33.52,33.509-33.52h444.983
	C497.003,12.224,512,27.233,512,45.744z"/>
<g>
	<path id="SVGCleanerId_0" style="fill:#D4F7FC;" d="M512,45.744V346.38H205.45L342.47,12.224h136.021
		C497.003,12.224,512,27.233,512,45.744z"/>
</g>
<path style="fill:#93A0AA;" d="M256.002,383.863c-3.448,0-6.634-2.135-7.958-5.317c-1.465-3.521-0.359-7.694,2.622-10.058
	c6.24-4.949,15.53,0.968,13.723,8.703C263.488,381.037,259.968,383.863,256.002,383.863z"/>
<g>
	<path id="SVGCleanerId_0_1_" style="fill:#D4F7FC;" d="M512,45.744V346.38H205.45L342.47,12.224h136.021
		C497.003,12.224,512,27.233,512,45.744z"/>
</g>
<g>
	<path id="SVGCleanerId_0_2_" style="fill:#D4F7FC;" d="M512,45.744V346.38H205.45L342.47,12.224h136.021
		C497.003,12.224,512,27.233,512,45.744z"/>
</g>
<path style="fill:#8E9AA5;" d="M461.225,233.246v240.233c0,11.989-9.715,21.704-21.704,21.704H314.122
	c-0.712,0-1.401-0.034-2.09-0.103c-11.013-1.045-19.614-10.324-19.614-21.6V233.246c0-11.989,9.715-21.704,21.704-21.704h125.399
	C451.51,211.542,461.225,221.257,461.225,233.246z"/>
<path style="fill:#A6B2BC;" d="M461.225,233.246v240.233c0,11.989-9.715,21.704-21.704,21.704H314.122
	c-0.712,0-1.401-0.034-2.09-0.103L428.29,211.542h11.231C451.51,211.542,461.225,221.257,461.225,233.246z"/>
<path style="fill:#B8E9F2;" d="M461.225,233.246v209.113H292.419V233.246c0-11.989,9.715-21.704,21.704-21.704h125.399
	C451.51,211.542,461.225,221.257,461.225,233.246z"/>
<path style="fill:#D4F7FC;" d="M461.225,233.246v209.113H333.644l94.646-230.817h11.231
	C451.51,211.542,461.225,221.257,461.225,233.246z"/>
<path style="fill:#A6B2BC;" d="M439.521,499.776H314.122c-0.861,0-1.693-0.041-2.544-0.125
	c-13.533-1.285-23.753-12.536-23.753-26.172V233.246c0-14.5,11.797-26.297,26.297-26.297h125.399
	c14.5,0,26.297,11.797,26.297,26.297v240.233C465.818,487.979,454.021,499.776,439.521,499.776z M314.122,216.135
	c-9.435,0-17.11,7.676-17.11,17.11v240.233c0,8.871,6.644,16.192,15.454,17.028c0.566,0.056,1.101,0.083,1.656,0.083h125.399
	c9.435,0,17.11-7.676,17.11-17.11V233.246c0-9.435-7.676-17.11-17.11-17.11L314.122,216.135L314.122,216.135z"/>
<g>
	<path style="fill:#727C84;" d="M376.819,477.383c-7.825,0-11.528-10.071-5.592-15.16c2.832-2.428,7.045-2.719,10.193-0.73
		c2.978,1.881,4.535,5.509,3.84,8.965C384.462,474.434,380.885,477.383,376.819,477.383z"/>
	<path style="fill:#727C84;" d="M400.363,244.844h-47.082c-3.171,0-5.742-2.571-5.742-5.742s2.571-5.742,5.742-5.742h47.082
		c3.171,0,5.742,2.571,5.742,5.742S403.533,244.844,400.363,244.844z"/>
</g>
<g>
</g>
<g>
</g>
<g>
</g>
<g>
</g>
<g>
</g>
<g>
</g>
<g>
</g>
<g>
</g>
<g>
</g>
<g>
</g>
<g>
</g>
<g>
</g>
<g>
</g>
<g>
</g>
<g>
</g>
</svg>
