<?xml version="1.0" encoding="utf-8"?>
<!-- Generator: Adobe Illustrator 16.0.0, SVG Export Plug-In . SVG Version: 6.00 Build 0)  -->
<!DOCTYPE svg PUBLIC "-//W3C//DTD SVG 1.1//EN" "http://www.w3.org/Graphics/SVG/1.1/DTD/svg11.dtd">
<svg version="1.1" id="Layer_1" xmlns="http://www.w3.org/2000/svg" xmlns:xlink="http://www.w3.org/1999/xlink" x="0px" y="0px"
	 width="500px" height="500px" viewBox="0 0 500 500" enable-background="new 0 0 500 500" xml:space="preserve">
<g>
	<g>
		<g>
			<path fill="#FFFFFF" stroke="#FFFFFF" stroke-width="0.5" stroke-miterlimit="10" d="M377.466,272.784H23.954
				c-3.688,0-6.705-3.019-6.705-6.705V132.862c0-3.69,3.018-6.706,6.705-6.706h353.512c3.686,0,6.707,3.016,6.707,6.706v133.217
				C384.173,269.768,381.151,272.784,377.466,272.784z"/>
			<g>
				<path fill="#E8F1F8" d="M358.927,163.539H41.952c-4.593,0-8.313-3.72-8.313-8.312l0,0c0-4.59,3.721-8.313,8.313-8.313h316.975
					c4.588,0,8.311,3.722,8.311,8.313l0,0C367.237,159.818,363.515,163.539,358.927,163.539z"/>
				<path fill="#00AEEF" d="M293.013,163.539H41.952c-4.593,0-8.313-3.72-8.313-8.312l0,0c0-4.59,3.721-8.313,8.313-8.313h251.061
					c4.592,0,8.313,3.722,8.313,8.313l0,0C301.326,159.818,297.604,163.539,293.013,163.539z"/>
				<path fill="#E8F1F8" d="M358.927,192.498H41.952c-4.593,0-8.313-3.722-8.313-8.313l0,0c0-4.591,3.721-8.312,8.313-8.312h316.975
					c4.588,0,8.311,3.721,8.311,8.312l0,0C367.237,188.776,363.515,192.498,358.927,192.498z"/>
				<path fill="#81BC00" d="M159.267,192.498H41.952c-4.593,0-8.313-3.722-8.313-8.313l0,0c0-4.591,3.721-8.312,8.313-8.312h117.314
					c4.591,0,8.313,3.721,8.313,8.312l0,0C167.58,188.776,163.858,192.498,159.267,192.498z"/>
				<path fill="#E8F1F8" d="M358.927,221.457H41.952c-4.593,0-8.313-3.72-8.313-8.312l0,0c0-4.591,3.721-8.312,8.313-8.312h316.975
					c4.588,0,8.311,3.72,8.311,8.312l0,0C367.237,217.736,363.515,221.457,358.927,221.457z"/>
				<path fill="#E8F1F8" d="M358.927,252.025H41.952c-4.593,0-8.313-3.723-8.313-8.313l0,0c0-4.591,3.721-8.31,8.313-8.31h316.975
					c4.588,0,8.311,3.719,8.311,8.31l0,0C367.237,248.304,363.515,252.025,358.927,252.025z"/>
				<path fill="#FF8931" d="M194.661,252.025H41.952c-4.593,0-8.313-3.723-8.313-8.313l0,0c0-4.591,3.721-8.31,8.313-8.31H194.66
					c4.591,0,8.313,3.719,8.313,8.31l0,0C202.975,248.304,199.252,252.025,194.661,252.025z"/>
				<path fill="#FFBC00" d="M72.39,221.457H41.952c-4.593,0-8.313-3.72-8.313-8.312l0,0c0-4.591,3.721-8.312,8.313-8.312H72.39
					c4.593,0,8.313,3.72,8.313,8.312l0,0C80.702,217.736,76.982,221.457,72.39,221.457z"/>
				<g>
					<circle fill="#81BC00" cx="190.701" cy="184.186" r="8.245"/>
				</g>
				<g>
					<circle fill="#FFBC00" cx="102.215" cy="213.145" r="8.245"/>
				</g>
				<g>
					<circle fill="#FF8931" cx="223.682" cy="243.712" r="8.246"/>
				</g>
			</g>
		</g>
		<g>
			<g>
				<g>
					<g>
						<path opacity="0.1" fill="#7F1E00" enable-background="new    " d="M426.403,418.598v0.012c0,2.434-2.035,4.411-4.547,4.416
							l-120.666,0.239l-67.905,0.138c-2.518,0.006-4.565-1.97-4.571-4.408l-0.253-121.186c-0.006-2.435,2.028-4.425,4.546-4.431
							l188.571-0.375c2.517-0.006,4.564,1.967,4.57,4.408l0.012,4.723L426.403,418.598z"/>
						<path fill="#E8F1F8" d="M421.276,290.063l-187.771,0.387c-2.738,0.006-4.953,2.23-4.947,4.967l0.007,4.316l197.687-0.41
							l-0.008-4.311C426.237,292.271,424.013,290.057,421.276,290.063z"/>
					</g>
					<g>
						<path fill="#FFFFFF" d="M428.56,416.316v0.011c0,2.437-2.035,4.411-4.547,4.418l-120.666,0.237l-67.906,0.14
							c-2.517,0.006-4.563-1.97-4.569-4.41l-0.253-121.185c-0.007-2.436,2.029-4.424,4.546-4.43l188.573-0.375
							c2.515-0.008,4.563,1.967,4.568,4.408l0.012,4.721L428.56,416.316z"/>
						<path fill="#50A4FF" d="M423.431,287.782l-187.77,0.385c-2.738,0.008-4.954,2.231-4.947,4.97l0.007,4.313l197.689-0.406
							l-0.012-4.313C428.394,289.989,426.171,287.773,423.431,287.782z"/>
					</g>
					<path fill="#F43434" d="M241.557,292.71c0.002,0.881-0.712,1.601-1.595,1.601c-0.883,0.004-1.6-0.711-1.602-1.593
						c-0.003-0.885,0.713-1.6,1.596-1.604C240.839,291.114,241.554,291.829,241.557,292.71z"/>
					<circle fill="#FFC950" cx="246.722" cy="292.699" r="1.598"/>
					<circle fill="#42FCEA" cx="253.483" cy="292.685" r="1.598"/>
				</g>
				<g>
					<rect x="246.72" y="410.691" fill="#D6F2FE" width="158.098" height="3.634"/>
					<rect x="246.72" y="410.691" fill="#BACEDB" width="83.76" height="3.634"/>
					<ellipse fill="#C62C2C" cx="330.396" cy="412.563" rx="2.265" ry="2.498"/>
				</g>
				<g>
					<rect x="246.72" y="309.529" fill="#E8F1F8" width="96.891" height="47.58"/>
					<rect x="349.235" y="309.529" fill="#E8F1F8" width="53.889" height="47.58"/>
					<rect x="246.72" y="361.548" fill="#E8F1F8" width="156.403" height="38.304"/>
				</g>
				<g>
					<circle fill="#FEB80C" cx="296.053" cy="335.554" r="12.591"/>
					<path fill="#FFFFFF" d="M292.778,332.271v6.565c0,0.856,0.976,1.353,1.666,0.843l4.457-3.283c0.568-0.418,0.568-1.267,0-1.687
						l-4.457-3.282C293.753,330.917,292.778,331.413,292.778,332.271z"/>
				</g>
			</g>
		</g>
	</g>
	<g>
		<g>
			<g>
				<g>
					<g>
						<path opacity="0.1" fill="#7F1E00" enable-background="new    " d="M147.867,402.211H22.846c-3.624,0-6.561-2.938-6.561-6.562
							v-58.848c0-3.623,2.937-6.563,6.561-6.563h125.022c3.624,0,6.561,2.939,6.561,6.563v58.848
							C154.428,399.272,151.491,402.211,147.867,402.211z"/>
					</g>
				</g>
			</g>
			<g>
				<g>
					<g>
						<path fill="#FFFFFF" d="M150.67,399.41H25.647c-3.622,0-6.56-2.938-6.56-6.563v-58.845c0-3.623,2.938-6.563,6.56-6.563H150.67
							c3.624,0,6.561,2.939,6.561,6.563v58.847C157.231,396.472,154.294,399.41,150.67,399.41z"/>
					</g>
				</g>
			</g>
			<g>
				<g>
					<g>
						<g>
							<rect x="32.215" y="373.569" fill="#FFD04D" width="6.019" height="15.107"/>
						</g>
					</g>
				</g>
				<g>
					<g>
						<g>
							<rect x="45.776" y="360.31" fill="#00BFD8" width="6.018" height="28.368"/>
						</g>
					</g>
				</g>
				<g>
					<g>
						<g>
							<rect x="59.334" y="363.242" fill="#FFD04D" width="6.02" height="25.437"/>
						</g>
					</g>
				</g>
				<g>
					<g>
						<g>
							<rect x="72.895" y="348.881" fill="#00BFD8" width="6.019" height="39.797"/>
						</g>
					</g>
				</g>
				<g opacity="0.15">
					<g>
						<g>
							<rect x="45.776" y="360.31" opacity="0.26" enable-background="new    " width="2.762" height="28.368"/>
						</g>
					</g>
				</g>
				<g opacity="0.15">
					<g>
						<g>
							<rect x="32.215" y="373.569" opacity="0.26" enable-background="new    " width="2.762" height="15.107"/>
						</g>
					</g>
				</g>
				<g opacity="0.62">
					<g>
						<g>
							<rect x="72.895" y="348.881" opacity="0.26" enable-background="new    " width="2.763" height="39.797"/>
						</g>
					</g>
				</g>
				<g opacity="0.15">
					<g>
						<g>
							<rect x="59.334" y="363.242" opacity="0.26" enable-background="new    " width="2.764" height="25.437"/>
						</g>
					</g>
				</g>
				<g>
					<g>
						<g>
							<polygon fill="#D5DBDA" points="82.098,392.836 28.242,392.836 28.242,335.49 29.063,335.49 29.063,392.017 82.098,392.017 
															"/>
						</g>
					</g>
				</g>
				<g>
					<g>
						<g>
							<polygon fill="#D5DBDA" points="33.773,366.496 33.224,365.885 47.313,353.233 60.364,356.069 74.492,340.338 75.104,340.89 
								60.655,356.974 47.548,354.127 							"/>
						</g>
					</g>
				</g>
				<g>
					<g>
						<g>
							<polygon fill="#D5DBDA" points="76.211,343.211 72.226,339.394 77.37,338.015 							"/>
						</g>
					</g>
				</g>
				<g>
					<g>
						<g>
							<g>
								<rect x="87.198" y="372.5" fill="#00BFD8" width="4.132" height="4.131"/>
							</g>
						</g>
					</g>
					<g>
						<g>
							<g>
								<rect x="87.198" y="379.74" fill="#FFD04D" width="4.132" height="4.133"/>
							</g>
						</g>
					</g>
					<g>
						<g>
							<g>
								<rect x="92.468" y="381.524" fill="#EFEFEF" width="13.102" height="2.349"/>
							</g>
						</g>
					</g>
					<g>
						<g>
							<g>
								<rect x="92.468" y="374.283" fill="#EFEFEF" width="13.102" height="2.348"/>
							</g>
						</g>
					</g>
				</g>
				<g>
					<g>
						<g>
							<g>
								<rect x="111.5" y="372.5" fill="#00BFD8" width="4.132" height="4.131"/>
							</g>
						</g>
					</g>
					<g>
						<g>
							<g>
								<rect x="111.5" y="379.74" fill="#FFD04D" width="4.132" height="4.133"/>
							</g>
						</g>
					</g>
					<g>
						<g>
							<g>
								<rect x="116.771" y="381.524" fill="#EFEFEF" width="13.1" height="2.349"/>
							</g>
						</g>
					</g>
					<g>
						<g>
							<g>
								<rect x="116.771" y="374.283" fill="#EFEFEF" width="13.1" height="2.348"/>
							</g>
						</g>
					</g>
				</g>
				<g>
					<g>
						<g>
							<g>
								<rect x="133.385" y="372.5" fill="#00BFD8" width="4.132" height="4.131"/>
							</g>
						</g>
					</g>
					<g>
						<g>
							<g>
								<rect x="133.385" y="379.74" fill="#FFD04D" width="4.132" height="4.133"/>
							</g>
						</g>
					</g>
					<g>
						<g>
							<g>
								<rect x="138.656" y="381.524" fill="#EFEFEF" width="8.62" height="2.349"/>
							</g>
						</g>
					</g>
					<g>
						<g>
							<g>
								<rect x="138.656" y="374.283" fill="#EFEFEF" width="8.62" height="2.348"/>
							</g>
						</g>
					</g>
				</g>
				<g>
					<g>
						<g>
							<g>
								<rect x="91.507" y="338.955" fill="#EFEFEF" width="55.769" height="1.078"/>
							</g>
						</g>
					</g>
					<g>
						<g>
							<g>
								<rect x="87.791" y="341.565" fill="#EFEFEF" width="59.484" height="1.078"/>
							</g>
						</g>
					</g>
					<g>
						<g>
							<g>
								<rect x="87.791" y="344.178" fill="#EFEFEF" width="59.484" height="1.078"/>
							</g>
						</g>
					</g>
					<g>
						<g>
							<g>
								<rect x="87.791" y="346.787" fill="#EFEFEF" width="59.484" height="1.078"/>
							</g>
						</g>
					</g>
					<g>
						<g>
							<g>
								<rect x="87.791" y="349.396" fill="#EFEFEF" width="59.484" height="1.078"/>
							</g>
						</g>
					</g>
					<g>
						<g>
							<g>
								<rect x="87.791" y="352.008" fill="#EFEFEF" width="59.484" height="1.078"/>
							</g>
						</g>
					</g>
					<g>
						<g>
							<g>
								<rect x="87.791" y="354.619" fill="#EFEFEF" width="59.484" height="1.077"/>
							</g>
						</g>
					</g>
					<g>
						<g>
							<g>
								<rect x="87.791" y="357.229" fill="#EFEFEF" width="59.484" height="1.078"/>
							</g>
						</g>
					</g>
					<g>
						<g>
							<g>
								<rect x="95.075" y="359.84" fill="#EFEFEF" width="52.2" height="1.08"/>
							</g>
						</g>
					</g>
				</g>
			</g>
		</g>
	</g>
</g>
<g opacity="0">
	<g>
		<path fill="#0A1828" d="M349.593,479.522c-0.323,1.833,3.141,6.679-1.512,10.753c-4.646,4.07-15.213,8.365-8.213,8.525
			c7.002,0.162,13.721-1.462,17.286-3.221c3.559-1.761,0.716-4.525,5.136-5.921c5.818-1.837,5.755-2.21,2.938-8.546
			C361.355,472.396,350.641,473.603,349.593,479.522z"/>
		<path fill="#CCD6E7" d="M303.716,185.41c-2.429,6.303-3.011,13.183-1.539,19.792c2.914,13.12-0.402,14-0.402,14
			s-17.78,11.285-32.568,15.897c-10.602,3.3-19.632,2.74-19.381-8.962l0.008-0.159c0.019-0.711,0.037-1.393,0.054-2.053
			c0.499-26.301-4.986-27.641-6.338-57.091c-1.396-30.212,6.683-47.063,14.68-54.371c8.013-7.293,18.946-7.564,39.516-2.703
			c15.45,3.641,20.541,7.743,20.415,19.175c-0.04,3.801-0.656,8.414-1.664,14.074C313.942,157.399,307.853,174.672,303.716,185.41z"
			/>
		<path fill="#12374F" d="M266.403,120.702c0,0-16.03,52.54-12.821,77.706l5.902,10.744l6.457-11.716c0,0-5.249-50.317,4.798-75.845
			L266.403,120.702z"/>
		<path fill="#A3B4D8" d="M303.716,185.41c-2.429,6.303-3.011,13.183-1.539,19.792c2.914,13.12-0.402,14-0.402,14
			s-17.78,11.285-32.568,15.897l-13.819-1.31l-5.532-4.347l-0.021-3.464c0.019-0.711,0.037-1.393,0.054-2.053
			c3.154,0.3,10.335,0.669,20.866-0.542c8.136-0.93,15.53-3.251,20.46-5.128c3.596-1.361,5.703-5.076,5.03-8.862
			c-0.893-5.174-1.955-12.59-1.913-18.346c0.041-5.791,2.725-15.579,4.916-22.639c1.672-5.417,2.241-11.085,1.843-16.737
			c-0.686-9.774,0.016-19.076,0.016-19.076l10.954-5.935l6.101,2.275c-0.04,3.801-0.656,8.414-1.664,14.074
			C313.942,157.399,307.853,174.672,303.716,185.41z"/>
		<path fill="#F4D5B5" d="M303.942,241.224c1.268,0.206,4.503-5.475,4.503-5.475l-1.357-1.801c-0.768-1.019-1.839-1.767-3.06-2.14
			l-0.217-0.069c-1.095-0.334-2.292,0.057-2.93,1.004c-0.931,1.376-2.364,2.949-4.031,2.889h-0.028
			c-0.059,0.029-0.117,0.029-0.178,0.029C295.172,235.692,302.677,241.019,303.942,241.224z"/>
		<g>
			<path fill="#153851" d="M254.023,58.418c0,0-1.37,3.834,0.707,6.879l8.481-11.482l-5.917-0.056L254.023,58.418z"/>
			<path fill="#FFE1BD" d="M300.08,73.602c-0.374,14.806-13.146,23.384-13.146,23.384l0.856,13.478l-8.616,5.584l-5.91,3.827
				l-3.395-7.089l-0.467-8.689c-0.113-2.023-1.563-3.704-3.556-4.128c-2.205-0.471-5.267-1.758-8.401-5.078
				c-0.184-0.204-0.374-0.421-0.534-0.665c-0.021-0.012-0.021-0.012-0.021-0.012c-5.598-7.627-7.719-36.84,11.446-45.136
				C288.13,40.492,300.468,58.775,300.08,73.602z"/>
			<path fill="#E8C5A0" d="M278.595,107.965l0.579,8.083l-5.91,3.827l-3.395-7.089l-0.467-8.689
				c-0.113-2.023-1.563-3.704-3.556-4.128c-2.205-0.471-5.267-1.758-8.401-5.078c-0.184-0.204-0.374-0.421-0.534-0.665
				c0.384,0.229,5.017,2.942,12.056,3.729C274.169,98.535,278.221,102.743,278.595,107.965z"/>
			<path fill="#153851" d="M279.411,78.165c0.751,0.306,1.465-0.853,1.465-0.853s4.152-9.333,5.585-10.762
				c2.554-2.589,8.584-2.351,9.063,5.653c0.375,6.199-6.95,19.416-9.193,23.296c-0.346,0.615-0.208,1.431,0.372,1.875
				c0.237,0.171,0.543,0.273,0.814,0.308h0.104c0.34,0,0.68-0.102,0.951-0.342c4.736-4.155,25.58-24.146,9.026-42.95
				c0,0-13.145,0.853-15.156,7.186c-2.011,6.371-3.44,14.954-3.44,14.954S278.627,77.823,279.411,78.165z"/>
			<path fill="#153851" d="M254.023,58.418c0,0,11.507-8.968,28.98,1.958l14.308-3.651c0,0,0.6-0.193,0.285-2.338
				c-0.32-2.143-1.899-23.179-26.962-18.451C256.227,38.657,247.399,48.642,254.023,58.418z"/>
		</g>
		<path fill="#12374F" d="M265.292,116.232l0.081,0.687c0.162,1.305,0.507,2.579,1.029,3.783l0,0l4.336,0.889l3.779-2.815
			l-4.334-5.039l-0.675,0.171c-1.552,0.396-2.98,1.174-4.155,2.266L265.292,116.232z"/>
		<path fill="#A3B4D8" d="M287.687,104.184c0,0,2.079,1.158,4.153,4.273c0,0-2.842,1.271-5.32,2.785
			c-2.263,1.381-13.136,9.063-13.136,9.063l-3.199-6.568C270.185,113.736,281.538,105.905,287.687,104.184z"/>
		<path fill="#A3B4D8" d="M270.185,113.736c0,0-3.807,1.301-4.975,4.144c0,0-1.944-3.731,0.543-10.366c0,0,2.083-1.975,3.688-2.678
			L270.185,113.736z"/>
		<path fill="#E5BB98" d="M300.423,231.947c0,0-2.021,2.537-2.618,2.866c-0.598,0.331-0.702-0.371-0.476-0.865
			C297.557,233.453,300.337,231.276,300.423,231.947z"/>
		<path fill="#153851" d="M287.517,97.682h0.104c0.34,0,0.68-0.102,0.951-0.342c4.736-4.155,25.58-24.146,9.026-42.95
			c0,0,0.816,3.27,0.478,5.994C298.076,60.383,308.636,77.448,287.517,97.682z"/>
		<path fill="#183F5B" d="M324.558,293.977c0,0,12.403-41.002-22.783-74.773c0,0-18.859,8.44-33.958,9.462
			c-11.891,0.801-17.931-0.432-17.931-0.432s-1.002,36.424-1.042,56.055L324.558,293.977z"/>
		<path fill="#183F5B" d="M245.638,362.075c-0.766-18.333,12.805-16.368,20.752-3.021c25.449,42.715-0.097,96.283-2.839,127.188
			c-2.995-4.978-8.674-6.66-10.006-6.557c-2.17,0.163-3.34,1.874-3.34,1.874C250.643,443.652,246.459,381.676,245.638,362.075z"/>
		<path fill="#183F5B" d="M265.704,364.063c-2.284,7.483-21.974,16.146-19.915-11.099c0.913-12.084,3.343-78.813,3.808-85.243
			c0.474-6.435,1.545-15.835,4.658-17.008c15.543-5.866,37.353,13.67,33.261,37.823
			C284.789,304.684,270.445,348.538,265.704,364.063z"/>
		<path fill="#0A1828" d="M250.261,482.117c-0.817,1.585-4.722,5.252-10.135,7.669c-5.406,2.415-16.872,3.551-10.504,5.679
			c6.371,2.127,13.794,0.839,17.561,0.235c3.76-0.605,7.405-0.685,11.842-0.714c5.854-0.039,5.899-0.399,5.108-7
			C263.049,478.908,252.894,476.984,250.261,482.117z"/>
		<path fill="#183F5B" d="M310.865,366.253c-6.132-17.291,7.414-19.413,18.941-9.006c36.91,33.323,28.288,92.036,34.773,122.378
			c-3.682,2.521-9.525,3.425-11.571,3.313c-2.168-0.115-3.156-1.611-3.156-1.611C339.101,444.975,317.427,384.741,310.865,366.253z"
			/>
		<path fill="#183F5B" d="M330.886,361.301c0.693,7.797-14.298,23.217-22.624-2.807c-3.694-11.54-26.497-74.301-28.481-80.436
			c-1.979-6.14-4.515-15.256-2.074-17.51c12.207-11.274,39.756-1.357,45.034,22.563C326.276,299.102,329.45,345.136,330.886,361.301
			z"/>
		<path fill="#3A3A3A" d="M295.604,230.985c0,0,2.749,9.698,14.967,15.272c10.539,4.81-16.876,7.562-17.485,6.49
			c-0.613-1.067-5.882-18.766-5.882-18.766L295.604,230.985z"/>
		<path fill="#FFFFFF" d="M371.418,255.241H264.9c-4.719,0-8.542-3.826-8.542-8.542v-59.576c0-4.718,3.823-8.542,8.542-8.542
			h106.519c4.718,0,8.539,3.824,8.539,8.542v59.576C379.957,251.415,376.136,255.241,371.418,255.241z"/>
		<g>
			<rect x="308.864" y="189.607" opacity="0.1" fill="#0964AF" enable-background="new    " width="59.736" height="5.716"/>
			<rect x="308.864" y="198.148" opacity="0.1" fill="#0964AF" enable-background="new    " width="59.736" height="5.715"/>
			<rect x="308.864" y="206.688" opacity="0.1" fill="#0964AF" enable-background="new    " width="59.736" height="5.716"/>
			<rect x="308.864" y="215.006" opacity="0.1" fill="#0964AF" enable-background="new    " width="59.736" height="5.716"/>
			<rect x="308.864" y="224.96" opacity="0.1" fill="#0964AF" enable-background="new    " width="41.66" height="5.718"/>
			<g>
				<path fill="#50A4FF" d="M295.511,233.485h-20.203c-4.781,0-8.659-3.878-8.659-8.659v-26.558c0-4.782,3.878-8.661,8.659-8.661
					h20.203c4.786,0,8.662,3.878,8.662,8.661v26.558C304.173,229.607,300.297,233.485,295.511,233.485z"/>
				<rect x="266.648" y="238.95" opacity="0.1" fill="#0964AF" enable-background="new    " width="37.524" height="4.709"/>
			</g>
		</g>
		<path fill="#CCD6E7" d="M300.911,152.867c0,0,23.574,18.798,30.621,41.744c0,0,20.199-1.278,24.92-16.975
			c0,0-31.583-53.063-43.196-60.877C301.639,108.944,294.378,135.807,300.911,152.867z"/>
		<path fill="#FFE1BD" d="M332.946,197.153c0,0-15.787,48.734-18.786,51.458c-2.991,2.72-3.811,5.715-11.433,6.536
			c0,0,2.449,5.715,7.622,5.172c5.173-0.547,7.488-5.719,7.488-5.719s24.42-28.948,31.213-42.621
			c9.347-18.813,8.988-30.343,8.988-30.343L332.946,197.153z"/>
		<path fill="#FFE1BD" d="M200.382,102.002c0,0-48.316-28.938-50.773-32.663c-2.666-4.042-5.222-5.483-4.255-13.876
			c0,0-10.541,0.709-11.208,6.402c-0.669,5.693,7.965,8.994,7.965,8.994s25.379,34.25,38.431,44.867
			c17.963,14.606,30.444,17.015,30.444,17.015L200.382,102.002z"/>
		<path fill="#A2B5D7" d="M331.532,196.833c0.031-0.936,0.767,0.099,0.255-0.685c-0.265-0.405-0.732-0.689-0.866-1.155
			c-0.278-0.958,0.964-1.597,1.938-1.798c6.557-1.344,11.282-4.62,16.318-9.028c1.979-1.733,1.771-2.853,3.269-5.014
			c0.942-1.364,2.499-2.697,4.007-2.011c3.141,1.431,0.771,4.305,2.138,6.256c0.275,0.392,0.689,0.687,0.881,1.126
			c0.322,0.728-0.064,1.563-0.511,2.221c-1.458,2.14-2.714,3.678-4.804,5.211c-1.979,1.451-4.223,2.301-6.398,3.437
			C345.316,196.667,331.361,201.802,331.532,196.833z"/>
		<g>
			<path fill="#CCD6E7" d="M263.552,108.739c0,0-40.994,4.354-58.186-6.236l-20.826,24.54c0,0,41.041,18.771,64.304,14.683
				L263.552,108.739z"/>
			<path fill="#A2B5D7" d="M204.458,99.599c0.623,0.98-0.854,0.433,0.216,0.877c0.556,0.23,1.231,0.192,1.696,0.576
				c0.949,0.786,0.126,2.306-0.734,3.191c-5.765,5.947-8.312,12.595-10.384,20.616c-0.816,3.152,0.178,4.151,0.156,7.409
				c-0.019,2.051-0.826,1.628-2.848,1.977c-4.211,0.727-3.638-0.992-6.399-2.031c-0.554-0.209-1.187-0.226-1.689-0.538
				c-0.833-0.519-1.021-1.644-1.023-2.63c-0.003-3.204,0.207-5.652,1.276-8.675c1.012-2.867,2.718-5.302,4.148-7.982
				C190.478,109.382,201.168,94.398,204.458,99.599z"/>
		</g>
	</g>
	<g>
		<path fill="#F2F2F3" d="M113.567,23.05l1.909,1.436l7.401-9.838l-1.909-1.437c-2.717-2.042-6.576-1.497-8.619,1.221l0,0
			C110.304,17.146,110.85,21.005,113.567,23.05z"/>
		<polygon fill="#FF8931" points="126.546,67.175 133.687,74.227 150.134,52.463 146.204,49.505 		"/>
		<polygon fill="#EAEBEE" points="105.082,34.605 140.231,43.497 148.007,33.163 129.717,1.854 		"/>
		<polygon fill="#DCE3EB" points="107.331,35.314 140.231,43.497 143.33,39.378 115.477,24.485 		"/>
		<path fill="#EAEBEE" d="M154.811,53.197L154.811,53.197c1.902,1.431,4.601,1.049,6.028-0.851l1.384-1.837
			c1.429-1.899,1.046-4.6-0.853-6.027l0,0c-1.899-1.429-4.599-1.049-6.028,0.852l-1.381,1.837
			C152.533,49.071,152.914,51.769,154.811,53.197z"/>
		<path fill="#DCE3EB" d="M155.344,45.337l-1.381,1.833c-1.431,1.906-1.047,4.6,0.853,6.028c1.899,1.431,4.595,1.053,6.028-0.851
			l1.378-1.834c0.106-0.14,0.201-0.287,0.283-0.437c-1.48,1.552-3.923,1.779-5.684,0.456c-1.761-1.324-2.217-3.737-1.139-5.586
			C155.565,45.064,155.448,45.197,155.344,45.337z"/>
		<path fill="#FF8931" d="M103.961,35.587L103.961,35.587c1.118,0.839,2.701,0.615,3.541-0.501l23.351-31.041
			c0.838-1.115,0.615-2.698-0.501-3.538l0,0c-1.116-0.838-2.7-0.615-3.539,0.501l-23.351,31.04
			C102.625,33.163,102.848,34.748,103.961,35.587z"/>
		<path fill="#FF7110" d="M109.175,24.452l-5.712,7.594c-0.838,1.117-0.615,2.698,0.501,3.537c1.115,0.839,2.698,0.616,3.538-0.5
			l5.71-7.593c-0.835,1.112-2.42,1.34-3.536,0.501C108.558,27.151,108.337,25.564,109.175,24.452z"/>
		<path fill="#FFAC33" d="M143.447,49.721l2.302,1.731c3.392,2.55,8.21,1.87,10.762-1.523l2.189-2.909
			c2.549-3.394,1.871-8.209-1.522-10.763l-2.299-1.729c-3.393-2.551-8.21-1.871-10.765,1.521l-2.187,2.911
			C139.378,42.351,140.058,47.168,143.447,49.721z"/>
		<path fill="#FF8931" d="M142.049,38.8l-3.278,4.358c-0.806,1.07-0.596,2.595,0.481,3.406l10.691,8.044
			c1.074,0.806,2.603,0.59,3.407-0.481l3.281-4.357c-0.81,1.071-2.336,1.287-3.41,0.481l-10.692-8.044
			C141.453,41.396,141.243,39.872,142.049,38.8z"/>
		<path fill="#FFE1BD" d="M131.676,61.877c-0.129-0.536,7.57-8.529,9.13-8.03c1.557,0.497,1.771,3.893,1.88,5.432
			c0.108,1.541-2.646,5.119-4.403,5.339C136.521,64.838,132.447,65.066,131.676,61.877z"/>
	</g>
</g>
<image overflow="visible" opacity="0.4" enable-background="new    " width="500" height="500" xlink:href="screen_2x_old.png"  transform="matrix(1 0 0 1 703.4631 128.9932)">
</image>
</svg>
